<svg width="16" height="16" viewBox="0 0 16 16" fill="none" xmlns="http://www.w3.org/2000/svg">
<path d="M14.6666 7.33268C14.6666 7.00509 14.6631 6.6775 14.6561 6.34895C14.6125 4.30526 14.5907 3.28341 13.8366 2.52646C13.0825 1.7695 12.033 1.74313 9.93404 1.69039C8.64038 1.65789 7.35946 1.65789 6.0658 1.69039C3.9668 1.74312 2.91731 1.76949 2.16322 2.52645C1.40913 3.2834 1.38734 4.30525 1.34376 6.34893C1.32975 7.00606 1.32975 7.65931 1.34376 8.31643C1.38735 10.3601 1.40914 11.382 2.16322 12.1389C2.91731 12.8959 3.96681 12.9222 6.0658 12.975C6.71263 12.9912 7.35628 12.9993 7.99992 12.9993" stroke="#AAAAAA" stroke-opacity="0.666667" stroke-width="1.5" stroke-linecap="round" stroke-linejoin="round"/>
<path d="M4.6665 5L6.62785 6.15962C7.77132 6.83568 8.22836 6.83568 9.37183 6.15962L11.3332 5" stroke="#AAAAAA" stroke-opacity="0.666667" stroke-width="1.5" stroke-linecap="round" stroke-linejoin="round"/>
<path d="M13.9167 14.3333C13.9167 14.7475 14.2525 15.0833 14.6667 15.0833C15.0809 15.0833 15.4167 14.7475 15.4167 14.3333H13.9167ZM11.1439 12.8711C11.4409 13.1598 11.9158 13.1531 12.2045 12.8561C12.4932 12.5591 12.4864 12.0842 12.1894 11.7955L11.1439 12.8711ZM12.1894 9.53781C12.4864 9.24911 12.4932 8.77428 12.2045 8.47726C11.9158 8.18023 11.4409 8.17349 11.1439 8.46219L12.1894 9.53781ZM10 11.4167H12V9.91667H10V11.4167ZM13.9167 13.3333V14.3333H15.4167V13.3333H13.9167ZM12 11.4167C13.0585 11.4167 13.9167 12.2748 13.9167 13.3333H15.4167C15.4167 11.4464 13.887 9.91667 12 9.91667V11.4167ZM9.25 10.6667C9.25 10.8958 9.32863 11.0859 9.39652 11.2127C9.46759 11.3456 9.55694 11.4643 9.64203 11.5642C9.8117 11.7634 10.0251 11.9575 10.2221 12.1244C10.4223 12.294 10.6324 12.4579 10.8007 12.5901C10.9861 12.7358 11.0948 12.8234 11.1439 12.8711L12.1894 11.7955C12.07 11.6794 11.886 11.5352 11.7273 11.4105C11.5516 11.2725 11.3661 11.1277 11.1918 10.98C11.0142 10.8295 10.8741 10.6975 10.784 10.5916C10.7392 10.539 10.722 10.5105 10.7191 10.505C10.7129 10.4935 10.75 10.5543 10.75 10.6667L9.25 10.6667ZM11.1439 8.46219C11.0948 8.50993 10.9861 8.59758 10.8008 8.7432C10.6324 8.87545 10.4223 9.03932 10.2221 9.20896C10.0251 9.37582 9.8117 9.56988 9.64203 9.76909C9.55694 9.86901 9.46759 9.98778 9.39652 10.1206C9.32863 10.2474 9.25 10.4376 9.25 10.6667L10.75 10.6667C10.75 10.7791 10.7129 10.8398 10.7191 10.8283C10.722 10.8228 10.7392 10.7943 10.784 10.7417C10.8741 10.6358 11.0142 10.5038 11.1918 10.3534C11.3661 10.2056 11.5516 10.0609 11.7273 9.92283C11.886 9.79817 12.07 9.65391 12.1894 9.53781L11.1439 8.46219Z" fill="#AAAAAA" fill-opacity="0.666667"/>
</svg>
