<svg width="20" height="20" viewBox="0 0 20 20" fill="none" xmlns="http://www.w3.org/2000/svg">
<path d="M10.0003 18.3334C5.39792 18.3334 1.66699 14.6024 1.66699 10C1.66699 5.39765 5.39795 1.66669 10.0003 1.66669C13.7317 1.66669 16.8551 4.1191 17.917 7.50002H15.8336" stroke="white" stroke-width="1.5" stroke-linecap="round" stroke-linejoin="round"/>
<path d="M10 6.66669V10L11.6667 11.6667" stroke="white" stroke-width="1.5" stroke-linecap="round" stroke-linejoin="round"/>
<path d="M18.2959 10.8333C18.3207 10.5591 18.3333 10.2811 18.3333 10M12.5 18.3333C12.7847 18.2396 13.0627 18.1304 13.3333 18.0065M17.3255 14.1667C17.4862 13.857 17.6296 13.536 17.7542 13.2052M15.1604 16.8577C15.4475 16.6201 15.7193 16.3632 15.974 16.0887" stroke="white" stroke-width="1.5" stroke-linecap="round" stroke-linejoin="round"/>
</svg>
