<svg width="21" height="22" viewBox="0 0 21 22" fill="none" xmlns="http://www.w3.org/2000/svg">
<path d="M19.5 9.91602V8.91602C19.5 5.14478 19.5 3.25916 18.2595 2.08759C17.019 0.916016 15.0225 0.916016 11.0294 0.916016L9.97059 0.916016C5.97752 0.916015 3.98098 0.916015 2.74049 2.08759C1.5 3.25916 1.5 5.14478 1.5 8.91601L1.5 12.916C1.5 16.6873 1.5 18.5729 2.74049 19.7444C3.98098 20.916 5.97751 20.916 9.97059 20.916H10.5" stroke="#54545B" stroke-width="1.5" stroke-linecap="round"/>
<path d="M6.5 5.91602H14.5" stroke="#54545B" stroke-width="1.5" stroke-linecap="round"/>
<path d="M6.5 10.916H11.5" stroke="#54545B" stroke-width="1.5" stroke-linecap="round"/>
<path d="M19.5 19.5631L19.5 15.916C19.5 14.4866 18.1569 12.916 16.5 12.916C14.8431 12.916 13.5 14.4866 13.5 15.916L13.5 19.416C13.5 20.1957 14.2326 20.916 15.1364 20.916C16.0401 20.916 16.7727 20.1957 16.7727 19.416L16.7727 16.6807" stroke="#54545B" stroke-width="1.5" stroke-linecap="round"/>
</svg>
