<svg width="169" height="148" viewBox="0 0 169 148" fill="none" xmlns="http://www.w3.org/2000/svg">
<path d="M168.306 142.635C168.306 145.349 130.629 147.55 84.153 147.55C37.6765 147.55 0 145.349 0 142.635C0 139.92 37.6765 137.72 84.153 137.72C130.629 137.72 168.306 139.92 168.306 142.635Z" fill="#F1F0F7"/>
<path d="M157.503 29.6421C157.431 29.6275 157.357 29.6196 157.28 29.6196H144.019C143.944 29.6196 143.871 29.6275 143.8 29.6417C143.771 29.6477 143.743 29.6594 143.714 29.6678C143.675 29.6792 143.635 29.6886 143.598 29.7041C143.558 29.7208 143.521 29.7432 143.484 29.764C143.461 29.7769 143.437 29.7871 143.415 29.8014C143.367 29.8332 143.322 29.8706 143.28 29.9094C143.272 29.9162 143.264 29.9215 143.257 29.9284C143.047 30.1298 142.914 30.4116 142.914 30.725V30.8314L142.912 30.8823L142.914 30.8836V39.243C142.914 39.8524 143.41 40.348 144.019 40.348H157.28C157.89 40.348 158.386 39.8524 158.386 39.243V30.7248C158.386 30.1918 158.006 29.7454 157.503 29.6421ZM157.28 30.3295C157.358 30.3295 157.429 30.3568 157.49 30.3982C157.498 30.4034 157.506 30.4085 157.514 30.4143C157.573 30.4616 157.622 30.5248 157.649 30.6057L151.382 34.9191C151.125 35.0959 150.788 35.1015 150.525 34.9326L143.681 30.5328C143.683 30.5297 143.685 30.5271 143.687 30.524C143.716 30.475 143.756 30.4355 143.802 30.4033C143.814 30.3957 143.824 30.3871 143.836 30.3806C143.891 30.3504 143.952 30.3294 144.019 30.3294H157.28V30.3295ZM157.28 39.6383H144.019C143.801 39.6383 143.624 39.4611 143.624 39.2431V31.34L150.141 35.5296C150.386 35.6876 150.665 35.766 150.943 35.766C151.237 35.766 151.531 35.6783 151.784 35.5039L157.676 31.4488V39.2431C157.676 39.4611 157.499 39.6383 157.28 39.6383Z" fill="#E2E5FF"/>
<path d="M39.4565 19.6104L50.0588 30.5154C47.2986 29.0214 44.0393 27.6036 41.1663 27.2798C41.0944 27.2718 41.0395 27.3034 41.023 27.3546C29.258 22.1472 21.75 28.7556 21.75 28.7556C25.2515 29.3743 35.898 27.6459 35.898 27.6459C34.426 28.666 34.0532 30.355 34.0532 30.355C37.4667 30.831 40.5237 28.0684 41.0929 27.5195C41.1266 27.5459 41.1676 27.5652 41.2111 27.5701C42.8714 27.7573 44.667 28.3214 46.4189 29.0537C45.7362 29.0832 44.3315 29.2759 42.8594 30.2704C40.8019 31.6608 37.325 32.4398 37.325 32.4398C37.325 32.4398 47.7756 34.9129 46.8788 29.2485C49.2873 30.2996 51.578 31.639 53.2826 32.7267C52.0973 32.9428 45.7939 34.15 42.8305 35.8957C42.8305 35.8957 50.5369 37.6717 53.4073 32.8063C55.0581 33.8654 56.1281 34.6671 56.158 34.6895C56.2307 34.7446 56.3258 34.7532 56.3809 34.7127C56.3859 34.709 56.3908 34.7048 56.3951 34.7003C56.4466 34.6463 56.4241 34.5537 56.3443 34.4936C56.2966 34.4575 53.6084 32.4421 50.1049 30.5409C50.4026 23.8283 39.4565 19.6104 39.4565 19.6104Z" fill="#2F9F71"/>
<path d="M29.4224 19.4149L43.0841 27.6282C39.1466 19.0779 29.4224 19.4149 29.4224 19.4149Z" fill="#2F9F71"/>
<path d="M53.1806 30.4786C53.118 30.5496 52.9967 30.5128 52.9721 30.4151C52.8249 29.8301 52.4195 28.2556 52.0925 27.3259C51.6852 26.1679 52.1864 23.9931 53.821 25.4768C55.3791 26.8913 54.2194 29.3009 53.1806 30.4786Z" fill="url(#paint0_linear_469_56305)"/>
<path d="M50.3689 26.558C50.454 26.516 50.4487 26.3905 50.3594 26.3423C49.8251 26.0538 48.3887 25.2684 47.5629 24.7208C46.5341 24.0386 44.2829 23.9709 45.3208 25.9116C46.3101 27.7615 48.9566 27.2569 50.3689 26.558Z" fill="url(#paint1_linear_469_56305)"/>
<path d="M50.4377 26.3473C50.3493 26.4271 50.2006 26.3591 50.195 26.2342C50.1477 25.2004 50.0639 21.9095 50.8735 21.3366C52.0757 20.4858 53.7305 23.3751 50.4377 26.3473Z" fill="url(#paint2_linear_469_56305)"/>
<path d="M45.6606 18.2443C45.7388 18.2255 45.756 18.1237 45.69 18.069C45.2951 17.7422 44.2353 16.8559 43.6426 16.2689C42.9043 15.5379 41.0416 15.0842 41.5694 16.8291C42.0726 18.4923 44.3635 18.5559 45.6606 18.2443Z" fill="url(#paint3_linear_469_56305)"/>
<path d="M46.0148 18.0758C45.9264 18.1556 45.7778 18.0876 45.7721 17.9627C45.7248 16.9289 45.6411 13.638 46.4507 13.0651C47.6529 12.2143 49.3075 15.1036 46.0148 18.0758Z" fill="url(#paint4_linear_469_56305)"/>
<path d="M44.669 15.1503C44.6361 15.2677 44.4797 15.282 44.4127 15.1719C43.858 14.2603 42.0657 11.2808 42.528 10.3925C43.5791 8.37309 45.8976 10.779 44.669 15.1503Z" fill="url(#paint5_linear_469_56305)"/>
<path d="M52.9916 30.7483C53.106 30.7107 53.1145 30.5517 53.0036 30.4877C52.0859 29.9579 49.1328 28.328 48.2283 28.7474C46.8853 29.3702 48.7294 32.1499 52.9916 30.7483Z" fill="url(#paint6_linear_469_56305)"/>
<path d="M48.0761 22.5639C47.9983 22.6176 47.8861 22.555 47.8832 22.4559C47.8668 21.863 47.8133 20.265 47.6949 19.3015C47.5473 18.1015 48.5271 16.1349 49.821 17.925C51.0543 19.6315 49.3685 21.6732 48.0761 22.5639Z" fill="url(#paint7_linear_469_56305)"/>
<path d="M47.8282 22.7788C47.9502 22.7688 47.9939 22.6186 47.898 22.5323C47.1043 21.8173 44.5336 19.5883 43.5427 19.7841C42.0712 20.0751 43.2858 23.1523 47.8282 22.7788Z" fill="url(#paint8_linear_469_56305)"/>
<path d="M56.4054 34.5157C56.3966 34.5341 56.3846 34.5509 56.3694 34.5657C56.2958 34.6367 56.1739 34.6289 56.0974 34.5484C56.0183 34.4649 48.1343 26.0719 44.252 14.7449C44.2162 14.6411 44.2686 14.5343 44.3688 14.5066C44.469 14.4789 44.5789 14.5407 44.6145 14.6445C48.4656 25.8802 56.2859 34.2081 56.3645 34.2909C56.4253 34.3548 56.4391 34.4454 56.4054 34.5157Z" fill="url(#paint9_linear_469_56305)"/>
<path d="M122.091 143.389L57.1024 143.327C53.7248 143.323 50.989 140.647 50.9922 137.349L51.1109 13.6555C51.1142 10.2703 53.9274 7.52897 57.3944 7.53223L122.06 7.59443C125.527 7.5978 128.335 10.3446 128.332 13.7298L128.213 137.423C128.21 140.721 125.469 143.392 122.091 143.389Z" fill="#7F9CE5"/>
<path d="M119.022 142.175L57.6057 142.116C54.4056 142.113 51.814 139.51 51.8169 136.303L51.9325 15.7502C51.9356 12.4585 54.6008 9.79286 57.8855 9.7959L118.996 9.85473C122.281 9.85788 124.941 12.5288 124.937 15.8206L124.822 136.374C124.819 139.581 122.222 142.178 119.022 142.175Z" fill="#AFC3FE"/>
<path d="M119.427 22.5742H57.7012V127.09H119.427V22.5742Z" fill="#F3F1FC"/>
<path d="M101.187 16.3145H76.5586V18.1185H101.187V16.3145Z" fill="#7F9CE5"/>
<path d="M95.1105 138.308L80.5567 138.294C79.9485 138.293 79.456 137.798 79.4565 137.189L79.4584 135.331C79.4589 134.722 79.9526 134.228 80.5608 134.229L95.1143 134.243C95.7224 134.244 96.2149 134.738 96.2144 135.347L96.2126 137.205C96.212 137.815 95.7185 138.308 95.1105 138.308Z" fill="#7F9CE5"/>
<path opacity="0.06" d="M119.464 29.5283L57.6627 113.708L57.6509 127.056L119.376 127.12L119.464 29.5283Z" fill="white"/>
<path opacity="0.03" d="M51.111 13.6556C51.1143 10.2704 53.8715 7.52897 57.2695 7.53223L67.0386 7.54158C64.8033 8.46423 63.2281 10.6681 63.2256 13.2431L63.1061 137.763C63.1036 140.282 64.6477 142.44 66.8388 143.336L56.9806 143.327C53.6703 143.324 50.989 140.647 50.9922 137.349L51.111 13.6556Z" fill="#231F20"/>
<path d="M112.64 40.1629C101.682 39.8984 89.5999 33.1758 89.5999 33.1758C89.5999 33.1758 77.5885 40.0232 66.6334 40.4012C66.6334 40.4012 62.4613 74.8139 89.8771 86.6713C117.169 74.5305 112.64 40.1629 112.64 40.1629Z" fill="#7F9CE5"/>
<path d="M112.638 39.837C101.68 39.5871 89.5999 33.1758 89.5999 33.1758C89.5999 33.1758 77.5868 39.712 66.6316 40.0754C66.6316 40.0754 62.4514 72.9105 89.8642 84.2175C117.159 72.6272 112.638 39.837 112.638 39.837Z" fill="#AFC3FE"/>
<path d="M110.515 41.6148C100.572 41.3885 89.6126 35.5815 89.6126 35.5815C89.6126 35.5815 78.7136 41.5019 68.7741 41.8311C68.7741 41.8311 64.9812 71.5712 89.8521 81.812C114.615 71.3141 110.515 41.6148 110.515 41.6148Z" fill="#AFC3FE"/>
<path d="M109.179 42.712C99.8759 42.5003 89.6202 37.0664 89.6202 37.0664C89.6202 37.0664 79.4214 42.6062 70.1206 42.9144C70.1206 42.9144 66.5714 70.7435 89.8443 80.3266C113.017 70.503 109.179 42.712 109.179 42.712Z" fill="#7183D7"/>
<path d="M108.155 43.2391C99.341 43.0334 89.6239 37.7769 89.6239 37.7769C89.6239 37.7769 79.9617 43.1337 71.1501 43.4308C71.1501 43.4308 67.7904 70.3458 89.8407 79.6165C111.794 70.1178 108.155 43.2391 108.155 43.2391Z" fill="#7183D7"/>
<path d="M106.659 44.1594C98.5597 43.9648 89.6302 39.0195 89.6302 39.0195C89.6302 39.0195 80.7523 44.0571 72.6553 44.3355C72.6553 44.3355 69.571 69.6516 89.8339 78.3739C110.006 69.442 106.659 44.1594 106.659 44.1594Z" fill="#899AE2"/>
<path d="M89.6304 39.0195L89.8341 78.3739C110.006 69.442 106.659 44.1594 106.659 44.1594C98.5601 43.9648 89.631 39.02 89.6304 39.0195Z" fill="#7183D7"/>
<path d="M99.5074 59.4035C99.5074 64.8408 95.0995 69.2486 89.6623 69.2486C84.225 69.2486 79.8174 64.8407 79.8174 59.4035C79.8174 53.9663 84.225 49.5586 89.6623 49.5586C95.0996 49.5585 99.5074 53.9662 99.5074 59.4035Z" fill="#B8C9FF"/>
<path d="M91.6775 59.3239L87.6735 59.3005C87.2078 59.2978 86.8316 58.922 86.835 58.4626L86.8512 56.2147C86.8622 54.6665 88.1482 53.4143 89.7179 53.4234C91.2874 53.4325 92.5553 54.6997 92.5442 56.248L92.5281 58.4957C92.5247 58.9551 92.1431 59.3265 91.6775 59.3239ZM87.6967 58.4507L91.6664 58.4737L91.6823 56.243C91.6902 55.1633 90.8061 54.2797 89.7117 54.2734C88.6172 54.2671 87.7204 55.1402 87.7126 56.2198L87.6967 58.4507Z" fill="white"/>
<path d="M91.6765 59.4371L87.6724 59.4137C87.1381 59.4106 86.7063 58.9837 86.71 58.4618L86.7262 56.2141C86.7378 54.6033 88.08 53.3005 89.7183 53.3101C91.3569 53.3198 92.6804 54.6378 92.6688 56.2486L92.6527 58.4963C92.6487 59.0182 92.2111 59.4403 91.6765 59.4371ZM89.7167 53.5367C88.216 53.5279 86.9863 54.7297 86.9757 56.2156L86.9595 58.4632C86.9567 58.8601 87.2772 59.1849 87.674 59.1873L91.6783 59.2106C92.075 59.213 92.4002 58.8919 92.4031 58.495L92.4192 56.2473C92.4299 54.7614 91.2176 53.5454 89.7167 53.5367ZM91.7902 58.5877L87.571 58.5632L87.5876 56.2191C87.5959 55.077 88.549 54.1534 89.7121 54.1601C90.8754 54.1669 91.8152 55.1016 91.807 56.2437L91.7902 58.5877ZM87.8222 58.3381L91.5423 58.3599L91.5575 56.2424C91.5648 55.2252 90.7364 54.3926 89.7107 54.3866C88.685 54.3806 87.8447 55.2034 87.8373 56.2206L87.8222 58.3381Z" fill="white"/>
<path d="M93.7445 58.5273C93.7473 58.2371 93.4503 58.0007 93.0813 57.9994L86.3038 57.9746C85.9346 57.9733 85.6333 58.2075 85.6305 58.4976L85.5806 63.6788C85.5778 63.9691 85.8746 64.2053 86.2437 64.2066L93.0211 64.2314C93.3903 64.2329 93.6916 63.9986 93.6945 63.7084L93.7445 58.5273ZM90.2073 62.2504L89.0214 62.2462L89.2376 61.2356C89.0588 61.1028 88.9426 60.8807 88.945 60.6295C88.9488 60.2245 89.2586 59.8974 89.6369 59.8989C90.0149 59.9003 90.3186 60.2295 90.3146 60.6345C90.3121 60.8859 90.1919 61.1069 90.0105 61.2384L90.2073 62.2504Z" fill="white"/>
<path d="M101.505 103.479H68.7775C68.4163 103.479 68.1235 103.186 68.1235 102.825V101.035C68.1235 100.674 68.4164 100.381 68.7775 100.381H101.505C101.866 100.381 102.159 100.674 102.159 101.035V102.825C102.159 103.186 101.866 103.479 101.505 103.479Z" fill="#C7D4FF"/>
<path d="M110.546 111.225H68.7775C68.4164 111.225 68.1235 110.932 68.1235 110.571V108.78C68.1235 108.419 68.4164 108.126 68.7775 108.126H110.546C110.908 108.126 111.2 108.419 111.2 108.78V110.571C111.2 110.932 110.908 111.225 110.546 111.225Z" fill="#C7D4FF"/>
<path d="M137.716 29.5283C137.716 34.9593 133.314 39.3621 127.883 39.3621C122.452 39.3621 118.049 34.9593 118.049 29.5283C118.049 24.0973 122.452 19.6948 127.883 19.6948C133.314 19.6947 137.716 24.0973 137.716 29.5283Z" fill="#C7D4FF"/>
<path d="M130.811 26.7972C130.944 25.1919 129.75 23.7828 128.145 23.6499C126.539 23.517 125.13 24.7107 124.997 26.316C124.865 27.9213 126.058 29.3304 127.664 29.4633C129.269 29.5962 130.678 28.4025 130.811 26.7972Z" fill="white"/>
<path d="M132.755 34.6378C132.681 32.0077 130.531 29.897 127.883 29.897C125.235 29.897 123.085 32.0077 123.011 34.6378H132.755Z" fill="white"/>
<path d="M138.615 24.1988C138.615 25.9538 137.177 27.3767 135.405 27.3767C133.632 27.3767 132.195 25.9538 132.195 24.1988C132.195 22.4437 133.632 21.021 135.405 21.021C137.177 21.021 138.615 22.4437 138.615 24.1988Z" fill="#F45170"/>
<path d="M135.939 24.1987L136.829 25.1778C136.929 25.2899 136.979 25.3845 136.979 25.4612C136.979 25.5382 136.923 25.6281 136.809 25.7315C136.695 25.8348 136.599 25.8866 136.521 25.8866C136.443 25.8866 136.352 25.8274 136.249 25.7095L135.407 24.7437L134.565 25.7095C134.459 25.8275 134.368 25.8866 134.293 25.8866C134.218 25.8866 134.122 25.8342 134.005 25.7292C133.888 25.6245 133.83 25.5351 133.83 25.4612C133.83 25.3875 133.882 25.293 133.985 25.1778L134.875 24.1987L133.985 23.2199C133.882 23.1106 133.83 23.0176 133.83 22.9409C133.83 22.8641 133.888 22.7732 134.003 22.6684C134.118 22.5636 134.215 22.5112 134.293 22.5112C134.371 22.5112 134.462 22.5704 134.565 22.6884L135.407 23.654L136.249 22.6884C136.355 22.5703 136.446 22.5112 136.521 22.5112C136.596 22.5112 136.692 22.563 136.807 22.6663C136.922 22.7697 136.979 22.8611 136.979 22.941C136.979 23.0207 136.929 23.1136 136.829 23.22L135.939 24.1987Z" fill="white"/>
<path d="M130.614 113.403H48.1133C45.7116 113.403 43.7646 111.456 43.7646 109.054V97.15C43.7646 94.7482 45.7116 92.8013 48.1133 92.8013H130.614C133.016 92.8013 134.963 94.7482 134.963 97.15V109.054C134.963 111.456 133.016 113.403 130.614 113.403Z" fill="#F45170"/>
<path d="M73.7246 98.2773H76.811C78.7945 98.2773 80.252 98.8853 80.252 100.656C80.252 101.564 79.7558 102.45 78.9124 102.745V102.804C79.9805 103.046 80.765 103.789 80.765 105.094C80.765 107.024 79.1839 107.927 77.0586 107.927H73.7247L73.7246 98.2773ZM76.6573 102.261C78.0029 102.261 78.576 101.736 78.576 100.898C78.576 99.9653 77.944 99.6109 76.6934 99.6109H75.4355V102.261H76.6573V102.261ZM76.8819 106.594C78.2985 106.594 79.089 106.085 79.089 104.999C79.089 103.984 78.3225 103.542 76.8819 103.542H75.4354V106.594H76.8819Z" fill="white"/>
<path d="M82.9072 98.2773H84.618V106.487H88.626V107.927H82.9072V98.2773Z" fill="white"/>
<path d="M89.7217 103.064C89.7217 99.9412 91.4638 98.1006 93.9772 98.1006C96.4918 98.1006 98.2327 99.9508 98.2327 103.064C98.2327 106.186 96.4918 108.104 93.9772 108.104C91.4638 108.104 89.7217 106.186 89.7217 103.064ZM96.4738 103.064C96.4738 100.898 95.4946 99.588 93.9773 99.588C92.4611 99.588 91.4807 100.898 91.4807 103.064C91.4807 105.23 92.4611 106.616 93.9773 106.616C95.4946 106.616 96.4738 105.23 96.4738 103.064Z" fill="white"/>
<path d="M100.041 103.135C100.041 99.9772 102.018 98.1006 104.462 98.1006C105.672 98.1006 106.634 98.6785 107.242 99.3225L106.326 100.425C105.83 99.9304 105.252 99.588 104.497 99.588C102.928 99.588 101.799 100.916 101.799 103.082C101.799 105.283 102.839 106.616 104.456 106.616C105.311 106.616 105.972 106.221 106.515 105.625L107.431 106.699C106.648 107.609 105.642 108.104 104.391 108.104C101.965 108.104 100.041 106.328 100.041 103.135Z" fill="white"/>
<path d="M109.421 98.2773H111.132V102.663H111.18L114.615 98.2773H116.516L113.547 102.043L117.017 107.927H115.128L112.52 103.388L111.132 105.112V107.927H109.421V98.2773Z" fill="white"/>
<path d="M65.9646 103.66L61.9222 103.637C61.4522 103.634 61.0724 103.255 61.0757 102.791L61.092 100.522C61.1031 98.9586 62.4014 97.6944 63.9861 97.7037C65.5706 97.7128 66.8506 98.9921 66.8394 100.555L66.8232 102.824C66.8199 103.288 66.4347 103.663 65.9646 103.66ZM61.9457 102.779L65.9533 102.802L65.9694 100.55C65.9773 99.46 65.0848 98.568 63.9798 98.5616C62.8749 98.5552 61.9695 99.4367 61.9616 100.527L61.9457 102.779Z" fill="white"/>
<path d="M65.9639 103.775L61.9214 103.751C61.382 103.748 60.946 103.317 60.9497 102.79L60.966 100.521C60.9778 98.8949 62.3328 97.5797 63.9868 97.5894C65.641 97.5992 66.9771 98.9298 66.9655 100.556L66.9492 102.825C66.9455 103.352 66.5036 103.778 65.9639 103.775ZM63.9853 97.8181C62.4702 97.8092 61.2288 99.0225 61.2181 100.523L61.2018 102.792C61.199 103.192 61.5225 103.52 61.923 103.523L65.9656 103.546C66.3662 103.549 66.6945 103.224 66.6974 102.824L66.7136 100.555C66.7244 99.0545 65.5006 97.8268 63.9853 97.8181ZM66.0787 102.917L61.8192 102.893L61.8361 100.526C61.8444 99.3732 62.8066 98.4406 63.9809 98.4475C65.1553 98.4543 66.1041 99.3978 66.0958 100.551L66.0787 102.917ZM62.0727 102.665L65.8284 102.687L65.8437 100.549C65.8511 99.5226 65.0147 98.682 63.9793 98.676C62.9438 98.6699 62.0954 99.5006 62.0879 100.528L62.0727 102.665Z" fill="white"/>
<path d="M68.0514 102.857C68.0544 102.564 67.7545 102.325 67.3819 102.323L60.5397 102.298C60.167 102.297 59.8628 102.533 59.8599 102.826L59.8096 108.057C59.8067 108.35 60.1064 108.589 60.479 108.59L67.3213 108.615C67.694 108.617 67.9982 108.38 68.0011 108.087L68.0514 102.857ZM64.4805 106.615L63.2833 106.611L63.5015 105.591C63.321 105.456 63.2037 105.232 63.2062 104.979C63.21 104.57 63.5228 104.24 63.9047 104.241C64.2864 104.242 64.5929 104.575 64.5889 104.984C64.5864 105.237 64.4649 105.461 64.2818 105.593L64.4805 106.615Z" fill="white"/>
<path d="M23.9695 140.289L23.6495 135.242H19.5798C19.5798 135.242 19.2598 137.248 18.9397 138.149C18.6197 139.05 17.0649 140.155 17.0649 140.687C17.0648 141.22 23.9695 142.061 23.9695 140.289Z" fill="url(#paint10_radial_469_56305)"/>
<path d="M41.7029 139.342C41.7029 139.342 40.3768 138.151 39.4942 137.61L38.7136 134.79H34.5512L34.3031 138.851C34.1289 140.016 35.16 141.142 37.2049 141.007C39.2499 140.871 41.7029 139.342 41.7029 139.342Z" fill="url(#paint11_radial_469_56305)"/>
<path d="M46.0249 141.428C45.6224 140.978 44.2449 140.665 43.9983 140.567C43.2514 140.269 40.9489 138.073 40.9489 138.073C39.4867 137.405 38.6331 137.605 37.7788 138.301C37.2163 138.76 37.3671 139.211 37.1257 139.659C37.1257 139.659 35.0594 139.231 34.7881 138.811C34.3919 138.196 34.2553 138.016 33.8265 138.479C33.7253 138.588 33.6621 143.249 33.6621 143.249L45.6282 143.39C45.6282 143.39 46.6766 142.157 46.0249 141.428Z" fill="#242345"/>
<path d="M20.792 94.002C20.816 94.713 20.7092 95.3842 20.7092 95.3842C20.7092 95.3842 20.368 111.57 18.9691 118.72C17.5705 125.87 17.355 137.652 17.355 137.652C20.9057 139.968 24.7794 138.208 24.7794 138.208C24.7794 138.208 25.102 127.884 26.0702 121.237C27.0388 114.591 30.9567 105.112 30.9567 105.112C30.9567 105.112 31.7728 108.146 31.0196 113.483C30.2664 118.82 33.1718 135.386 33.1718 135.386C33.0101 136.595 33.1718 137.94 33.1718 137.94C37.26 138.933 39.9502 136.847 39.9502 136.847C38.3361 135.235 37.6905 113.986 38.5514 111.267C39.4119 108.549 39.6672 95.4995 39.6672 95.4995C39.7205 95.2072 39.7037 94.6553 39.7499 94.194L20.792 94.002Z" fill="#4A5082"/>
<path opacity="0.2" d="M21.4815 115.798C23.1293 109.019 25.3658 97.1843 25.3658 97.1843C25.3658 97.1843 27.179 96.1045 28.7754 94.0829L20.792 94.002C20.816 94.713 20.7092 95.3842 20.7092 95.3842C20.7092 95.3842 20.368 111.57 18.9691 118.72C17.5705 125.87 17.355 137.652 17.355 137.652C17.9934 138.069 18.642 138.352 19.2768 138.539C19.4186 135.106 20.0506 121.684 21.4815 115.798Z" fill="black"/>
<path opacity="0.2" d="M32.4281 120.049C32.6635 114.304 34.0759 110.397 34.0759 110.397L33.0166 98.333L31.1169 103.694L30.9329 105.17C30.9485 105.132 30.9568 105.112 30.9568 105.112C30.9568 105.112 31.7728 108.145 31.0197 113.483C30.2665 118.82 33.1719 135.386 33.1719 135.386C33.0102 136.595 33.1719 137.94 33.1719 137.94C34.028 138.148 34.8217 138.219 35.5432 138.205C34.5705 134.359 32.2414 124.604 32.4281 120.049Z" fill="black"/>
<path d="M17.4665 139.441C17.4656 139.446 17.4716 139.45 17.4742 139.455C16.787 140.07 16.0165 140.773 15.8466 141.126C15.5794 141.681 15.4339 142.349 15.7749 142.871C15.9257 143.102 16.1439 143.268 16.4004 143.39C19.1086 143.39 21.5357 143.39 24.244 143.39C24.4877 142.462 24.1302 140.028 24.1302 139.793C24.1302 139.559 23.6928 139.403 23.4741 139.208C23.4821 138.678 23.3522 138.17 22.6484 137.833C22.2305 137.633 20.456 137.605 19.6521 137.61C18.2168 137.62 17.5978 138.636 17.4665 139.441Z" fill="#242345"/>
<path d="M33.6832 61.348C34.1349 62.2392 34.8793 62.9003 33.5093 63.6706C32.5788 64.1937 31.5613 64.2707 30.6254 63.923C29.4799 63.4976 28.4212 62.8366 27.5423 61.9867C27.2926 61.7454 27.0513 61.4801 26.9321 61.154C26.6459 60.3687 27.4477 59.8972 27.5113 59.165C27.6998 56.9803 27.9671 54.6902 27.8113 52.4772C27.795 52.2397 27.785 51.9779 27.6947 51.754C27.7333 51.6902 27.787 51.6333 27.8737 51.5939C28.149 51.4684 28.5093 51.5216 28.7917 51.5893C29.1247 51.6689 29.444 51.7966 29.7713 51.8981C30.5511 52.1399 31.3227 52.448 32.0383 52.8434C32.7374 53.2304 33.3276 53.745 33.939 54.2522C34.1418 54.4206 34.3684 54.5629 34.5454 54.761C34.6105 54.8341 34.6922 54.9306 34.6927 55.0344C34.6933 55.1755 34.5356 55.2597 34.4614 55.3607C33.9669 56.0333 33.7679 57.0714 33.6211 57.9037C33.4575 58.8303 33.3262 59.7803 33.4749 60.7182C33.5124 60.9556 33.5876 61.1598 33.6832 61.348Z" fill="#FCC2B4"/>
<path d="M33.6789 61.3387C30.0078 62.6196 28.1568 60.4706 27.5762 58.4331C27.691 57.1658 27.8101 55.8711 27.8451 54.5823L28.3234 54.5356L34.6826 54.981C34.687 54.9985 34.6922 55.0161 34.6925 55.0343C34.6931 55.1754 34.5353 55.2596 34.4612 55.3608C33.9666 56.0332 33.7676 57.0714 33.621 57.9037C33.4573 58.8303 33.326 59.7803 33.4747 60.7182C33.5117 60.9518 33.5855 61.1529 33.6789 61.3387Z" fill="#FBA896"/>
<path d="M32.8931 60.795C35.7881 59.7823 36.9966 57.1202 36.5832 54.7942C36.3276 53.3563 36.7316 51.4885 36.6865 49.9255C36.5637 48.5307 36.0733 47.3846 34.4749 47.0891C31.174 46.4787 24.7476 47.7693 26.1036 52.7443C26.1036 52.7443 24.2178 52.1463 24.2937 54.4633C24.3696 56.7802 26.0274 56.9637 26.5092 57.1036C26.5092 57.1036 29.0397 62.1431 32.8931 60.795Z" fill="#FCC2B4"/>
<path d="M36.6371 51.3748C36.6371 51.3748 35.967 49.4863 33.304 49.9771C30.6408 50.468 30.5786 52.0328 27.588 50.9614C27.588 50.9614 27.4748 52.854 26.5244 53.6608C25.574 54.4676 23.4857 49.2789 24.8539 48.6513C26.222 48.0236 36.5521 46.8231 36.6371 51.3748Z" fill="#FBA896"/>
<path d="M33.1114 56.9684C33.1115 56.9193 33.2803 56.8893 33.3851 56.6817C33.4393 56.5785 33.4672 56.4565 33.4481 56.3009C33.4319 56.1469 33.3713 55.9727 33.2989 55.7762C33.0104 54.9828 32.8488 54.3124 32.9382 54.28C33.0277 54.2476 33.3343 54.8645 33.6231 55.6586C33.6957 55.8574 33.7628 56.0702 33.7653 56.2835C33.7668 56.391 33.7533 56.4894 33.7197 56.5884C33.6861 56.6826 33.6378 56.7602 33.5838 56.823C33.4756 56.9492 33.3422 57.0075 33.2501 57.0127C33.1568 57.0192 33.1108 56.99 33.1114 56.9684Z" fill="#FBA896"/>
<path d="M31.9839 52.7491C31.9521 52.7876 31.8139 52.7188 31.5947 52.6403C31.3748 52.5607 31.0724 52.479 30.7224 52.4832C30.3876 52.4876 30.0763 52.5771 29.8617 52.6622C29.7526 52.7059 29.6637 52.7415 29.6003 52.7667C29.5345 52.7914 29.4903 52.8001 29.4754 52.781C29.4609 52.7627 29.474 52.7209 29.5172 52.6615C29.5626 52.6002 29.6373 52.5257 29.7445 52.4485C29.9575 52.2943 30.3052 52.1434 30.7257 52.1383C31.1309 52.133 31.4932 52.2748 31.7065 52.4235C31.925 52.5731 32.0129 52.7154 31.9839 52.7491Z" fill="#3B4159"/>
<path d="M33.9395 52.8259C33.9095 52.793 33.9936 52.6485 34.2083 52.4935C34.4176 52.3392 34.7762 52.1884 35.1815 52.1833C35.602 52.1777 35.9533 52.3195 36.1701 52.4683C36.2794 52.5428 36.356 52.6154 36.4028 52.6754C36.4476 52.7337 36.4617 52.7751 36.4476 52.7939C36.4333 52.8134 36.3889 52.8058 36.3224 52.7828C36.2584 52.7591 36.1687 52.7259 36.0585 52.685C35.842 52.6054 35.5284 52.5236 35.1937 52.5279C34.8434 52.5325 34.5434 52.622 34.3255 52.7072C34.1085 52.7913 33.9721 52.8639 33.9395 52.8259Z" fill="#3B4159"/>
<path d="M31.3994 54.0607C31.4539 54.4314 31.2669 54.7773 30.9816 54.8331C30.6964 54.8889 30.4209 54.6335 30.3664 54.263C30.3118 53.8922 30.4988 53.5464 30.7841 53.4906C31.0695 53.4347 31.3449 53.69 31.3994 54.0607Z" fill="#3B4159"/>
<path d="M35.5252 54.3681C35.568 54.7403 35.3922 55.0803 35.1325 55.1275C34.8728 55.1748 34.6277 54.9114 34.585 54.5393C34.5424 54.1672 34.7182 53.8272 34.9779 53.7799C35.2374 53.7326 35.4826 53.996 35.5252 54.3681Z" fill="#3B4159"/>
<path d="M30.3293 50.0004C28.346 50.4085 26.3032 50.0697 26.3032 50.0697C26.9867 50.7234 27.055 52.8783 26.7726 54.1895C26.5222 55.3529 24.7634 54.184 24.3696 53.9052C24.2837 53.2031 23.1426 51.8202 24.0854 50.1531C24.7662 48.9493 34.3323 44.7489 35.8064 46.315C38.0364 48.6841 36.6799 51.5804 36.6799 51.5804C36.063 48.1619 32.3126 49.592 30.3293 50.0004Z" fill="#3F3C51"/>
<path d="M25.1862 55.6566C25.1862 55.6566 25.9777 55.6695 26.3461 55.2792C26.7145 54.8888 25.8475 51.4134 25.8475 51.4134C25.8475 51.4134 26.9655 50.5781 27.0723 49.3025C27.1791 48.0269 26.3798 47.3076 25.058 47.2945C24.3081 47.2871 23.3327 47.8036 22.6287 48.2521C22.1835 48.5357 22.1912 49.1879 22.6421 49.4622C22.6421 49.4622 23.1616 52.3127 23.5202 53.0863C23.8791 53.8595 25.1862 55.6566 25.1862 55.6566Z" fill="#3F3C51"/>
<path d="M24.2937 54.4631C24.2463 53.0149 24.9652 52.7056 25.511 52.6772C25.8544 52.6593 26.0483 53.1825 26.1374 53.5145C26.7072 55.6388 26.5092 57.1034 26.5092 57.1034C26.0274 56.9636 24.3695 56.78 24.2937 54.4631Z" fill="#FCC2B4"/>
<path d="M24.9851 53.8532C24.7985 54.4052 24.9303 55.0094 25.0641 55.5602C25.1039 55.7241 25.1485 55.8971 25.2565 56.0029C25.3646 56.1087 25.5575 56.1067 25.6343 55.9544C25.7082 55.8072 25.6365 55.6309 25.5816 55.481C25.5268 55.3309 25.5087 55.1102 25.6329 55.0271C25.6908 54.9885 25.761 54.9969 25.8211 54.9641C25.9519 54.8931 25.9716 54.6785 25.9557 54.5108C25.9337 54.2789 25.8851 54.0526 25.8116 53.8404C25.7396 53.6322 25.615 53.4158 25.4256 53.407C25.2275 53.3979 25.0622 53.6248 24.9851 53.8532Z" fill="#FBA896"/>
<path d="M31.4113 49.3231C31.4113 49.3231 33.3293 50.7186 36.0466 49.7567C38.764 48.7945 38.9297 47.2497 38.9297 47.2497C38.9297 47.2497 36.6665 47.0965 35.2995 45.5254C33.9327 43.9544 29.6169 42.2661 25.9863 44.2481C22.3556 46.2301 23.0681 49.332 25.0391 49.9149C27.0101 50.4977 28.304 49.2813 28.7857 49.5745C29.2675 49.8678 30.0431 50.193 31.4113 49.3231Z" fill="#3F3C51"/>
<path d="M27.0081 60.3989L25.4858 61.6049C25.4858 61.6049 21.6826 62.8252 17.2756 66.8222C17.2756 66.8222 16.1268 78.6942 19.6114 82.5888C19.6114 82.5888 20.7347 83.4699 22.3365 83.3674C22.3365 83.3674 22.3882 89.0475 21.3633 90.2774C20.3385 91.5072 20.1955 95.7276 20.1955 95.7276L21.1687 96.7008C21.1687 96.7008 24.4872 97.8953 26.2296 95.4356L37.9086 95.241C37.9086 95.241 38.7268 97.1469 41.8015 96.0195C41.8015 96.0195 40.9265 87.0716 38.9791 85.0219L39.3684 81.3236C39.3684 81.3236 44.862 82.5402 44.9645 79.1582C45.067 75.776 41.4793 65.5985 40.147 64.7785C38.8146 63.9585 34.8125 62.4249 34.8125 62.4249L33.5826 61.1951C33.5826 61.1951 30.0828 66.3433 27.0081 60.3989Z" fill="white"/>
<path opacity="0.1" d="M29.7278 74.1777C27.8007 70.6276 29.0776 64.7427 29.4919 63.0986C28.6836 62.7852 27.8307 61.9893 27.0081 60.3989L25.4858 61.6051C25.4858 61.6051 21.6826 62.8253 17.2756 66.8223C17.2756 66.8223 16.1268 78.6943 19.6114 82.5889C19.6114 82.5889 20.7347 83.47 22.3364 83.3675C22.3364 83.3675 22.3881 89.0477 21.3632 90.2775C20.3384 91.5073 20.1954 95.7277 20.1954 95.7277L21.1686 96.7009C21.1686 96.7009 24.4871 97.8954 26.2295 95.4357L31.9549 95.3403C28.8683 89.5494 29.7278 74.1777 29.7278 74.1777Z" fill="#231F20"/>
<path d="M40.6541 64.27C39.5449 63.5875 36.2358 62.7633 35.1577 62.5063C33.8377 68.0962 36.8621 95.2218 36.8621 95.2218C36.8621 95.2218 39.0143 97.579 42.0891 96.4516C42.0891 96.4516 41.3717 87.125 39.4243 85.0753L39.7318 81.8981C39.7318 81.8981 45.4458 83.1245 45.5484 79.7423C45.6507 76.3603 41.9865 65.09 40.6541 64.27Z" fill="#37A6FF"/>
<path d="M19.5413 83.3328C19.5413 83.3328 20.0274 84.2551 21.6292 84.1528C21.6292 84.1528 21.6937 88.4573 20.6687 89.6872C19.6438 90.917 19.3364 96.6564 19.3364 96.6564L20.8738 97.4761C20.8738 97.4761 24.9733 97.8862 26.7157 95.4264C30.2515 83.9734 25.4858 61.605 25.4858 61.605C25.4858 61.605 22.1314 62.2149 18.3816 64.9468C17.2229 65.791 16.5356 67.1354 16.544 68.569C16.5661 72.433 16.9396 80.4251 19.5413 83.3328Z" fill="#37A6FF"/>
<path d="M24.3858 80.4626C24.0545 77.6554 23.2492 75.1001 23.2492 75.1001V83.4296L21.6299 84.3303C21.629 85.1485 21.5701 88.6055 20.6687 89.6872C19.6438 90.9171 19.3364 96.6565 19.3364 96.6565L20.8738 97.4763C20.8738 97.4763 21.5141 97.5378 22.3922 97.4644C22.99 93.6835 24.6586 82.7744 24.3858 80.4626Z" fill="#0372CE"/>
<path d="M32.3203 86.2283C32.4604 85.9774 32.6271 85.7397 32.8424 85.5474C33.0507 85.3614 33.2992 85.2291 33.5616 85.1367C33.915 85.0127 34.2848 84.9271 34.6451 84.8251C35.0139 84.7206 35.3835 84.6181 35.7549 84.5223C36.0772 84.4394 36.4068 84.3396 36.7371 84.2953C36.8638 84.2785 36.9909 84.2764 37.1135 84.3133C37.4129 84.3307 37.7124 84.3636 38.0094 84.4003C38.4018 84.449 38.7936 84.5079 39.1808 84.5877C39.502 84.6541 39.8228 84.7324 40.1262 84.8597C40.4287 84.9867 40.6808 85.1671 40.9181 85.3904C41.1084 85.5702 41.3351 85.7108 41.5052 85.9118C41.5697 85.9882 41.6354 86.0852 41.6243 86.1903C41.614 86.2833 41.5391 86.3419 41.4554 86.3711C41.3608 86.404 41.2554 86.4141 41.1495 86.4097C40.6408 86.3216 40.1889 86.0206 39.7312 85.8004C39.5824 85.7286 39.4195 85.6836 39.2597 85.6415C39.0215 85.5788 38.7777 85.5367 38.5324 85.5112C38.3654 85.4938 38.1981 85.4844 38.0308 85.4811C38.0807 85.4984 38.1303 85.5159 38.1795 85.5355C38.4201 85.6304 38.633 85.7771 38.8595 85.8998C39.0821 86.0202 39.2965 86.1331 39.4879 86.3011L39.4928 86.3056C39.6387 86.3925 39.7777 86.4901 39.9055 86.6091C40.1404 86.8271 40.3389 87.0791 40.5209 87.3413C40.5899 87.441 40.6636 87.5373 40.7366 87.6341C40.8653 87.7607 40.9921 87.8889 41.1087 88.0249C41.2288 88.1649 41.3549 88.3387 41.3873 88.524C41.4261 88.7444 41.232 88.8222 41.0441 88.819C40.7353 88.8138 40.5242 88.5977 40.3435 88.3709C40.1104 88.0781 39.8564 87.8127 39.5706 87.5694C39.2809 87.3228 38.9584 87.1446 38.5935 87.0353C38.5805 87.0313 38.567 87.0286 38.5538 87.0248C38.5763 87.0366 38.5989 87.0468 38.6204 87.0604C38.7744 87.1568 38.8763 87.3093 38.9735 87.4592C39.2234 87.8448 39.5158 88.2008 39.7901 88.5697C39.9305 88.7587 40.0744 88.9417 40.2196 89.1261C40.315 89.2472 40.8732 89.9166 40.4575 89.9597C40.3396 89.9721 40.2114 89.9281 40.104 89.8848C39.9556 89.825 39.8206 89.7307 39.7007 89.6254C39.4354 89.3921 39.2259 89.1036 39.0219 88.8175C38.9128 88.6643 38.809 88.4998 38.6796 88.3619C38.5144 88.1859 38.2974 88.0666 38.0744 87.9806C37.7201 87.8438 37.3506 87.7685 36.9763 87.7194C37.1024 87.7708 37.2284 87.822 37.3527 87.877C37.8943 88.1154 38.1909 88.5241 38.5465 88.9718C38.7163 89.1855 38.9437 89.3458 39.1049 89.565C39.2015 89.6964 39.2894 89.9005 39.147 90.0354C39.0427 90.1349 38.8808 90.0885 38.7667 90.0341C38.3852 89.8526 38.1172 89.5168 37.8112 89.2385C37.4577 88.9172 37.0255 88.7077 36.6087 88.4824C36.133 88.2251 35.7235 88.3241 35.2117 88.3758C34.9616 88.4011 34.7104 88.4161 34.4591 88.4221C33.9506 88.4345 33.4327 88.4187 32.9292 88.3403C32.7377 88.3105 32.5431 88.2533 32.388 88.1324C32.2688 88.0395 32.1868 87.9206 32.1331 87.7854C31.889 87.3043 32.0724 86.6716 32.3203 86.2283Z" fill="#FCC2B4"/>
<path d="M40.1585 85.0924C39.596 84.7811 39.0034 84.5896 38.3702 84.4839C37.7287 84.3773 37.0751 84.3391 36.4254 84.3683C36.3947 84.3699 36.3636 84.3721 36.3325 84.3737C36.467 84.342 36.602 84.3135 36.737 84.2953C36.8637 84.2785 36.9908 84.2764 37.1134 84.3133C37.4128 84.3307 37.7123 84.3636 38.0093 84.4002C38.4017 84.449 38.7935 84.5079 39.1807 84.5877C39.5019 84.6541 39.8227 84.7324 40.1261 84.8597C40.4286 84.9867 40.6808 85.1671 40.918 85.3904C41.1083 85.5702 41.335 85.7108 41.5051 85.9118C41.5518 85.9669 41.5979 86.033 41.6162 86.1048C41.1543 85.7343 40.6775 85.3797 40.1585 85.0924Z" fill="#F6DFC9"/>
<path d="M40.7671 87.8528C40.5362 87.5936 40.2791 87.3592 40.019 87.1296C39.7572 86.8989 39.4999 86.6626 39.2219 86.4514C38.9316 86.2309 38.6242 86.0231 38.2947 85.8646C38.0285 85.7366 37.752 85.6295 37.4883 85.4964C37.7053 85.4544 37.9301 85.4746 38.147 85.5238C38.1578 85.5278 38.1686 85.5313 38.1793 85.5355C38.4199 85.6304 38.6328 85.7771 38.8593 85.8998C39.0819 86.0203 39.2963 86.1331 39.4877 86.3011L39.4926 86.3056C39.6385 86.3925 39.7775 86.4901 39.9053 86.6091C40.1402 86.8271 40.3387 87.0792 40.5207 87.3413C40.5897 87.4411 40.6633 87.5373 40.7364 87.6342C40.8651 87.7607 40.9918 87.8889 41.1085 88.025C41.2286 88.1649 41.3547 88.3387 41.3871 88.524C41.404 88.6191 41.3757 88.6861 41.3252 88.7331C41.2057 88.404 40.9992 88.1132 40.7671 87.8528Z" fill="#F4B79F"/>
<path d="M38.7599 87.0948C38.508 86.9193 38.2311 86.776 37.9658 86.6152C38.3418 86.6836 38.7098 86.7912 39.0572 86.9553C39.4405 87.1364 39.7889 87.3817 40.0955 87.6742C40.2402 87.8126 40.382 87.9604 40.504 88.12C40.5947 88.2384 40.6718 88.3665 40.7629 88.4851C40.8579 88.6092 41.002 88.7646 41.1573 88.8096C41.1207 88.8161 41.0822 88.8198 41.044 88.8191C40.7352 88.8139 40.524 88.5978 40.3434 88.3709C40.1103 88.0782 39.8562 87.8128 39.5705 87.5695C39.3259 87.3615 39.0565 87.2051 38.7599 87.0948Z" fill="#F6DFC9"/>
<path d="M32.4951 87.6558C32.6535 87.7532 32.8185 87.8548 32.9923 87.9228C33.3646 88.0683 33.7856 88.1122 34.1815 88.1299C34.5984 88.1489 35.0149 88.1294 35.431 88.113C35.7834 88.0991 36.1333 88.083 36.4831 88.1437C36.8072 88.2 37.1151 88.3208 37.3895 88.503C37.7543 88.7453 38.043 89.0743 38.3392 89.3933C38.4802 89.5453 38.6215 89.7042 38.7807 89.8371C38.8715 89.9126 38.9795 89.9772 39.093 90.0104C39.1133 90.0163 39.1346 90.021 39.1564 90.0239C39.1532 90.0279 39.1511 90.0318 39.1471 90.0353C39.0429 90.1348 38.8809 90.0884 38.7669 90.034C38.3853 89.8525 38.1174 89.5167 37.8114 89.2384C37.4579 88.917 37.0256 88.7076 36.6089 88.4823C36.1331 88.225 35.7236 88.324 35.2119 88.3757C34.9618 88.401 34.7106 88.416 34.4593 88.422C33.9507 88.4344 33.4328 88.4186 32.9293 88.3402C32.7379 88.3104 32.5432 88.2532 32.3882 88.1323C32.269 88.0394 32.187 87.9204 32.1333 87.7853C32.0595 87.6395 32.0251 87.4797 32.0195 87.3154C32.1949 87.4688 32.4021 87.5986 32.4951 87.6558Z" fill="#F6DFC9"/>
<path d="M38.0742 87.98C37.7199 87.8432 37.3504 87.768 36.9761 87.7188C36.9769 87.7192 36.9769 87.7192 36.9776 87.7195C36.8088 87.67 36.6433 87.6151 36.4946 87.5249C36.8802 87.4938 37.2702 87.5112 37.6498 87.5855C38.0458 87.6628 38.4412 87.8013 38.7707 88.038C39.1433 88.3051 39.3827 88.7147 39.6525 89.0762C39.7892 89.2595 39.9346 89.4386 40.1039 89.5933C40.2164 89.6957 40.36 89.7766 40.5122 89.7974C40.5432 89.8017 40.5756 89.803 40.6073 89.8006C40.612 89.885 40.5737 89.9473 40.4573 89.9593C40.3394 89.9717 40.2112 89.9276 40.1038 89.8844C39.9554 89.8246 39.8204 89.7303 39.7005 89.6249C39.4351 89.3917 39.2257 89.1032 39.0217 88.8171C38.9125 88.6639 38.8088 88.4994 38.6794 88.3615C38.5142 88.1854 38.2973 88.066 38.0742 87.98Z" fill="#F6DFC9"/>
<path d="M39.2596 85.6412C39.0213 85.5784 38.7776 85.5364 38.5322 85.5109C38.4323 85.5005 38.3325 85.4937 38.2326 85.4886C38.1607 85.4644 38.0882 85.4412 38.0156 85.419C38.3736 85.382 38.7341 85.3562 39.093 85.3808C39.4816 85.4069 39.8602 85.4994 40.2113 85.6704C40.4007 85.7625 40.5895 85.8717 40.7536 86.0042C40.8919 86.1161 41.0256 86.2376 41.1868 86.3162C41.2603 86.3522 41.3428 86.377 41.4241 86.3793C41.3379 86.4044 41.244 86.4132 41.1494 86.4093C40.6407 86.3211 40.1888 86.0201 39.7311 85.7999C39.5823 85.7283 39.4193 85.6832 39.2596 85.6412Z" fill="#F6DFC9"/>
<path d="M32.7154 87.7048C32.7154 87.7048 21.9845 85.9661 19.7439 84.269C17.5032 82.5721 18.0974 80.0627 19.4763 79.446C20.8559 78.8295 22.75 79.2026 24.3861 80.4628C26.0217 81.723 33.5155 85.6602 33.5155 85.6602L32.7154 87.7048Z" fill="#FCC2B4"/>
<path d="M46.1567 92.8159L34.8404 91.553C34.5588 91.5215 34.4252 91.0787 34.5954 90.7412L41.9151 76.2246C42.0411 75.9747 42.2506 75.8327 42.459 75.856L53.3527 77.0718C53.7749 77.119 53.9753 77.7832 53.7202 78.2894L46.5194 92.5703C46.4353 92.7368 46.2956 92.8314 46.1567 92.8159Z" fill="#DADADA"/>
<path d="M46.5272 92.8575L35.2109 91.5946C34.9295 91.5631 34.7958 91.1204 34.9659 90.7828L42.2857 76.2661C42.4117 76.0162 42.6211 75.8743 42.8296 75.8975L53.7232 77.1132C54.1455 77.1604 54.3459 77.8246 54.0907 78.3307L46.8899 92.6117C46.8058 92.7783 46.6662 92.8729 46.5272 92.8575Z" fill="#ABB0BA"/>
<path d="M39.8713 88.3381C43.7584 88.4746 47.8263 86.97 50.7381 83.8154L46.4886 92.2432L35.4385 91.01L37.1145 87.6863C37.9937 88.0874 38.9343 88.3142 39.8713 88.3381Z" fill="#989DA6"/>
<path d="M48.3924 85.9266C48.1682 85.7395 47.8073 85.864 47.7797 86.1393C47.7574 86.3623 47.7901 86.639 47.9631 86.9389C48.3898 87.6784 48.4287 88.5235 48.2346 88.5235C48.0406 88.5235 47.4975 86.9389 46.838 87.0622C46.1785 87.1854 47.5363 89.0517 47.3423 89.2981C47.1483 89.5446 46.4112 87.9953 46.0621 88.277C45.713 88.5587 46.8768 90.1784 46.7604 90.3896C46.644 90.6009 45.8681 89.7206 45.7906 90.0375C45.713 90.3544 45.9025 90.9882 47.0686 91.6573C47.0686 91.6573 48.7697 92.134 49.687 91.3459C51.5432 89.7511 50.835 87.9645 48.3924 85.9266Z" fill="#FCC2B4"/>
<path d="M31.7705 58.1112C32.2397 57.5397 33.7982 57.7823 34.0566 58.4684C33.4701 58.1681 32.427 58.0052 31.7705 58.1112Z" fill="#FBA896"/>
<path d="M135.255 139.257C135.594 138.772 138.084 134.771 138.084 134.771C138.084 134.771 139.958 134.481 140.171 134.732C140.171 134.732 140.795 135.986 140.637 136.857L140.417 142.873H139.926L139.738 137.851C139.518 139.33 138.865 142.437 138.697 142.873H134.089C133.399 142.873 132.957 142.361 133.279 141.751C133.73 140.896 134.919 139.737 135.255 139.257Z" fill="#2D313D"/>
<path d="M138.142 134.193C137.578 134.812 136.977 136.734 136.605 137.519C136.232 138.304 134.95 139.909 135.025 140.137C135.09 140.333 137.021 140.701 137.368 140.354C137.997 139.725 139.916 136.545 139.916 136.545L140.134 134.382C140.136 133.669 138.706 133.575 138.142 134.193Z" fill="#FCC2B4"/>
<path d="M148.679 134.496C148.679 134.496 149.65 134.471 150.051 135.929C150.452 137.387 151.411 140.519 151.468 140.84C151.524 141.162 150.791 142.885 149.866 143.306C148.654 143.858 146.403 141.524 146.456 140.516C146.535 139.028 146.632 136.619 146.682 135.388C146.733 134.158 148.25 134.384 148.679 134.496Z" fill="#2D313D"/>
<path d="M149.349 135.467C149.349 135.467 149.637 135.499 149.85 136.317C150.063 137.135 150.509 140.054 150.509 140.054C150.509 140.054 148.575 140.638 147.309 140.054C147.309 140.054 146.963 136.664 146.964 135.645C146.965 134.664 149.009 135.081 149.349 135.467Z" fill="#FCC2B4"/>
<path d="M136.611 136.703L140.99 136.864L141.401 116.058L141.408 115.672L141.002 109.924L143.775 96.6074H144.826L145.459 109.851L145.816 114.904L145.898 117.789L146.455 136.048L150.368 135.903C150.368 135.903 152.464 120.321 152.464 116.318C152.464 115.921 152.445 115.627 152.405 115.459L152.349 115.077L151.354 108.306C151.354 108.306 154.25 95.5229 154.105 92.3307C154.045 91.0175 153.548 88.7721 152.984 86.5815C152.177 83.4452 151.232 80.4247 151.232 80.4247L140.04 79.9829C139.563 81.1592 139.081 82.5009 138.628 83.8508C137.289 87.8248 136.194 91.8562 136.194 91.8562C135.992 92.4876 135.141 105.726 134.747 112.003C134.624 113.968 134.545 115.251 134.545 115.251C134.095 117.115 136.611 136.703 136.611 136.703Z" fill="#253A55"/>
<path d="M138.628 83.8507C139.678 83.7921 140.73 83.6772 141.78 83.6263C145.206 83.4575 148.872 83.9978 151.788 85.7131C152.167 85.937 152.568 86.254 152.984 86.5815C152.178 83.4451 151.232 80.4247 151.232 80.4247L140.04 79.9829C139.563 81.1592 139.081 82.5007 138.628 83.8507Z" fill="#1D3249"/>
<path d="M139.211 110.963L142.332 97.8871L143.776 96.6074L141.002 109.924L141.408 115.672L141.401 116.057L140.99 136.864L140.07 136.83L139.211 110.963Z" fill="#1D3249"/>
<path d="M149.306 135.943C151.301 127.042 149.982 110.741 149.982 110.741L151.354 108.306L152.349 115.077L152.405 115.459C152.445 115.627 152.464 115.921 152.464 116.317C152.464 120.321 150.368 135.903 150.368 135.903L149.306 135.943Z" fill="#1D3249"/>
<path d="M142.076 68.3569C140.558 68.2868 139.108 67.6714 137.939 66.6008C137.939 66.6008 137.112 64.1281 138.581 60.9146C139.951 57.9187 138.975 52.1838 139.633 50.2299C139.651 50.1824 139.781 49.6928 139.8 49.6456C139.855 49.508 139.917 49.374 139.982 49.2416C140.094 49.0134 140.042 47.6142 140.175 47.326C142.165 45.9283 143.548 44.5918 146.164 44.387C146.779 44.3389 147.942 43.481 148.199 44.1413C149.607 44.1223 150.936 44.9045 151.748 46.23C153.441 48.9933 152.773 53.4948 154.564 56.1553C155.59 57.6803 157.362 58.4929 157.781 60.4707C158.013 61.5636 157.758 62.8127 157.289 63.8855C156.82 64.9583 156.152 65.8892 155.491 66.8069C155.759 66.0593 155.857 65.2391 155.772 64.4754C155.168 66.093 154.428 67.8809 153.114 68.5589C151.984 69.1423 150.757 68.7117 149.594 69.1195C150.335 68.8978 151.012 68.1736 151.312 67.2798C149.987 68.0374 148.522 68.2972 147.174 68.0138C144.989 68.5249 142.759 68.1708 140.89 67.0168C141.182 67.5853 141.593 68.0489 142.076 68.3569Z" fill="#282633"/>
<path d="M142.734 60.9047C142.641 62.2565 144.745 63.2403 145.871 63.3175C146.997 63.3946 149.032 62.6942 149.124 61.3424C149.217 59.9904 147.77 60.1318 146.005 60.0109C144.241 59.8901 142.826 59.5528 142.734 60.9047Z" fill="#FEB48C"/>
<path d="M145.135 63.6318L146.292 63.6704C147.524 63.7548 148.217 62.1593 148.302 60.9266L148.57 57.0041C148.655 55.7714 147.715 54.6937 146.483 54.6093C145.25 54.5248 144.172 55.4644 144.088 56.6971L143.819 60.6196C143.735 61.8523 143.902 63.5474 145.135 63.6318Z" fill="#FCC2B4"/>
<path d="M148.385 59.717C148.464 58.5644 148.571 57.0041 148.571 57.0041C148.655 55.7714 147.715 54.6937 146.483 54.6093C145.25 54.5248 144.172 55.4644 144.088 56.6971C144.088 56.6971 144.037 57.4446 143.966 58.4815C143.966 58.4815 144.788 59.6104 145.909 59.9062C147.222 60.2523 148.385 59.717 148.385 59.717Z" fill="#FBA896"/>
<path d="M130.646 76.6013C130.921 77.2945 133.938 79.0446 135.139 77.4578C137.19 73.7486 139.424 68.6087 141.456 64.9351C141.879 64.1684 141.051 61.2467 140.909 60.9147C140.721 60.4753 137.57 61.0595 137.041 61.8722C134.285 66.0964 132.426 70.285 131.726 72.1179C131.052 73.8797 130.371 75.9081 130.646 76.6013Z" fill="#37A6FF"/>
<path d="M151.924 78.5686C152.271 80.1465 152.057 82.3303 152.442 83.2714C152.827 84.2125 152.568 84.3199 151.383 84.5748C150.049 84.8619 147.817 85.7385 146.449 85.7807C145.134 85.8213 143.815 85.7826 142.508 85.6421C141.218 85.5033 140.644 85.2596 139.4 84.9085C139.075 84.8167 138.488 84.1575 138.52 83.2714C138.537 82.7999 139.455 79.4347 139.639 78.1828C139.967 75.9456 139.363 73.0991 139.363 73.0991C138.562 72.0756 137.366 70.3672 136.981 69.147C137.311 66.3628 138.957 63.0965 139.146 61.064L143.211 59.71C143.211 59.71 144.311 63.7431 145.794 63.7431C147.276 63.7431 148.925 59.71 148.925 59.71C150.536 60.6534 152.991 61.064 154.602 62.0074C154.79 64.0399 154.582 66.7249 154.582 68.61C154.582 70.495 151.241 75.4621 151.924 78.5686Z" fill="#37A6FF"/>
<path d="M139.885 73.2009C139.967 74.9079 140.639 77.4411 140.142 79.148C139.727 80.5445 141.746 80.8311 142.343 81.648C141.597 81.4152 140.63 80.6823 139.885 80.915C138.976 81.1873 138.691 83.6429 139.354 84.4964C140.846 86.4361 146.648 85.4301 149.002 84.8609C150.592 84.4765 151.84 84.0626 151.722 82.7279C151.591 81.2562 150.713 77.3806 147.895 76.6048C152.619 75.9065 152.453 71.0185 153.447 67.5271C153.647 66.7188 154.165 66.0601 154.662 65.3911C154.633 66.5425 154.582 67.6745 154.582 68.6097C154.582 70.4948 151.241 75.4618 151.924 78.5684C152.271 80.1463 152.057 82.3301 152.442 83.2711C152.827 84.2123 152.568 84.3197 151.383 84.5746C150.049 84.8616 147.817 85.7383 146.449 85.7805C145.134 85.8211 143.815 85.7823 142.508 85.6419C141.218 85.5031 140.644 85.2594 139.4 84.9083C139.075 84.8165 138.488 84.1572 138.52 83.2711C138.537 82.7996 139.455 79.4345 139.639 78.1826C139.967 75.9454 139.363 73.0988 139.363 73.0988C138.562 72.0754 137.366 70.367 136.981 69.1467C137.076 68.3454 137.28 67.5043 137.527 66.664C137.774 69.1657 137.665 71.5157 139.885 73.2009Z" fill="#0372CE"/>
<path d="M145.759 66.5346C145.759 66.6145 145.829 66.6795 145.914 66.6795C146 66.6795 146.069 66.6146 146.069 66.5346C146.069 66.4543 146 66.3896 145.914 66.3896C145.829 66.3896 145.759 66.4543 145.759 66.5346Z" fill="white"/>
<path d="M145.125 70.5463C145.125 70.6265 145.194 70.6913 145.279 70.6913C145.365 70.6913 145.434 70.6263 145.434 70.5463C145.434 70.4662 145.365 70.4014 145.279 70.4014C145.194 70.4014 145.125 70.4662 145.125 70.5463Z" fill="white"/>
<path d="M144.891 74.3007C144.891 74.3809 144.96 74.4459 145.046 74.4459C145.132 74.4459 145.201 74.3809 145.201 74.3007C145.201 74.2207 145.132 74.1558 145.046 74.1558C144.96 74.1559 144.891 74.2208 144.891 74.3007Z" fill="white"/>
<path d="M144.762 78.5805C144.762 78.6606 144.831 78.7254 144.917 78.7254C145.002 78.7254 145.071 78.6606 145.071 78.5805C145.071 78.5004 145.002 78.4355 144.917 78.4355C144.831 78.4354 144.762 78.5004 144.762 78.5805Z" fill="white"/>
<path d="M144.177 83.8384C144.177 83.9184 144.247 83.9834 144.332 83.9834C144.418 83.9834 144.487 83.9184 144.487 83.8384C144.487 83.7584 144.418 83.6934 144.332 83.6934C144.247 83.6934 144.177 83.7584 144.177 83.8384Z" fill="white"/>
<path d="M145.714 63.9938C145.648 64.4142 145.582 64.8344 145.516 65.2546C145.374 66.1496 145.232 67.0444 145.089 67.939C144.955 68.7737 144.821 69.6086 144.68 70.4426C144.642 70.6665 144.606 70.8909 144.561 71.1137C144.52 71.3196 144.514 71.5292 144.508 71.7383C144.484 72.6329 144.51 73.5294 144.528 74.424C144.546 75.3642 144.572 76.3046 144.572 77.2448C144.572 77.4995 144.578 77.758 144.551 78.0116C144.529 78.2082 144.502 78.4044 144.478 78.6008C144.38 79.3987 144.284 80.1967 144.187 80.9948C144.073 81.9303 143.96 82.8657 143.846 83.8012C143.777 84.3731 143.708 84.9448 143.639 85.5167C143.635 85.5443 143.632 85.5719 143.629 85.5995C143.615 85.7117 143.803 85.7108 143.816 85.5995C143.866 85.191 143.915 84.7824 143.965 84.3736C144.072 83.4879 144.179 82.6023 144.287 81.7167C144.394 80.8358 144.501 79.955 144.608 79.0742C144.663 78.6204 144.743 78.1631 144.755 77.7059C144.777 76.8722 144.747 76.0363 144.731 75.2027C144.711 74.2304 144.686 73.2578 144.689 72.2854C144.689 71.9745 144.688 71.6617 144.714 71.3517C144.727 71.2075 144.765 71.0444 144.794 70.8783C144.924 70.1402 145.042 69.4001 145.161 68.6604C145.31 67.7353 145.458 66.8099 145.604 65.8843C145.697 65.2983 145.79 64.7125 145.882 64.1265C145.886 64.0977 145.891 64.0691 145.895 64.0403C145.913 63.9299 145.732 63.8822 145.714 63.9938Z" fill="white"/>
<path d="M143.765 59.4492C143.765 59.4492 144.321 63.119 145.59 63.718C145.59 63.718 143.995 63.7225 143.899 63.8124C143.753 63.9485 142.606 65.4641 142.606 65.4641C142.606 65.4641 142.335 60.8438 142.335 60.4082C142.335 60.0797 143.045 59.6304 143.765 59.4492Z" fill="#ECF4F8"/>
<path d="M148.475 59.5288C148.475 59.5288 146.81 63.5313 145.445 63.7188C145.445 63.7188 147.208 63.8249 147.414 64.1027C147.657 64.4302 148.362 65.7907 148.362 65.7907C148.362 65.7907 150.131 60.685 150.131 60.2816C150.131 59.8781 148.475 59.5288 148.475 59.5288Z" fill="#ECF4F8"/>
<path d="M158.884 78.8306C158.413 79.5309 156.307 80.7408 154.757 79.7158C153.474 75.553 151.734 69.5968 150.464 65.4742C150.199 64.6138 151.324 61.8331 151.536 61.5069C151.816 61.0752 155.247 61.9557 155.528 62.9056C157.041 68.0252 158.618 72.7201 159.545 77.1955C159.545 77.1955 159.355 78.1304 158.884 78.8306Z" fill="#37A6FF"/>
<path d="M140.691 53.1157C140.691 53.1157 138.896 51.1184 139.814 49.1414C139.814 49.1414 140.698 48.7245 140.692 49.6986C140.686 50.6726 140.691 53.1157 140.691 53.1157Z" fill="#282633"/>
<path d="M145.494 45.1908C142.783 45.2815 139.873 46.2062 140.201 50.3284C140.201 50.3284 140.923 54.5448 141.148 55.4627C141.372 56.3807 143.635 59.5889 145.744 59.5182C148.007 59.4424 150.533 56.074 150.69 55.1432C150.847 54.2124 151.219 50.0991 151.219 50.0991C151.26 45.9638 148.204 45.1 145.494 45.1908Z" fill="#FCC2B4"/>
<path d="M143.696 53.3577C143.485 53.6086 143.304 53.8687 143.092 54.0117C143.02 54.0601 143.007 54.1675 143.06 54.2533C143.281 54.6075 143.848 54.9147 144.194 55.0769C144.244 55.1006 144.276 55.0354 144.233 54.9971C143.868 54.6738 143.701 54.4399 143.628 54.3122C143.592 54.2489 143.585 54.1757 143.608 54.1144C143.661 53.9743 143.767 53.6881 143.833 53.4504C143.856 53.3683 143.749 53.2958 143.696 53.3577Z" fill="#FB9988"/>
<path d="M145.229 51.6129C145.201 51.5756 145.303 51.4342 145.542 51.2953C145.774 51.1566 146.161 51.0368 146.582 51.0729C147.018 51.1102 147.368 51.2935 147.577 51.4702C147.683 51.5586 147.755 51.6419 147.797 51.709C147.837 51.7743 147.848 51.8186 147.831 51.8367C147.815 51.8554 147.769 51.843 147.703 51.8123C147.639 51.7812 147.55 51.7375 147.439 51.6837C147.223 51.5789 146.907 51.4621 146.559 51.4321C146.196 51.401 145.876 51.4631 145.641 51.5293C145.408 51.5942 145.259 51.6555 145.229 51.6129Z" fill="#342D2B"/>
<path d="M143.193 51.5439C143.158 51.5809 143.029 51.4951 142.821 51.3909C142.613 51.2857 142.324 51.1697 141.979 51.1381C141.65 51.1081 141.335 51.169 141.116 51.2352C141.005 51.2693 140.914 51.2971 140.849 51.3167C140.782 51.3357 140.738 51.3401 140.725 51.3188C140.713 51.2981 140.73 51.2562 140.778 51.199C140.828 51.1401 140.909 51.0704 141.022 51.0014C141.246 50.8632 141.602 50.7425 142.016 50.7805C142.415 50.8169 142.757 51.0012 142.952 51.1776C143.152 51.3552 143.225 51.5119 143.193 51.5439Z" fill="#342D2B"/>
<path d="M145.718 53.2291C145.706 53.5694 145.896 53.8522 146.142 53.861C146.388 53.8697 146.598 53.6011 146.61 53.2609C146.622 52.9208 146.432 52.6379 146.186 52.6291C145.94 52.6203 145.73 52.889 145.718 53.2291Z" fill="#342D2B"/>
<path d="M141.473 52.6804C141.462 52.9865 141.631 53.241 141.85 53.2488C142.07 53.2566 142.256 53.0149 142.267 52.7087C142.278 52.4027 142.109 52.1482 141.89 52.1403C141.671 52.1325 141.484 52.3743 141.473 52.6804Z" fill="#342D2B"/>
<path d="M140.76 46.1657C140.258 46.8711 139.996 47.7465 139.876 48.6065C139.772 49.3496 139.757 50.1012 139.716 50.8504C141.6 50.2259 143.112 49.2611 144.384 47.7764C144.805 49.3342 146.063 50.5532 147.361 51.5903C148.72 52.677 150.308 52.5742 151.924 53.2655C152.196 52.0431 152.44 51.671 152.486 50.4229C152.542 48.8863 152.292 47.3057 151.511 45.967C150.73 44.6283 149.367 43.5616 147.797 43.3494C146.354 43.1544 144.781 43.7871 144.03 44.9775C143.165 44.6637 142.08 44.9062 141.361 45.5104C141.13 45.7041 140.931 45.925 140.76 46.1657Z" fill="#282633"/>
<path d="M144.357 46.9312C144.855 50.0316 148.87 52.6235 148.87 52.6235C148.344 52.312 147.838 51.9718 147.361 51.5903C146.063 50.5531 144.805 49.3342 144.384 47.7764C143.112 49.2611 141.6 50.2258 139.716 50.8503C139.721 50.7592 139.726 50.6678 139.73 50.5767C141.96 49.8146 143.375 49.0014 144.357 46.9312Z" fill="#312F3D"/>
<path d="M147.294 43.3149C147.462 43.3158 147.63 43.3267 147.797 43.3492C149.367 43.5615 150.731 44.6282 151.511 45.9669C152.292 47.3055 152.542 48.8862 152.486 50.4228C152.44 51.6709 152.203 52.902 151.931 54.1243C151.931 54.1243 151.919 50.9423 151.819 49.3751C151.586 46.752 150.048 43.9301 147.294 43.3149Z" fill="#312F3D"/>
<path d="M140.76 46.1658C140.931 45.925 141.13 45.7042 141.361 45.5103C142.08 44.906 143.165 44.6635 144.03 44.9774C144.357 44.4592 144.84 44.0468 145.4 43.7622C144.67 44.3531 144.265 44.8111 144.16 45.7086C142.791 44.6099 141.427 45.5836 140.739 46.1962C140.746 46.1862 140.753 46.1758 140.76 46.1658Z" fill="#312F3D"/>
<path d="M145.608 45.084C145.902 47.8313 146.963 49.955 149.543 51.3069C146.889 49.6845 146.049 47.4076 145.608 45.084Z" fill="#312F3D"/>
<path d="M151.168 50.4248C149.733 50.0479 148.433 49.1465 147.583 47.9014C148.223 49.2206 149.623 50.2266 151.168 50.4248Z" fill="#312F3D"/>
<path d="M150.041 55.635C150.811 55.5866 151.377 55.1513 151.681 54.7847C151.75 54.702 151.805 54.6227 151.847 54.5524C152.072 54.1689 152.153 52.8292 151.591 52.5102C151.197 52.2869 150.905 52.5992 150.765 52.8068C150.765 52.8071 150.765 52.8077 150.765 52.8077C150.705 52.8958 150.673 52.9649 150.673 52.9649L150.041 55.635Z" fill="#FFDABA"/>
<path d="M149.952 55.672C150.722 55.6235 151.376 55.1513 151.681 54.7845C151.707 54.7472 151.731 54.7114 151.75 54.6775C151.975 54.2937 152.056 52.9543 151.495 52.6354C151.176 52.4542 150.923 52.6248 150.764 52.8065C150.764 52.8069 150.764 52.8074 150.764 52.8074C150.705 52.8955 150.673 52.9646 150.673 52.9646L149.952 55.672Z" fill="#FCC2B4"/>
<path d="M151.755 53.5769C151.782 53.6845 151.762 53.7958 151.724 53.9014C151.564 54.3492 151.096 54.6861 150.648 54.9991C150.785 54.7827 150.838 54.537 150.813 54.2968C150.805 54.2132 150.788 54.1297 150.788 54.046C150.789 53.7088 151.596 52.9409 151.755 53.5769Z" fill="#FBA896"/>
<path d="M150.424 55.1241C150.424 55.1241 150.433 55.1194 150.45 55.1106C150.466 55.1012 150.492 55.0893 150.522 55.0702C150.582 55.0325 150.664 54.9718 150.743 54.8815C150.821 54.7913 150.893 54.6703 150.928 54.5265C150.96 54.3833 150.955 54.2158 150.878 54.0534C150.87 54.0327 150.858 54.0132 150.847 53.9937L150.838 53.9794C150.836 53.9757 150.837 53.978 150.837 53.9775L150.837 53.978L150.837 53.9777C150.837 53.9777 150.836 53.9786 150.838 53.9755L150.845 53.9627L150.861 53.9372C150.871 53.9205 150.881 53.9039 150.892 53.8875C150.935 53.8222 150.981 53.761 151.028 53.704C151.076 53.6473 151.125 53.5949 151.173 53.5471C151.222 53.4997 151.268 53.4551 151.315 53.4224C151.361 53.3893 151.412 53.3682 151.459 53.3626C151.506 53.3583 151.551 53.3693 151.581 53.384C151.611 53.3991 151.628 53.4184 151.635 53.4325C151.642 53.4468 151.641 53.4553 151.642 53.455C151.642 53.455 151.644 53.447 151.641 53.4313C151.638 53.4157 151.626 53.3916 151.596 53.3695C151.566 53.3477 151.519 53.3272 151.457 53.3248C151.394 53.3235 151.327 53.343 151.266 53.3751C151.205 53.4074 151.15 53.4482 151.092 53.4928C151.034 53.538 150.976 53.5888 150.919 53.6455C150.863 53.7024 150.808 53.7651 150.759 53.8331C150.747 53.8502 150.735 53.8675 150.723 53.885L150.705 53.9118L150.682 53.9496L150.666 53.9762C150.67 53.985 150.676 53.9939 150.681 54.003L150.703 54.0416C150.713 54.0582 150.723 54.0752 150.73 54.0932C150.798 54.2339 150.811 54.3807 150.796 54.5121C150.778 54.6433 150.731 54.7597 150.675 54.8515C150.617 54.9438 150.553 55.0118 150.504 55.0568C150.48 55.0794 150.458 55.0949 150.445 55.1065C150.432 55.118 150.424 55.1241 150.424 55.1241Z" fill="#FD7D6F"/>
<path d="M143.497 56.7194C143.467 56.6966 143.511 56.5721 143.651 56.4162C143.72 56.338 143.815 56.2567 143.93 56.1802C144.046 56.1059 144.184 56.0376 144.336 55.9883C144.489 55.9407 144.641 55.9173 144.779 55.9108C144.917 55.9071 145.042 55.9186 145.143 55.9427C145.353 55.991 145.451 56.0654 145.444 56.102C145.436 56.1439 145.303 56.1388 145.124 56.1482C145.031 56.1514 144.922 56.1617 144.803 56.1784C144.685 56.198 144.556 56.2255 144.425 56.2663C144.293 56.3088 144.172 56.3605 144.064 56.413C143.958 56.4676 143.863 56.522 143.785 56.5727C143.629 56.6727 143.531 56.7461 143.497 56.7194Z" fill="#FB9988"/>
<path d="M133.655 78.1015C137.389 74.0442 139.825 71.6571 140.685 69.6521C141.054 68.7914 139.453 68.0126 138.773 68.65C138.773 68.65 133.916 71.4563 130.765 75.0135C130.787 75.3882 133.208 78.0757 133.655 78.1015Z" fill="#F7BCB0"/>
<path d="M130.765 75.0136C131.545 74.2384 132.967 74.5623 133.686 75.3436C134.405 76.1278 134.354 77.3892 133.574 78.1632C132.793 78.9379 131.578 78.9329 130.86 78.1493C130.142 77.3679 129.985 75.7886 130.765 75.0136Z" fill="#F7BCB0"/>
<path d="M141.01 64.9306C139.919 65.2339 139.713 66.7758 138.183 69.2803C138.089 69.4343 137.992 69.6004 137.891 69.7765C137.782 69.9679 137.839 70.2081 138.025 70.3307C138.459 70.6177 138.894 70.9079 139.339 71.1755C139.592 71.3274 139.924 71.1939 139.994 70.9128C140.126 70.3797 140.338 69.9796 140.666 69.792C141.872 69.1026 142.622 68.2862 142.946 67.8845C143.059 67.7445 143.247 67.6912 143.422 67.7438C143.717 67.8328 144.172 67.908 144.457 67.6572C144.908 67.2609 144.688 66.1718 144.761 65.7837C144.833 65.3956 142.101 64.6273 141.01 64.9306Z" fill="#F7BCB0"/>
<path d="M146.712 71.8395C146.7 71.659 146.663 71.4274 146.609 71.1724C149.137 72.101 154.765 74.2089 157.733 75.6307C158.943 76.3854 160.61 78.5966 159.608 79.5871C158.605 80.5776 156.97 80.7094 156.508 80.4256C154.749 79.3451 147.521 74.7939 145.106 73.2724C145.976 73.1449 146.752 72.4483 146.712 71.8395Z" fill="#FCC2B4"/>
<path d="M142.949 72.2376C143.653 72.1023 144.36 71.9409 145.051 71.7577C145.301 71.6915 145.459 71.4756 145.427 71.2448C145.08 68.7833 144.474 65.8685 143.976 63.8696C143.908 63.5955 143.609 63.4074 143.297 63.4415C142.44 63.5347 141.581 63.6636 140.743 63.8249C139.904 63.986 139.063 64.1839 138.242 64.4132C137.943 64.4968 137.767 64.776 137.843 65.0487C138.39 67.0383 139.298 69.8951 140.214 72.2467C140.3 72.4674 140.551 72.6047 140.81 72.573C141.526 72.4858 142.246 72.3728 142.949 72.2376Z" fill="#565457"/>
<path d="M140.8 72.5135C142.235 72.3382 143.646 72.0672 145.031 71.6999C145.249 71.6422 145.388 71.4539 145.36 71.2511C145.043 69 144.448 66.0401 143.91 63.8815C143.849 63.6357 143.585 63.4708 143.307 63.5012C141.59 63.688 139.909 64.0111 138.264 64.4706C137.997 64.5453 137.841 64.7908 137.908 65.0353C138.5 67.1837 139.44 70.0771 140.278 72.228C140.354 72.4219 140.574 72.541 140.8 72.5135Z" fill="#3B373C"/>
<path d="M142.614 70.8013C143.792 69.615 144.313 68.1869 144.554 66.7227C144.863 68.2129 145.144 69.7205 145.359 71.2511C145.388 71.4539 145.249 71.6422 145.03 71.7C143.645 72.0672 142.235 72.3383 140.799 72.5135C140.573 72.5411 140.353 72.4219 140.278 72.2281C140.23 72.1057 140.184 71.9832 140.137 71.8608C141.045 71.7662 141.902 71.4571 142.614 70.8013Z" fill="#2B282D"/>
<path d="M144.397 73.2407C143.372 72.9712 142.445 72.7323 142.445 72.7323C142.065 72.54 141.64 72.2808 141.614 71.8947C141.6 71.6779 141.72 71.4767 141.838 71.2885C142.215 70.6833 143.39 70.3832 143.917 69.6227C144.287 69.0888 145.212 68.0785 145.443 68.3363C146.093 69.0618 146.655 70.988 146.712 71.8394C146.763 72.6124 145.499 73.5307 144.397 73.2407Z" fill="#FCC2B4"/>
<path d="M144.662 68.5424C144.883 67.9852 144.566 67.4036 144.373 66.3622C144.245 65.6684 145.104 65.0878 145.306 65.6524C145.487 66.1571 145.978 67.6944 146.062 67.9609C146.146 68.2273 146.1 69.5109 145.97 69.8113C145.84 70.1115 144.262 69.5508 144.662 68.5424Z" fill="#FCC2B4"/>
<path d="M143.652 70.0697C142.904 69.3868 142.445 69.3552 141.882 68.5172C141.404 67.8044 140.182 66.1715 139.697 65.4404C139.364 64.9387 140.511 65.129 140.843 65.6297C141.339 66.3782 141.928 66.9706 142.635 67.8231C143.209 68.5155 144.152 68.8432 144.818 69.4512C145.266 69.8604 144.101 70.48 143.652 70.0697Z" fill="#FCC2B4"/>
<path d="M143.254 70.9041C142.286 70.4994 141.848 70.6158 140.991 70.0063C140.261 69.4877 139.375 68.8528 138.633 68.3191C138.123 67.953 139.263 67.7673 139.771 68.1329C140.531 68.6793 140.414 68.5364 141.411 69.1137C142.221 69.5823 143.226 69.5908 144.087 69.9512C144.666 70.1936 143.834 71.1471 143.254 70.9041Z" fill="#FCC2B4"/>
<path d="M142.649 71.9925C141.682 71.5878 140.881 71.3877 140.487 71.1637C140.305 71.06 139.643 70.5115 139.498 70.3098C139.353 70.1081 138.991 69.6568 138.991 69.6568C138.921 69.4239 139.241 69.1871 139.459 69.3319C139.713 69.5009 140.407 70.1073 140.979 70.4359C140.979 70.4359 142.471 70.7278 143.483 71.0396C144.086 71.2254 143.23 72.2356 142.649 71.9925Z" fill="#FCC2B4"/>
<path d="M142.126 72.2764C141.71 72.4028 141.3 72.6477 140.817 72.3702C140.293 72.0693 139.788 71.6301 139.338 71.1702C138.916 70.7401 139.242 70.4011 139.708 70.7459C140.154 71.0762 141.044 71.6012 141.24 71.5481C141.42 71.4991 141.952 71.375 142.13 71.3209C142.579 71.1846 142.576 72.1399 142.126 72.2764Z" fill="#FCC2B4"/>
<path d="M57.9402 1.03668L46.3205 20.0791C45.3699 21.6371 46.3874 23.7308 48.093 23.7263L71.345 23.6645C73.0478 23.66 74.0568 21.5669 73.1049 20.0135L61.4726 1.03276C60.6278 -0.345938 58.7825 -0.343871 57.9402 1.03668Z" fill="#FFBF43"/>
<path d="M58.7611 0.244141C58.4437 0.416709 58.158 0.679639 57.9402 1.03674L46.3205 20.0792C45.3699 21.6372 46.3874 23.7308 48.093 23.7263L52.794 23.7138C56.9864 23.1132 63.1241 21.8211 65.5364 19.23C69.2397 15.2525 63.4967 3.15964 58.7611 0.244141Z" fill="#FFCE76"/>
<path d="M59.6291 18.0942C59.2565 18.0942 58.9381 18.2267 58.6739 18.4911C58.4096 18.7556 58.2773 19.0775 58.2773 19.4568C58.2773 19.8294 58.4096 20.1481 58.6739 20.4119C58.9381 20.6762 59.2565 20.8087 59.6291 20.8087C60.0013 20.8087 60.3195 20.6762 60.5838 20.4119C60.8483 20.1481 60.9804 19.8294 60.9804 19.4568C60.9804 19.0775 60.8483 18.7556 60.5838 18.4911C60.3195 18.2267 60.0013 18.0942 59.6291 18.0942Z" fill="#41416D"/>
<path d="M60.8913 7.76315C60.6064 7.53621 60.2225 7.42334 59.7401 7.42334C59.2313 7.42334 58.8323 7.53991 58.5429 7.77272C58.2532 8.00542 58.1084 8.32946 58.1084 8.74473C58.1084 9.05931 58.161 9.50634 58.2665 10.0852L59.5034 17.1361H59.7401L61.1611 9.89628C61.2665 9.37444 61.3191 8.9745 61.3191 8.69732C61.3192 8.30097 61.1763 7.98954 60.8913 7.76315Z" fill="#41416D"/>
<defs>
<linearGradient id="paint0_linear_469_56305" x1="54.5529" y1="29.4216" x2="51.6785" y2="25.6987" gradientUnits="userSpaceOnUse">
<stop stop-color="#A8F17E"/>
<stop offset="0.2016" stop-color="#A2EE7E"/>
<stop offset="0.4769" stop-color="#90E67C"/>
<stop offset="0.7934" stop-color="#74D87B"/>
<stop offset="1" stop-color="#5DCD79"/>
</linearGradient>
<linearGradient id="paint1_linear_469_56305" x1="48.9857" y1="27.6288" x2="46.0977" y2="23.8883" gradientUnits="userSpaceOnUse">
<stop stop-color="#A8F17E"/>
<stop offset="0.2016" stop-color="#A2EE7E"/>
<stop offset="0.4769" stop-color="#90E67C"/>
<stop offset="0.7934" stop-color="#74D87B"/>
<stop offset="1" stop-color="#5DCD79"/>
</linearGradient>
<linearGradient id="paint2_linear_469_56305" x1="52.0251" y1="25.1222" x2="49.7635" y2="22.193" gradientUnits="userSpaceOnUse">
<stop stop-color="#A8F17E"/>
<stop offset="0.2016" stop-color="#A2EE7E"/>
<stop offset="0.4769" stop-color="#90E67C"/>
<stop offset="0.7934" stop-color="#74D87B"/>
<stop offset="1" stop-color="#5DCD79"/>
</linearGradient>
<linearGradient id="paint3_linear_469_56305" x1="44.7289" y1="18.9742" x2="42.0391" y2="15.4903" gradientUnits="userSpaceOnUse">
<stop stop-color="#A8F17E"/>
<stop offset="0.2016" stop-color="#A2EE7E"/>
<stop offset="0.4769" stop-color="#90E67C"/>
<stop offset="0.7934" stop-color="#74D87B"/>
<stop offset="1" stop-color="#5DCD79"/>
</linearGradient>
<linearGradient id="paint4_linear_469_56305" x1="47.6022" y1="16.8507" x2="45.3406" y2="13.9215" gradientUnits="userSpaceOnUse">
<stop stop-color="#A8F17E"/>
<stop offset="0.2016" stop-color="#A2EE7E"/>
<stop offset="0.4769" stop-color="#90E67C"/>
<stop offset="0.7934" stop-color="#74D87B"/>
<stop offset="1" stop-color="#5DCD79"/>
</linearGradient>
<linearGradient id="paint5_linear_469_56305" x1="45.6918" y1="14.3947" x2="42.4717" y2="10.2239" gradientUnits="userSpaceOnUse">
<stop stop-color="#A8F17E"/>
<stop offset="0.2016" stop-color="#A2EE7E"/>
<stop offset="0.4769" stop-color="#90E67C"/>
<stop offset="0.7934" stop-color="#74D87B"/>
<stop offset="1" stop-color="#5DCD79"/>
</linearGradient>
<linearGradient id="paint6_linear_469_56305" x1="51.6856" y1="31.7666" x2="48.9202" y2="28.1848" gradientUnits="userSpaceOnUse">
<stop stop-color="#A8F17E"/>
<stop offset="0.2016" stop-color="#A2EE7E"/>
<stop offset="0.4769" stop-color="#90E67C"/>
<stop offset="0.7934" stop-color="#74D87B"/>
<stop offset="1" stop-color="#5DCD79"/>
</linearGradient>
<linearGradient id="paint7_linear_469_56305" x1="49.7061" y1="21.3154" x2="47.291" y2="18.1874" gradientUnits="userSpaceOnUse">
<stop stop-color="#A8F17E"/>
<stop offset="0.2016" stop-color="#A2EE7E"/>
<stop offset="0.4769" stop-color="#90E67C"/>
<stop offset="0.7934" stop-color="#74D87B"/>
<stop offset="1" stop-color="#5DCD79"/>
</linearGradient>
<linearGradient id="paint8_linear_469_56305" x1="46.8456" y1="23.5656" x2="43.7276" y2="19.5271" gradientUnits="userSpaceOnUse">
<stop stop-color="#A8F17E"/>
<stop offset="0.2016" stop-color="#A2EE7E"/>
<stop offset="0.4769" stop-color="#90E67C"/>
<stop offset="0.7934" stop-color="#74D87B"/>
<stop offset="1" stop-color="#5DCD79"/>
</linearGradient>
<linearGradient id="paint9_linear_469_56305" x1="57.367" y1="33.7967" x2="43.1734" y2="15.413" gradientUnits="userSpaceOnUse">
<stop stop-color="#A8F17E"/>
<stop offset="0.2016" stop-color="#A2EE7E"/>
<stop offset="0.4769" stop-color="#90E67C"/>
<stop offset="0.7934" stop-color="#74D87B"/>
<stop offset="1" stop-color="#5DCD79"/>
</linearGradient>
<radialGradient id="paint10_radial_469_56305" cx="0" cy="0" r="1" gradientUnits="userSpaceOnUse" gradientTransform="translate(20.5173 138.301) rotate(180) scale(3.29678 3.2182)">
<stop stop-color="#FFC8AF"/>
<stop offset="1" stop-color="#FFBB9C"/>
</radialGradient>
<radialGradient id="paint11_radial_469_56305" cx="0" cy="0" r="1" gradientUnits="userSpaceOnUse" gradientTransform="translate(37.9936 137.904) rotate(180) scale(3.45935 3.37691)">
<stop stop-color="#FFC8AF"/>
<stop offset="1" stop-color="#FFBB9C"/>
</radialGradient>
</defs>
</svg>
