<svg width="204" height="149" viewBox="0 0 204 149" fill="none" xmlns="http://www.w3.org/2000/svg">
<path d="M187.013 61.9925C186.523 61.7989 185.281 60.1147 185.281 60.1147C185.281 60.1147 185.886 62.162 185.704 62.6291C185.481 63.1989 183.657 64.2625 183.657 64.2625C183.657 64.2625 185.599 63.8571 186.066 64.0413C186.631 64.2646 187.787 65.8929 187.787 65.8929C187.787 65.8929 187.347 64.0353 187.569 63.4673C187.753 62.9984 189.41 61.7452 189.41 61.7452C189.41 61.7452 187.555 62.2066 187.013 61.9925Z" fill="white"/>
<path d="M38.8608 24.4781C38.3705 24.2845 37.1283 22.6003 37.1283 22.6003C37.1283 22.6003 37.7341 24.6476 37.5513 25.1146C37.3283 25.6845 35.5049 26.7481 35.5049 26.7481C35.5049 26.7481 37.4467 26.3426 37.9135 26.5269C38.4791 26.7502 39.6347 28.3785 39.6347 28.3785C39.6347 28.3785 39.1947 26.5209 39.417 25.9528C39.6005 25.4839 41.2581 24.2308 41.2581 24.2308C41.2581 24.2308 39.4029 24.6922 38.8608 24.4781Z" fill="white"/>
<path d="M167.038 74.2147C166.548 74.0211 165.306 72.3369 165.306 72.3369C165.306 72.3369 165.912 74.3841 165.729 74.8513C165.506 75.4211 163.683 76.4847 163.683 76.4847C163.683 76.4847 165.624 76.0791 166.091 76.2635C166.657 76.4868 167.812 78.1151 167.812 78.1151C167.812 78.1151 167.372 76.2575 167.595 75.6894C167.778 75.2205 169.436 73.9674 169.436 73.9674C169.436 73.9674 167.581 74.4288 167.038 74.2147Z" fill="white"/>
<path d="M28.0175 54.4813C27.5272 54.2877 26.285 52.6035 26.285 52.6035C26.285 52.6035 26.8909 54.6507 26.708 55.1179C26.485 55.6877 24.6616 56.7513 24.6616 56.7513C24.6616 56.7513 26.6034 56.3457 27.0703 56.5301C27.6359 56.7534 28.7914 58.3817 28.7914 58.3817C28.7914 58.3817 28.3514 56.5241 28.5738 55.956C28.7572 55.4871 30.4148 54.234 30.4148 54.234C30.4148 54.234 28.5597 54.6953 28.0175 54.4813Z" fill="white"/>
<path d="M162.375 50.1476C162.375 50.1476 160.037 51.3029 159.437 51.177C158.706 51.0234 157.053 49.0295 157.053 49.0295C157.053 49.0295 157.939 51.3021 157.813 51.9063C157.661 52.6384 155.939 54.3746 155.939 54.3746C155.939 54.3746 158.083 53.4594 158.812 53.6126C159.414 53.7389 161.261 55.4926 161.261 55.4926C161.261 55.4926 160.326 53.3366 160.472 52.6349C160.604 52.0004 162.375 50.1476 162.375 50.1476Z" fill="white"/>
<path d="M131.842 1.11809C131.842 1.11809 130.577 1.7431 130.253 1.67497C129.858 1.59185 128.963 0.513184 128.963 0.513184C128.963 0.513184 129.442 1.74268 129.374 2.06953C129.292 2.46554 128.361 3.40488 128.361 3.40488C128.361 3.40488 129.521 2.90974 129.915 2.99261C130.241 3.06099 131.24 4.0097 131.24 4.0097C131.24 4.0097 130.734 2.84332 130.813 2.46366C130.884 2.12054 131.842 1.11809 131.842 1.11809Z" fill="white"/>
<path d="M100.247 2.75048C100.247 2.75048 99.224 3.25592 98.9618 3.20082C98.6419 3.13362 97.9186 2.26147 97.9186 2.26147C97.9186 2.26147 98.3064 3.25558 98.2513 3.51992C98.1846 3.84013 97.4316 4.5997 97.4316 4.5997C97.4316 4.5997 98.3695 4.19935 98.6884 4.26637C98.9516 4.32164 99.7597 5.08879 99.7597 5.08879C99.7597 5.08879 99.3504 4.1457 99.4143 3.83868C99.4721 3.56105 100.247 2.75048 100.247 2.75048Z" fill="white"/>
<path d="M125.428 13.501C125.428 13.501 123.407 14.4993 122.89 14.3904C122.258 14.2577 120.829 12.5349 120.829 12.5349C120.829 12.5349 121.595 14.4986 121.486 15.0207C121.354 15.6533 119.867 17.1535 119.867 17.1535C119.867 17.1535 121.72 16.3627 122.35 16.4951C122.869 16.6042 124.466 18.1195 124.466 18.1195C124.466 18.1195 123.657 16.2566 123.784 15.6502C123.898 15.1021 125.428 13.501 125.428 13.501Z" fill="white"/>
<path d="M155.115 20.7741C155.115 20.7741 153.094 21.7724 152.577 21.6636C151.945 21.5309 150.516 19.8081 150.516 19.8081C150.516 19.8081 151.282 21.7718 151.173 22.2939C151.041 22.9265 149.554 24.4267 149.554 24.4267C149.554 24.4267 151.407 23.6359 152.036 23.7682C152.556 23.8774 154.153 25.3927 154.153 25.3927C154.153 25.3927 153.344 23.5298 153.47 22.9234C153.585 22.3752 155.115 20.7741 155.115 20.7741Z" fill="white"/>
<path d="M174.409 34.8083C174.409 34.8083 173.157 35.4269 172.836 35.3595C172.445 35.2772 171.559 34.2097 171.559 34.2097C171.559 34.2097 172.034 35.4264 171.966 35.75C171.885 36.1419 170.963 37.0715 170.963 37.0715C170.963 37.0715 172.111 36.5816 172.501 36.6635C172.824 36.7311 173.813 37.67 173.813 37.67C173.813 37.67 173.312 36.5157 173.39 36.1401C173.461 35.8004 174.409 34.8083 174.409 34.8083Z" fill="white"/>
<path d="M17.9346 33.0783C17.9346 33.0783 16.683 33.6968 16.362 33.6294C15.9705 33.5472 15.0852 32.4797 15.0852 32.4797C15.0852 32.4797 15.5598 33.6965 15.4924 34.02C15.4107 34.4119 14.4893 35.3415 14.4893 35.3415C14.4893 35.3415 15.6371 34.8516 16.0273 34.9335C16.3495 35.0011 17.3386 35.9401 17.3386 35.9401C17.3386 35.9401 16.8376 34.7858 16.9158 34.4101C16.9866 34.0703 17.9346 33.0783 17.9346 33.0783Z" fill="white"/>
<path d="M60.2695 4.27381C60.2695 4.27381 59.0178 4.89235 58.697 4.82499C58.3055 4.74272 57.4201 3.67529 57.4201 3.67529C57.4201 3.67529 57.8947 4.89201 57.8273 5.21554C57.7457 5.60746 56.8242 6.53709 56.8242 6.53709C56.8242 6.53709 57.9721 6.04707 58.3623 6.12908C58.6844 6.1967 59.6735 7.13562 59.6735 7.13562C59.6735 7.13562 59.1726 5.98132 59.2508 5.60559C59.3216 5.26579 60.2695 4.27381 60.2695 4.27381Z" fill="white"/>
<path d="M11.9335 67.3585C11.9335 67.3585 11.0608 67.7898 10.8371 67.7429C10.5641 67.6855 9.94683 66.9412 9.94683 66.9412C9.94683 66.9412 10.2777 67.7895 10.2307 68.0151C10.1738 68.2884 9.53125 68.9366 9.53125 68.9366C9.53125 68.9366 10.3316 68.5949 10.6036 68.6521C10.8283 68.6993 11.518 69.3539 11.518 69.3539C11.518 69.3539 11.1686 68.549 11.2232 68.2871C11.2726 68.0502 11.9335 67.3585 11.9335 67.3585Z" fill="white"/>
<path d="M33.7539 74.4372C33.7539 74.4372 32.8811 74.8685 32.6574 74.8215C32.3844 74.7641 31.7671 74.0198 31.7671 74.0198C31.7671 74.0198 32.098 74.8682 32.051 75.0938C31.9941 75.367 31.3516 76.0152 31.3516 76.0152C31.3516 76.0152 32.1519 75.6735 32.4239 75.7307C32.6486 75.7779 33.3383 76.4326 33.3383 76.4326C33.3383 76.4326 32.9889 75.6277 33.0435 75.3658C33.0928 75.1289 33.7539 74.4372 33.7539 74.4372Z" fill="white"/>
<path d="M176.217 110.691C176.161 110.769 176.13 110.812 176.131 110.812C176.131 110.812 176.161 110.771 176.217 110.691Z" fill="#A9D9ED"/>
<path d="M200.043 108.613C197.59 108.067 195.44 109.319 194.133 110.03C187.463 113.658 181.061 114.989 180.865 114.611C180.573 114.044 193.971 109.151 195.901 100.354C196.11 99.4025 196.899 95.8037 195.035 94.1942C193.94 93.2495 192.395 93.3903 191.924 93.4332C188.825 93.7155 186.704 96.4318 185.519 97.9936C182.203 102.362 176.947 109.665 176.217 110.691C176.161 110.772 176.131 110.814 176.131 110.814C176.13 110.814 176.161 110.771 176.217 110.691C177.178 109.293 185.829 96.2124 183.748 86.2004C183.553 85.2641 182.952 82.3747 181.414 82.0516C179.594 81.6694 177.462 85.0886 176.603 86.4652C174.332 90.1067 173.638 93.5314 173.319 95.2329C171.75 103.59 171.578 110.995 171.368 110.991C171.212 110.987 171.69 106.946 169.889 102.399C169.474 101.353 167.857 97.2702 165.776 97.3234C165.27 97.3363 164.315 97.568 163.24 99.5205C155.808 113.012 165.085 132.813 168.701 135.854C177.492 143.244 199.917 129.64 199.891 125.034C199.864 120.372 180.311 128.572 179.675 125.764C179.583 125.356 191.402 123.783 199.384 117.575C200.463 116.736 204.246 113.794 203.543 111.258C203.135 109.784 201.337 108.901 200.043 108.613Z" fill="#70B2ED"/>
<path d="M176.217 110.691C176.161 110.769 176.13 110.812 176.131 110.812C176.131 110.812 176.161 110.771 176.217 110.691Z" fill="#A9D9ED"/>
<path d="M181.414 82.0516C179.594 81.6694 177.462 85.0886 176.603 86.4652C174.332 90.1067 173.638 93.5314 173.319 95.2329C171.75 103.59 171.578 110.995 171.368 110.991C171.212 110.987 171.69 106.946 169.889 102.399C169.474 101.353 167.857 97.2702 165.776 97.3234C165.27 97.3363 164.315 97.568 163.24 99.5205C155.808 113.012 165.085 132.813 168.701 135.854C170.591 137.442 173.11 138.06 175.9 138.007C177.196 134.026 178.076 128.919 175.501 125.966C174.266 124.55 171.832 123.165 171.197 123.722C170.353 124.463 173.049 128.3 172.761 128.488C172.331 128.768 164.625 121.22 165.133 112.852C165.17 112.236 165.419 108.143 167.107 107.708C167.463 107.616 168.113 107.628 169.271 108.67C172.912 111.947 172.774 117.486 173.253 117.462C173.78 117.436 173.523 110.749 174.674 102.498C174.829 101.386 175.239 98.6002 176.178 95.0752C177.127 91.5086 177.683 89.4882 179.145 87.2797C179.839 86.2329 180.983 84.7716 182.818 83.3349C182.472 82.6955 182.015 82.1777 181.414 82.0516Z" fill="#5E9EDD"/>
<path d="M180.138 91.7556C179.454 92.7494 178.717 94.3055 178.847 94.7171C178.963 95.0844 179.756 94.4996 180.328 93.7949C181.276 92.6287 182.032 90.6251 181.863 90.2371C181.708 89.8817 180.763 90.8478 180.138 91.7556Z" fill="#5E9EDD"/>
<path d="M177.243 99.3277C176.271 101.044 176.59 104.523 176.937 104.595C177.387 104.689 178.589 99.2221 178.116 98.5909C177.917 98.3254 177.453 98.9573 177.243 99.3277Z" fill="#5E9EDD"/>
<path d="M187.579 98.4864C186.865 99.559 186.409 101.123 186.733 101.309C187.369 101.676 191.258 96.8571 190.771 96.3186C190.494 96.0121 188.631 96.9052 187.579 98.4864Z" fill="#5E9EDD"/>
<path d="M188.303 103.831C187.299 104.23 186.099 105.1 186.257 105.603C186.412 106.091 187.846 106.205 188.956 105.803C190.188 105.357 191.252 104.192 191.025 103.712C190.802 103.239 189.32 103.426 188.303 103.831Z" fill="#5E9EDD"/>
<path d="M183.552 103.318C183.271 103.143 181.817 104.528 181.254 106.353C180.964 107.293 180.813 108.665 181.078 108.745C181.624 108.91 184.036 103.619 183.552 103.318Z" fill="#5E9EDD"/>
<path d="M166.714 110.885C166.316 111.077 166.696 113.091 167.714 114.647C168.169 115.341 169.034 116.376 169.355 116.211C169.731 116.018 169.318 114.202 168.49 112.78C167.998 111.936 167.061 110.718 166.714 110.885Z" fill="#5E9EDD"/>
<path d="M177.78 116.676C176.62 117.551 176.232 119.181 176.617 119.476C177.281 119.985 180.894 117.005 180.526 116.239C180.322 115.814 178.81 115.9 177.78 116.676Z" fill="#5E9EDD"/>
<path d="M186.066 119.055C185.01 118.933 183.665 119.103 183.649 119.356C183.618 119.86 188.844 120.876 189 120.395C189.087 120.126 187.64 119.236 186.066 119.055Z" fill="#5E9EDD"/>
<path d="M189.875 115.009C189.436 115.401 188.568 116.309 188.793 116.692C189.01 117.062 190.199 116.86 191.051 116.379C192.301 115.672 193.157 114.174 192.838 113.786C192.512 113.39 190.909 114.084 189.875 115.009Z" fill="#5E9EDD"/>
<path d="M198.488 112.923C197.017 113.279 195.783 114.46 195.955 114.819C196.264 115.464 201.403 114.013 201.334 113.294C201.298 112.911 199.768 112.613 198.488 112.923Z" fill="#5E9EDD"/>
<path d="M180.211 129.201C178.698 130.656 178.119 132.854 178.489 133.081C179.132 133.476 183.371 128.373 182.868 127.795C182.617 127.506 181.14 128.307 180.211 129.201Z" fill="#5E9EDD"/>
<path d="M186.114 131.402C185.582 131.359 185.048 131.424 185.048 131.424C184.595 131.479 183.87 131.568 183.857 131.716C183.821 132.12 189.054 133.236 189.207 132.754C189.3 132.462 187.542 131.52 186.114 131.402Z" fill="#5E9EDD"/>
<path d="M189.824 126.548C188.761 127.324 187.933 128.693 188.207 128.993C188.73 129.565 193.514 126.547 193.228 125.839C193.066 125.438 191.188 125.552 189.824 126.548Z" fill="#5E9EDD"/>
<path d="M40.8689 97.2789C39.5756 96.2087 36.5243 96.7045 35.3871 100.914C33.9949 106.067 34.7295 112.51 34.5609 112.511C34.4538 112.512 34.0527 107.01 32.9529 101.321C30.803 90.199 27.604 86.7511 26.488 85.672C25.7837 84.9912 23.2784 82.5691 21.6355 83.3962C20.2263 84.1056 19.7153 86.9177 20.1575 89.9962C21.7648 101.187 27.1901 112.966 25.7057 113.178C25.7057 113.178 20.1395 98.5935 14.6633 92.994C12.143 90.417 6.90676 87.588 4.68101 89.6116C3.46336 90.7186 3.47379 93.0178 3.47803 93.9514C3.49033 96.6582 4.56357 98.8762 6.75863 102.49C10.3196 108.352 15.3181 113.968 15.054 114.291C14.7867 114.617 9.99733 108.553 5.93138 108.179C4.04107 108.005 1.43933 108.671 0.622769 110.761C-0.358805 113.274 1.67888 116.718 3.90557 120.39C5.99031 123.828 9.0858 128.82 14.9323 132.939C19.0199 135.819 24.0056 139.331 29.3936 138.338C40.2121 136.345 42.8646 117.993 43.329 114.779C43.7577 111.813 45.3253 100.967 40.8689 97.2789Z" fill="#70B2ED"/>
<path d="M40.8688 97.2789C39.5754 96.2087 36.5242 96.7045 35.3869 100.914C33.9948 106.067 34.7294 112.51 34.5608 112.511C34.4536 112.512 34.0525 107.01 32.9528 101.321C30.8028 90.199 27.6039 86.7511 26.4878 85.672C25.7835 84.9912 23.2783 82.5691 21.6353 83.3962C21.0022 83.7148 20.5511 84.4587 20.2856 85.4595C20.996 85.3924 21.7521 85.4468 22.5053 85.7139C24.2179 86.3211 25.1753 87.7638 25.7829 88.8289C31.7573 99.3005 30.8551 112.827 30.8551 112.827C30.3793 119.96 28.8062 126.138 29.1578 126.216C29.5496 126.303 30.9768 118.517 32.6561 118.576C33.9074 118.619 34.7839 122.999 35.0382 124.969C35.3266 127.202 35.4499 131.257 33.2009 136.807C40.8623 131.842 42.9244 117.577 43.3287 114.779C43.7575 111.813 45.3251 100.967 40.8688 97.2789Z" fill="#5E9EDD"/>
<path d="M7.48978 117.426C6.59749 117.161 4.54531 116.746 4.18112 117.447C3.74036 118.296 5.69545 120.929 8.04713 121.052C9.19142 121.112 10.6099 120.588 10.7248 119.847C10.8706 118.905 8.87573 117.838 7.48978 117.426Z" fill="#5E9EDD"/>
<path d="M15.6832 117.093C15.3046 117.133 15.0661 118.378 15.1121 119.372C15.1933 121.123 16.1937 122.828 16.6476 122.723C17.0799 122.623 17.0709 120.868 16.8445 119.642C16.6403 118.535 16.1091 117.047 15.6832 117.093Z" fill="#5E9EDD"/>
<path d="M16.4839 127.006C15.2614 126.534 13.075 125.897 12.8402 126.365C12.5957 126.851 14.4888 128.495 16.5499 129.408C18.3894 130.224 20.7584 130.634 20.9704 130.134C21.2048 129.582 18.808 127.904 16.4839 127.006Z" fill="#5E9EDD"/>
<path d="M12.5693 93.4544C12.2063 93.4945 12.0412 94.9818 12.0764 96.0138C12.1555 98.3222 13.3102 100.492 13.7457 100.387C14.1419 100.292 13.9678 98.3086 13.92 97.7659C13.7406 95.7232 13.0332 93.4033 12.5693 93.4544Z" fill="#5E9EDD"/>
<path d="M13.9224 104.272C12.7843 103.301 11.1505 102.501 10.8211 102.873C10.4926 103.243 11.5089 104.724 12.3401 105.624C13.6897 107.085 15.7335 108.296 16.134 107.887C16.5227 107.491 15.4002 105.532 13.9224 104.272Z" fill="#5E9EDD"/>
<path d="M21.2924 108.558C20.904 108.566 20.4887 110.012 20.5591 111.336C20.6668 113.362 21.9171 115.2 22.3515 115.069C22.8252 114.927 22.4343 112.413 22.3306 111.746C22.2644 111.321 21.833 108.546 21.2924 108.558Z" fill="#5E9EDD"/>
<path d="M21.1931 119.026C20.6317 119.351 20.9644 121.417 21.9683 122.894C23.0167 124.436 24.929 125.529 25.4437 125.096C25.9902 124.636 24.9886 122.433 23.8525 121.003C23.1728 120.147 21.7554 118.701 21.1931 119.026Z" fill="#5E9EDD"/>
<path d="M24.8438 128.896C23.9678 128.429 22.7105 128.131 22.4742 128.502C22.0785 129.123 24.6998 131.384 24.8091 131.478C25.496 132.065 27.1339 133.466 27.5303 133.135C27.9807 132.758 26.9692 130.028 24.8438 128.896Z" fill="#5E9EDD"/>
<path d="M22.6362 89.5687C22.143 89.7035 22.2825 91.991 22.8915 93.7338C23.0447 94.172 23.402 95.1944 23.7405 95.1599C24.1086 95.1224 24.3748 93.8424 24.2725 92.7409C24.1174 91.0731 23.0831 89.4465 22.6362 89.5687Z" fill="#5E9EDD"/>
<path d="M27.148 98.7427C26.6633 98.7529 26.3004 100.333 26.1967 101.279C25.958 103.463 26.7109 105.825 27.307 105.81C27.8181 105.797 28.2165 104.038 28.2808 102.813C28.3834 100.855 27.7134 98.7308 27.148 98.7427Z" fill="#5E9EDD"/>
<path d="M28.6623 112.844C28.2244 112.722 27.4576 114.266 27.0351 115.116C26.9114 115.365 25.5983 118.009 26.1395 118.394C26.4875 118.642 27.5541 117.921 28.1799 117.065C29.381 115.421 29.172 112.985 28.6623 112.844Z" fill="#5E9EDD"/>
<path d="M33.0737 122.197C32.6819 122.166 32.2769 123.619 32.0444 124.453C31.4847 126.461 31.1046 129.392 31.6567 129.555C32.13 129.695 33.324 127.81 33.6311 125.823C33.8968 124.104 33.5101 122.231 33.0737 122.197Z" fill="#5E9EDD"/>
<path d="M103.297 148.065C149.497 148.065 186.949 144.884 186.949 140.96C186.949 137.036 149.497 133.854 103.297 133.854C57.0977 133.854 19.6455 137.036 19.6455 140.96C19.6455 144.884 57.0977 148.065 103.297 148.065Z" fill="#B0DBED"/>
<path d="M105.343 57.3889L88.7129 74.167L113.522 98.9717L130.152 82.1936L105.343 57.3889Z" fill="#FAFCFF"/>
<path d="M110.037 80.2308L130.164 82.1863L105.354 57.3811L107.393 77.5904C107.572 78.9591 108.669 80.0563 110.037 80.2308Z" fill="#B3D9E8"/>
<path d="M110.694 79.5632L130.164 82.1863L105.354 57.3811L108.054 76.9234C108.242 78.2834 109.339 79.3806 110.694 79.5632Z" fill="white"/>
<path d="M111.486 78.7696C111.306 77.3962 110.209 76.299 108.845 76.125L88.7144 74.1689L113.524 98.9742L111.486 78.7696Z" fill="#B3D9E8"/>
<path d="M110.824 79.4319C110.636 78.0718 109.539 76.9746 108.184 76.792L88.7144 74.1689L113.524 98.9742L110.824 79.4319Z" fill="white"/>
<path d="M125.532 63.0127L111.365 95.1621L132.919 104.743L147.086 72.5938L125.532 63.0127Z" fill="#A4A3FA"/>
<path d="M127.544 85.1698L132.938 104.742L147.105 72.5906L129.05 81.7435C127.842 82.4022 127.215 83.8243 127.544 85.1698Z" fill="#8989F7"/>
<path d="M128.399 85.5461L132.938 104.742L147.105 72.5906L129.907 82.1244C128.71 82.7879 128.083 84.2101 128.399 85.5461Z" fill="#A4A3FA"/>
<path d="M129.42 86.0043C130.632 85.3434 131.259 83.9214 130.932 82.5804L125.536 63.0039L111.369 95.1551L129.42 86.0043Z" fill="#8989F7"/>
<path d="M128.567 85.6211C129.764 84.9575 130.391 83.5355 130.075 82.1995L125.536 63.0039L111.369 95.1551L128.567 85.6211Z" fill="#A4A3FA"/>
<path d="M139.365 143.906H100.175L96.2871 82.9912H143.253L139.365 143.906Z" fill="#3A61C1"/>
<path d="M139.365 143.906H100.175L96.2871 82.9912H143.253L139.365 143.906Z" fill="#3A61C1"/>
<path d="M134.933 82.9913L133.272 109.016C132.208 125.694 118.429 138.674 101.79 138.674H99.8413L100.175 143.906H139.365L143.253 82.9912H134.933V82.9913Z" fill="#2F54B2"/>
<path d="M142.633 92.7122L96.9526 93.0657L97.0807 95.4177H142.46L142.633 92.7122Z" fill="#1F4AA0"/>
<path d="M143.05 86.7871L96.5591 87.3318L96.7659 90.4894H142.774L143.05 86.7871Z" fill="#1F4AA0"/>
<path d="M144.342 89.0826H95.1987L94.5767 82.9912H144.964L144.342 89.0826Z" fill="#4A76CE"/>
<path d="M136.513 82.9912L135.891 89.0826H144.342L144.964 82.9912H136.513Z" fill="#436BC4"/>
<path d="M142.779 93.6904H96.7619C96.2643 93.6904 95.8608 93.2852 95.8608 92.7854V92.6431C95.8608 92.1432 96.2643 91.738 96.7619 91.738H142.779C143.277 91.738 143.68 92.1432 143.68 92.6431V92.7854C143.68 93.2852 143.277 93.6904 142.779 93.6904Z" fill="#4A76CE"/>
<path d="M142.779 93.6905H136.184V91.738H142.779C143.276 91.738 143.68 92.1432 143.68 92.6431V92.7854C143.68 93.2853 143.276 93.6905 142.779 93.6905Z" fill="#436BC4"/>
<path d="M119.98 139.377H119.56C118.087 139.377 116.893 138.177 116.893 136.698V99.8837C116.893 98.4042 118.087 97.2048 119.56 97.2048H119.98C121.453 97.2048 122.647 98.4042 122.647 99.8837V136.698C122.647 138.177 121.453 139.377 119.98 139.377Z" fill="#123E84"/>
<path d="M119.902 139.376H119.638C118.711 139.376 117.959 138.622 117.959 137.691V98.8905C117.959 97.9594 118.711 97.2046 119.638 97.2046H119.902C120.829 97.2046 121.581 97.9594 121.581 98.8905V137.691C121.581 138.622 120.829 139.376 119.902 139.376Z" fill="#1F4AA0"/>
<path d="M128.76 139.376C127.321 139.376 126.159 138.197 126.175 136.752L126.585 99.7716C126.6 98.3493 127.753 97.2046 129.169 97.2046H129.714C131.168 97.2046 132.336 98.4082 132.298 99.8677L131.344 136.848C131.307 138.255 130.161 139.376 128.76 139.376Z" fill="#1F4AA0"/>
<path d="M136.307 139.376C135.17 139.376 134.261 138.425 134.307 137.284L135.854 99.1337C135.898 98.0558 136.781 97.2046 137.855 97.2046H138.699C139.854 97.2046 140.77 98.1839 140.697 99.3419L138.306 137.492C138.239 138.551 137.364 139.376 136.307 139.376Z" fill="#1F4AA0"/>
<path d="M129.714 97.2046H129.169C128.968 97.2046 128.773 97.2284 128.585 97.2719C129.755 97.543 130.618 98.61 130.585 99.8678L129.631 136.848C129.602 137.954 128.888 138.883 127.904 139.23C128.172 139.324 128.46 139.377 128.76 139.377C130.161 139.377 131.307 138.255 131.344 136.848L132.298 99.8678C132.336 98.4083 131.168 97.2046 129.714 97.2046Z" fill="#073784"/>
<path d="M138.699 97.2046H137.855C137.706 97.2046 137.561 97.2215 137.422 97.2525C138.362 97.4616 139.048 98.3338 138.985 99.3419L136.593 137.492C136.546 138.245 136.09 138.879 135.451 139.183C135.711 139.307 136.001 139.376 136.308 139.376C137.365 139.376 138.239 138.551 138.306 137.492L140.698 99.3418C140.77 98.1839 139.854 97.2046 138.699 97.2046Z" fill="#073784"/>
<path d="M110.78 139.376C112.219 139.376 113.381 138.197 113.365 136.752L112.956 99.7716C112.94 98.3493 111.788 97.2046 110.371 97.2046H109.826C108.372 97.2046 107.204 98.4082 107.242 99.8677L108.197 136.848C108.233 138.255 109.379 139.376 110.78 139.376Z" fill="#1F4AA0"/>
<path d="M103.233 139.376C104.371 139.376 105.28 138.425 105.233 137.284L103.686 99.1337C103.642 98.0558 102.76 97.2046 101.685 97.2046H100.841C99.6859 97.2046 98.7703 98.1839 98.8429 99.3419L101.235 137.492C101.301 138.551 102.176 139.376 103.233 139.376Z" fill="#1F4AA0"/>
<path d="M109.91 136.848L108.955 99.868C108.922 98.6102 109.785 97.5433 110.955 97.2721C110.767 97.2286 110.572 97.2048 110.371 97.2048H109.826C108.372 97.2048 107.204 98.4084 107.242 99.868L108.197 136.848C108.233 138.255 109.379 139.377 110.78 139.377C111.081 139.377 111.369 139.325 111.637 139.23C110.652 138.883 109.938 137.954 109.91 136.848Z" fill="#123E84"/>
<path d="M102.947 137.492L100.556 99.342C100.493 98.334 101.178 97.4618 102.119 97.2525C101.979 97.2215 101.834 97.2046 101.685 97.2046H100.841C99.6859 97.2046 98.7703 98.1839 98.8429 99.3419L101.235 137.492C101.301 138.551 102.176 139.376 103.233 139.376C103.54 139.376 103.83 139.307 104.089 139.183C103.45 138.879 102.995 138.245 102.947 137.492Z" fill="#123E84"/>
<path d="M105.089 86.4184H98.2439C97.6573 86.4184 97.1662 85.972 97.1078 85.3858C97.0406 84.7107 97.5684 84.125 98.2439 84.125H105.089C105.719 84.125 106.23 84.6384 106.23 85.2717C106.23 85.9051 105.719 86.4184 105.089 86.4184Z" fill="#5286DB"/>
<path d="M160.739 128.097L152.495 114.607L153.468 114.007C156.928 111.874 161.47 112.966 163.594 116.441L164.733 118.305C166.857 121.78 165.769 126.342 162.31 128.475L161.337 129.075L160.739 128.097ZM155.703 115.473L162.02 125.809C163.668 124.181 164.046 121.566 162.787 119.504L161.648 117.641C160.388 115.58 157.895 114.734 155.703 115.473Z" fill="#1F4AA0"/>
<path d="M167.845 133.054L151.908 106.977C149.895 103.683 146.529 101.457 142.721 100.902L169.08 144.031C170.31 140.37 169.858 136.348 167.845 133.054Z" fill="#5485D3"/>
<path d="M169.08 144.031C170.31 140.37 169.858 136.348 167.845 133.054L162.114 123.677C164.127 126.971 164.58 130.993 163.349 134.654L169.08 144.031Z" fill="#4278C6"/>
<path d="M151.408 113.716L145.674 104.333C145.312 103.741 147.596 104.4 148.013 105.082L152.232 111.986C152.621 112.622 151.797 114.352 151.408 113.716Z" fill="#5C93E5"/>
<path d="M76.3229 60.686C78.0369 61.2647 91.0947 58.5814 104.116 49.3103C104.927 48.7326 103.783 46.4058 103.394 44.2077C102.912 41.4856 86.1562 52.1945 75.1464 50.0799C74.177 49.8937 72.3476 52.4663 72.4232 53.659C72.5586 55.7939 73.587 59.7623 76.3229 60.686Z" fill="#7C7CDD"/>
<path d="M76.0966 3.67102L58.5493 32.2129L100.753 58.3856L118.301 29.8438L76.0966 3.67102Z" fill="#8EB7E8"/>
<path d="M86.9297 28.4017L58.5361 32.2327L100.738 58.4046L91.4279 31.1862C90.7401 29.3562 88.8734 28.1986 86.9297 28.4017Z" fill="#5184CE"/>
<path d="M86.2387 29.5355L58.5361 32.2326L100.738 58.4045L90.7301 32.3208C90.0335 30.5054 88.1668 29.3478 86.2387 29.5355Z" fill="#8EB7E8"/>
<path d="M85.4018 30.8874C86.0917 32.7237 87.9583 33.8814 89.8953 33.6791L118.296 29.8472L76.0933 3.67529L85.4018 30.8874Z" fill="#5184CE"/>
<path d="M86.1016 29.759C86.7981 31.5744 88.6648 32.732 90.5929 32.5443L118.296 29.8472L76.0933 3.67529L86.1016 29.759Z" fill="#8EB7E8"/>
<path d="M69.2443 140.41C69.21 140.49 69.282 140.895 69.3294 141.246C69.3823 141.639 69.3241 141.743 69.4046 141.861C69.533 142.049 69.8477 142.027 70.1187 142.014C70.7069 141.986 71.2969 142.041 71.8852 142.014C72.3181 141.995 72.6624 142.001 73.3511 142.014C74.2211 142.031 74.5087 142.09 75.8693 142.206C78.0278 142.391 77.6362 142.27 78.6506 142.398C79.3449 142.486 80.0424 142.608 80.9433 142.514C81.102 142.497 81.6355 142.435 82.1835 142.091C82.4012 141.955 82.5926 141.832 82.7097 141.592C82.9479 141.105 82.7591 140.382 82.4466 140.287C82.0999 140.181 81.874 140.931 81.0184 141.285C80.6093 141.454 80.249 141.453 79.5901 141.4C78.2434 141.291 77.5566 141.116 76.6209 140.978C75.3363 140.788 74.2792 140.769 73.0503 140.747C71.7618 140.725 71.9544 140.796 71.2462 140.747C70.2374 140.678 69.3662 140.126 69.2443 140.41Z" fill="#145AC1"/>
<path d="M43.3475 141.485C43.3475 141.485 43.7054 141.847 44.0357 142.061C44.6706 142.472 45.2528 142.632 45.5649 142.714C47.2113 143.145 48.4705 143.29 48.4705 143.29C48.4705 143.29 49.8637 143.45 51.988 143.29C52.1753 143.276 52.7768 143.223 53.2879 142.829C53.6398 142.558 53.7236 142.298 53.7467 142.215C53.7598 142.167 53.8172 141.945 53.7467 141.677C53.6582 141.341 53.3891 141.006 53.0585 140.909C52.5916 140.771 52.3204 141.201 51.5292 141.446C51.106 141.578 50.7629 141.573 50.0764 141.562C48.9309 141.543 48.6673 141.346 46.903 141.062C45.4731 140.833 45.2557 140.9 44.8385 140.602C43.9766 139.985 43.9811 139.037 43.6533 139.066C43.2446 139.102 43.3475 141.485 43.3475 141.485Z" fill="#145AC1"/>
<path d="M69.1546 131.589C68.6656 132.558 69.4415 133.086 69.4986 135.276C69.5637 137.767 69.2693 139.595 69.2693 139.595C69.2693 139.595 70.0171 139.522 71.5059 139.423C73.6967 139.276 74.6334 140.025 75.6923 139.307C75.8402 139.207 76.3194 138.882 76.3232 138.443C76.3274 137.944 75.7123 137.705 75.1189 137.061C74.6027 136.501 74.4035 135.961 74.0866 135.103C73.1684 132.615 74.3351 131.168 73.5131 130.38C72.5927 129.498 69.8934 130.126 69.1546 131.589Z" fill="#EB8E6C"/>
<path d="M44.552 131.071C44.0139 131.65 44.7803 132.787 44.552 134.848C44.3239 136.906 43.8638 137.81 43.8638 137.81C43.8638 137.81 44.982 138.87 45.9283 139.25C47.2433 139.777 49.4232 140.206 49.8854 139.423C50.0288 139.179 50.2222 138.826 49.3119 137.291C47.7062 134.584 49.0072 132.453 48.5664 131.647C47.9272 130.478 45.4221 130.134 44.552 131.071Z" fill="#EB8E6C"/>
<path d="M56.0217 90.8674C55.5494 96.303 59.1328 101.31 60.1508 102.733C62.2147 105.616 64.6445 108.897 65.6982 110.313C66.0445 110.779 66.2242 111.346 66.2092 111.927C66.1814 113.012 66.1208 115.042 66.0003 117.823C65.7915 122.649 68.0364 133.06 69.5066 135.728C70.2691 137.111 74.0444 136.262 74.0865 135.103C74.3526 127.755 75.2088 112.44 75.3767 109.462C75.3956 109.129 75.3485 108.797 75.2392 108.483C74.7421 107.052 73.1895 102.406 71.3911 95.2448C68.4603 83.5749 69.0302 79.6456 66.6885 78.887C63.3194 77.7958 56.6066 84.1367 56.0217 90.8674Z" fill="#334D7C"/>
<path d="M69.3647 140.786C69.2268 140.586 69.1708 139.961 69.0589 138.712C68.9636 137.649 69.3668 137.139 69.486 137.111C69.6335 137.077 69.3457 137.816 69.9764 138.175C70.341 138.382 70.71 138.372 70.8557 138.366C71.476 138.343 71.7178 138.007 72.5762 137.598C73.095 137.352 73.4158 137.199 73.8761 137.138C74.769 137.019 75.5576 137.327 76.0554 137.522C76.4325 137.669 76.8347 137.874 76.9729 137.944C77.4036 138.163 77.4913 138.238 77.814 138.405C77.8867 138.442 78.4469 138.728 79.1521 138.942C79.4932 139.046 79.8893 139.114 80.6815 139.25C81.6906 139.423 81.973 139.437 82.2872 139.71C82.3862 139.797 82.7256 140.091 82.7078 140.478C82.6886 140.893 82.27 141.17 82.0961 141.285C81.0823 141.954 79.6302 141.72 79.0375 141.63C79.0375 141.63 76.437 141.236 73.7997 141.17C71.1595 141.103 69.9088 141.575 69.3647 140.786Z" fill="#FAFAFF"/>
<path d="M73.4939 136.485C73.5512 136.2 73.5832 136.041 73.7233 135.909C73.9989 135.65 74.3774 135.503 74.6661 135.624C75.0757 135.797 75.3729 136.368 75.4438 136.485C76.2335 137.794 78.1026 138.623 78.0436 138.712C77.9759 138.814 76.0203 136.961 74.4497 137.445C74.2022 137.521 73.7918 137.709 73.5704 137.522C73.3267 137.316 73.438 136.763 73.4939 136.485Z" fill="#FAFAFF"/>
<path d="M68.4982 112.488C68.5793 111.301 68.2417 110.124 67.5459 109.162C64.8452 105.425 58.8189 99.6425 61.1068 86.9893C60.5118 88.3267 56.1471 89.4249 56.0217 90.8675C55.5494 96.3031 59.1328 101.31 60.1508 102.733C62.2147 105.617 64.6445 108.897 65.6982 110.313C66.0445 110.779 66.2242 111.346 66.2092 111.927C66.1814 113.012 66.1208 115.042 66.0003 117.823C65.7915 122.649 68.0364 133.06 69.5066 135.728C69.7498 136.169 70.2999 136.382 70.9372 136.432C70.0166 133.497 69.1578 129.981 68.6455 125.963C68.0366 121.187 68.2996 115.394 68.4982 112.488Z" fill="#2B4770"/>
<path d="M48.5088 80.4997C46.8575 83.1181 46.635 86.9797 46.4443 90.2913C46.3861 91.301 46.4055 92.3852 46.4443 94.5536C46.5765 101.947 47.024 103.435 46.6737 106.764C46.4426 108.961 46.164 109.111 45.1827 113.331C42.9161 123.077 44.2768 134.176 44.5518 134.848C45.2673 136.597 48.3222 136.17 48.4892 135.192C49.3802 129.974 49.8878 125.406 52.8674 115.404C53.0273 114.867 53.7769 112.858 55.276 108.838C58.4952 100.207 58.5538 100.551 59.9786 96.512C63.4492 86.6739 61.7914 88.3449 64.4519 81.5365C65.4824 78.8992 65.9993 77.9621 65.4841 77.0439C63.7415 73.9385 52.2063 74.6367 48.5088 80.4997Z" fill="#3D5586"/>
<path d="M43.4297 139.478C43.5899 138.016 44.2113 136.779 44.2113 136.779C44.2113 136.779 44.8126 137.503 45.0682 137.752C45.0682 137.752 45.4871 138.16 46.0623 138.443C46.1803 138.501 47.1945 138.991 47.4769 138.674C47.5851 138.552 47.4864 138.424 47.4769 137.867C47.4683 137.36 47.4623 137.011 47.668 136.792C47.8681 136.579 48.5589 136.372 49.1569 136.702C49.2481 136.753 50.0914 138.232 50.2871 138.56C50.8889 139.572 52.6369 140.464 53.2363 140.883C53.4511 141.033 53.5196 141.293 53.5177 141.477C53.5143 141.809 52.8277 142.05 52.6002 142.129C51.4727 142.525 50.4727 142.353 48.2799 142.053C47.5063 141.947 46.2884 141.784 45.2213 141.4C45.2211 141.4 43.3161 140.516 43.4297 139.478Z" fill="#FAFAFF"/>
<path d="M46.8907 113.028C47.4204 111.248 48.2388 108.986 48.7306 105.418C49.5762 99.2849 48.474 96.4184 48.6224 90.852C48.6914 88.2657 49.2599 83.7606 50.8953 78.4598C50.9549 78.2666 51.0149 78.0776 51.075 77.8904C50.0429 78.6072 49.1557 79.4742 48.5088 80.4998C46.8575 83.1183 46.635 86.9799 46.4443 90.2915C46.3861 91.3012 46.4055 92.3854 46.4443 94.5538C46.5765 101.947 47.024 103.435 46.6737 106.765C46.4426 108.961 46.1639 109.111 45.1827 113.331C42.9161 123.077 44.2768 134.176 44.5518 134.848C44.8033 135.463 45.344 135.808 45.9463 135.955C44.3485 125.174 45.4525 117.86 46.8907 113.028Z" fill="#334D7C"/>
<path d="M65.5981 39.5022C64.9648 40.0273 65.0889 41.2498 64.4265 45.9283C64.03 48.7298 61.9229 47.7711 61.3129 48.1504C60.4579 48.6819 62.476 49.8061 63.5007 50.4786C64.9417 51.4243 67.8847 54.9615 69.3082 54.3C71.7567 53.1623 71.7745 49.6374 71.3846 49.2346C71.0885 48.9286 70.7188 49.0745 70.8018 46.5202C70.8413 45.3041 70.0332 44.3092 69.7757 43.2659C69.1608 40.7745 66.6514 38.6288 65.5981 39.5022Z" fill="#EB8E6C"/>
<path d="M63.3421 47.7373C58.3498 48.1449 55.4587 49.6666 53.7756 51.0097C52.1395 52.3152 51.5408 54.3498 51.024 55.8479C50.4191 57.6011 49.6717 64.2792 48.0492 73.3578C46.5485 81.7548 46.1899 86.6437 46.1899 86.6437C50.1741 91.0142 66.2037 90.4286 69.7872 86.9893C69.7872 86.9893 69.8129 76.1106 71.5499 69.3643C72.0328 67.4883 72.7441 64.726 74.599 61.6846C75.5464 60.1314 75.8905 59.9835 76.3839 58.7663C77.8038 55.2637 80.4515 52.1493 78.7824 51.4508C78.3286 51.2608 74.8895 49.9805 73.8542 49.8163C72.1966 49.5534 71.7149 49.2456 71.1425 49.0474C71.1425 49.0474 71.0702 49.9738 70.8062 50.6257C70.474 51.446 69.5893 51.9381 68.947 52.0849C67.2668 52.4684 65.4232 50.9041 64.5592 49.4738C63.971 48.4999 63.5395 47.7211 63.3421 47.7373Z" fill="#8989E5"/>
<path d="M80.5671 45.9698C80.6031 45.7512 80.7653 45.4401 80.9398 44.645C80.9872 44.4295 81.019 44.2531 80.9685 44.0402C80.8895 43.7071 80.6745 43.5625 80.481 43.3203C80.141 42.8946 80.0691 42.4199 80.0223 42.1107C79.9038 41.3287 80.3145 41.2802 80.3951 40.1524C80.4471 39.4241 80.3099 38.9674 80.6244 38.7125C80.7277 38.6288 81.0258 38.5397 81.37 39.9508C81.4621 40.3283 81.5073 40.5173 81.628 40.5556C81.829 40.6193 82.1181 40.2805 82.2588 40.066C82.5603 39.6063 82.7286 38.8813 82.5169 38.1652C82.3475 37.5922 82.0048 37.2618 82.1728 36.9844C82.2573 36.8449 82.5169 36.6965 82.5169 36.6965C82.5169 36.6965 82.4596 36.1781 82.9375 35.9542C83.1731 35.8439 83.6925 36.4085 83.6925 36.4085C83.6925 36.4085 84.0207 36.3007 84.266 36.3221C84.5605 36.3478 84.7557 36.687 84.9542 37.0421C85.3257 37.707 85.499 38.2229 85.499 38.2229C85.499 38.2229 85.6362 37.6634 85.7857 37.6469C85.9494 37.6288 86.1821 38.2655 86.3018 38.8565C86.4313 39.4961 86.4297 40.0888 86.3591 40.7284C86.2625 41.6035 86.0289 43.7193 85.0114 44.4435C84.9164 44.5111 84.6628 44.6745 84.4379 44.9907C84.1763 45.3583 84.1016 45.7241 84.0651 45.9122C83.7103 47.7442 83.8294 48.0956 83.5777 48.2737C82.8675 48.7763 80.3868 47.0615 80.5671 45.9698Z" fill="#EB8E6C"/>
<path d="M83.3958 40.2097C83.3316 40.4073 83.1828 40.3232 83.2436 40.1527C83.4109 39.6836 83.4857 39.1529 83.4115 38.6672C83.3446 38.2301 83.1818 37.8826 83.0742 37.6528C82.9571 37.4031 82.7237 37.1006 82.5693 36.9003C82.5226 36.8395 82.4816 36.7864 82.4512 36.7445L82.5147 36.6484C82.5443 36.6893 83.0965 37.3174 83.2211 37.5834C83.3327 37.8217 83.5016 38.182 83.572 38.6424C83.6504 39.156 83.5889 39.6159 83.3958 40.2097Z" fill="#C36252"/>
<path d="M84.1839 40.4072C84.1032 40.5936 83.9742 40.4676 84.0746 40.2694C84.3027 39.819 84.3611 39.0661 84.3381 38.8158C84.3071 38.4812 84.2619 38.1943 84.1212 37.718C84.0229 37.3851 83.718 36.471 83.6924 36.4084L83.8008 36.3777C83.8259 36.4394 84.1757 37.3294 84.2769 37.6716C84.4213 38.1608 84.4679 38.4561 84.4998 38.8008C84.5348 39.1828 84.5224 39.6251 84.1839 40.4072Z" fill="#C36252"/>
<path d="M85.3756 40.4072C85.2731 40.7326 85.1311 40.6375 85.2209 40.3583C85.4949 39.5068 85.492 38.3437 85.4658 38.1309L85.5586 38.02C85.5884 38.2606 85.5928 39.0054 85.58 39.2637C85.5608 39.6505 85.4928 40.0354 85.3756 40.4072Z" fill="#C36252"/>
<path d="M66.3053 52.3437C66.7697 52.5905 67.7743 53.1244 69.0246 52.8736C69.1638 52.8457 70.6572 52.5228 71.3382 51.2431C71.5436 50.8571 71.5942 50.5359 71.6628 50.1017C71.7006 49.8632 71.7441 49.5881 71.7899 49.2987C71.5462 49.2056 71.3501 49.1193 71.1429 49.0476C71.1429 49.0476 71.0705 49.9739 70.8065 50.6258C70.4743 51.4461 69.5897 51.9384 68.9473 52.085C67.2672 52.4686 65.4235 50.9041 64.5595 49.4739C63.9712 48.5001 63.5398 47.7215 63.3423 47.7375C63.0537 47.7611 62.7728 47.7888 62.498 47.8196C62.755 48.2449 63.1032 48.7919 63.5452 49.4089C64.678 50.9894 65.2656 51.791 66.3053 52.3437Z" fill="white"/>
<path d="M110.269 42.3199C110.592 42.6866 110.52 42.7994 110.872 43.2617C111.23 43.734 111.485 43.8526 111.432 44.0368C111.374 44.2424 110.973 44.3876 110.822 44.4427C110.643 44.5075 110.559 44.5061 110.527 44.5787C110.465 44.7229 110.741 44.8573 110.843 45.1775C110.948 45.5087 110.84 45.9594 110.58 46.1188C110.351 46.2597 110.152 46.0822 109.994 46.2312C109.815 46.3993 110.031 46.6609 109.848 47.0083C109.722 47.2492 109.484 47.3787 109.345 47.4541C109.183 47.5425 109.132 47.5318 108.91 47.6135C108.401 47.8014 108.382 47.9649 108.045 48.0473C107.671 48.1389 107.268 48.0417 107.246 47.9201C107.222 47.7935 107.444 47.6372 107.502 47.3505C107.545 47.1406 107.56 47.0298 107.452 46.9013C107.286 46.7025 107.171 46.682 106.697 46.3468C106.343 46.0959 106.29 46.0242 106.284 45.938C106.268 45.7221 106.561 45.6142 106.52 45.4498C106.482 45.296 106.216 45.3486 106.004 45.1161C105.981 45.0913 105.764 44.846 105.84 44.5643C105.895 44.3639 106.079 44.2116 106.266 44.1747C106.62 44.1047 106.934 44.4596 107.007 44.3841C107.073 44.3158 106.789 44.0546 106.869 43.8135C106.93 43.6331 107.162 43.5609 107.255 43.5319C107.612 43.421 107.933 43.5241 108.328 43.6569C109.499 44.0507 109.763 44.1746 109.906 44.0451C110.055 43.9101 109.974 43.5892 109.934 43.4324C109.778 42.8151 109.288 42.6963 109.266 42.1829C109.264 42.1409 109.252 41.8472 109.4 41.7698C109.658 41.6347 110.216 42.2593 110.269 42.3199Z" fill="#EB8E6C"/>
<path d="M106.956 44.2078C107.355 44.3552 107.809 44.5486 108.208 44.7107C108.528 44.8405 108.856 44.9677 109.171 45.116C109.357 45.2037 109.358 45.3747 109.099 45.2818C108.773 45.1649 108.459 45.0076 108.141 44.8784C107.743 44.717 107.349 44.5366 106.951 44.3898L106.956 44.2078Z" fill="#C36252"/>
<path d="M106.487 45.3923C106.902 45.4627 107.616 45.6555 107.988 45.8238C108.113 45.8802 108.237 45.9327 108.351 45.9969C108.6 46.1373 108.527 46.2188 108.264 46.1243C108.143 46.0809 108.037 46.0442 107.914 45.9885C107.549 45.8234 106.899 45.6455 106.516 45.5262L106.487 45.3923Z" fill="#C36252"/>
<path d="M70.2693 67.2631C69.6074 67.3123 68.9642 67.3116 68.3381 67.2707C67.604 67.2229 66.894 67.1187 66.2055 66.9716C63.5589 66.4059 61.2345 65.2042 59.1212 64.1106C54.4203 61.6779 52.2249 57.272 51.8927 57.614C51.5536 57.9633 51.8556 61.8279 56.4155 65.089C58.253 66.4031 60.3111 67.7817 63.2342 68.785C64.275 69.1421 65.3329 69.4382 66.3869 69.6809C66.7944 69.7746 67.2013 69.8603 67.6065 69.9384C68.9995 70.207 69.9827 70.3854 71.2841 70.4895C71.3082 70.3758 71.7589 68.5836 71.7824 68.4759C72.0622 67.1952 72.3297 67.9047 72.6872 66.9498C71.9251 67.0332 71.2639 67.1893 70.2693 67.2631Z" fill="#6F6FD8"/>
<path d="M62.6742 52.0847C62.0284 51.7338 60.9302 51.15 59.3862 50.9327C58.4987 50.8079 56.8779 50.5798 55.1806 51.4704C53.5729 52.3139 52.8389 53.6667 52.5808 54.1582C52.2574 54.7745 51.5727 56.0786 51.8927 57.6141C52.0566 58.4006 52.4221 58.9513 52.7338 59.3804C54.7205 62.1168 57.1688 63.7579 57.1688 63.7579C57.9168 64.2593 61.1447 66.368 66.2681 67.7514C66.2681 67.7514 69.7921 68.7029 74.0675 68.4426C74.8713 68.3936 76.0906 68.2688 76.9732 67.3674C76.9732 67.3674 77.6983 66.6269 77.8908 65.5243C78.3498 62.8944 74.5866 59.9427 70.9325 57.0766C68.8358 55.4319 66.7819 54.3162 62.6742 52.0847Z" fill="#9494ED"/>
<path d="M80.0507 45.8258C77.3362 48.3601 72.1129 61.3773 71.9264 62.5293C71.8156 63.2126 71.1411 64.2911 71.544 65.4475C71.9389 66.5808 74.6011 68.1422 74.9486 68.1473C78.5788 68.2013 82.1151 59.4159 82.6314 57.1535C84.0951 50.74 84.1225 48.2449 83.9505 46.9649C83.8146 45.9542 80.9376 44.9977 80.0507 45.8258Z" fill="#9494ED"/>
<path d="M73.5371 59.3741L73.3594 59.2261C73.2711 59.1527 64.5624 51.9461 59.2526 51.0816C59.1652 51.0674 59.1055 50.9872 59.1178 50.8992C59.1304 50.8089 59.2136 50.7451 59.3033 50.7596C64.1489 51.5461 71.504 57.3039 73.2143 58.6871C73.3006 58.7569 73.4282 58.7214 73.4667 58.617C73.9876 57.2016 75.6968 52.6423 76.9117 50.4015C76.9547 50.322 77.0544 50.2945 77.133 50.3387C77.2107 50.3824 77.2385 50.4803 77.1959 50.559C75.7669 53.1949 73.6375 59.0958 73.6156 59.1561L73.5371 59.3741Z" fill="#6F6FD8"/>
<path d="M75.371 61.9392C75.2871 61.9667 75.1984 61.9211 75.1688 61.8376C74.9799 61.3041 74.7172 60.8019 74.3866 60.343C74.1002 59.9452 73.7654 59.5843 73.3898 59.2684C73.3221 59.2114 73.3104 59.1117 73.3653 59.0422L73.3654 59.0421C73.4218 58.9706 73.5269 58.9583 73.5966 59.0169C73.9933 59.3505 74.3472 59.7317 74.6498 60.1518C74.9989 60.6365 75.2761 61.1667 75.4754 61.7301C75.5058 61.8161 75.4579 61.9107 75.3715 61.939L75.371 61.9392Z" fill="#6F6FD8"/>
<path d="M65.3623 41.0647C66.8735 40.7394 70.8906 44.1025 70.4087 46.2879C70.2516 47.0001 72.1654 46.3547 71.3762 47.2167C70.7758 47.8726 70.8019 48.6266 71.1429 49.0474C64.6631 48.5653 65.3317 42.2224 65.3623 41.0647Z" fill="#C36252"/>
<path d="M74.4555 36.9767C74.5917 37.746 74.6195 38.3822 74.6269 38.6C74.6582 39.5268 74.5394 39.3807 74.5677 40.3547C74.5841 40.9183 74.6291 41.1444 74.4639 41.4169C74.2925 41.6996 74.0683 41.7466 73.9098 42.0918C73.7873 42.3589 73.802 42.5915 73.8015 42.7554C73.7998 43.3371 73.6058 43.7864 73.2192 44.6818C72.8604 45.5126 72.681 45.928 72.2975 46.3055C72.1798 46.4214 71.9735 46.6022 71.7856 46.9247C71.5869 47.2658 71.6067 47.4254 71.4821 47.6151C71.1719 48.0875 70.3943 48.0945 70.1564 48.0966C68.9477 48.1075 67.9838 47.1121 67.3466 46.4366C65.8694 44.8707 65.3345 43.157 65.1079 42.4026C64.7721 41.2841 64.696 40.395 64.6301 39.6239C64.5346 38.507 64.4446 37.454 64.7551 36.1635C64.9829 35.2168 72.6304 32.8244 73.5807 34.2025C74.0968 34.9508 74.2518 35.8262 74.4555 36.9767Z" fill="#EB8E6C"/>
<path d="M69.5205 40.2507C69.8871 40.2475 70.2523 40.2854 70.6089 40.364C70.8331 40.4134 71.0552 40.4792 71.2712 40.5601C71.3566 40.5923 71.3987 40.6889 71.3639 40.7735C71.331 40.8533 71.2412 40.8936 71.1607 40.8633C70.9583 40.7873 70.7502 40.7255 70.5401 40.6793C70.2064 40.6057 69.864 40.5702 69.5205 40.5734C69.4345 40.5742 69.3637 40.5056 69.36 40.4192V40.4191C69.3561 40.3274 69.4291 40.2514 69.5205 40.2507Z" fill="#49302A"/>
<path d="M74.4313 41.2667C74.1846 41.1179 73.9214 41.0066 73.6469 40.9351C73.4742 40.8902 73.2961 40.8609 73.1155 40.8477C73.0442 40.8425 72.9747 40.9126 72.9623 41.0024C72.9507 41.0872 72.9944 41.1591 73.0617 41.1641C73.2309 41.1763 73.3979 41.2038 73.5597 41.2459C73.8166 41.3127 74.0633 41.4172 74.2944 41.5567C74.3524 41.5917 74.4293 41.5582 74.4684 41.4821C74.51 41.4012 74.4929 41.3038 74.4313 41.2667Z" fill="#49302A"/>
<path d="M71.19 43.5133C71.2101 43.4667 71.2677 43.4447 71.3201 43.4643C71.749 43.6246 72.0593 43.6436 72.1989 43.5167C72.3127 43.4129 72.304 43.2238 72.2867 42.8469C72.2804 42.7114 72.2734 42.5579 72.2707 42.3766C72.265 41.9976 72.2808 41.6165 72.3175 41.2423C72.3227 41.1898 72.3739 41.1538 72.4309 41.1617C72.4872 41.1696 72.5281 41.2174 72.523 41.2691C72.4869 41.6369 72.4714 42.0114 72.477 42.3838C72.4796 42.5624 72.4866 42.7145 72.4928 42.8487C72.512 43.2662 72.5227 43.4962 72.3476 43.6556C72.176 43.8117 71.8884 43.833 71.4907 43.7197C71.4154 43.6982 71.3362 43.672 71.2531 43.6409C71.1978 43.6202 71.1689 43.5627 71.1901 43.5133H71.19Z" fill="#C36252"/>
<path d="M70.5808 41.1758C70.7406 41.204 70.8346 41.4299 70.7907 41.6803C70.7468 41.9306 70.5817 42.1107 70.4219 42.0825C70.2621 42.0542 70.1681 41.8284 70.2119 41.578C70.2558 41.3276 70.421 41.1476 70.5808 41.1758Z" fill="#49302A"/>
<path d="M73.3352 41.6626C73.495 41.6908 73.5891 41.9167 73.5451 42.1671C73.5012 42.4175 73.3361 42.5976 73.1763 42.5693C73.0164 42.541 72.9225 42.3152 72.9663 42.0648C73.0102 41.8144 73.1754 41.6344 73.3352 41.6626Z" fill="#49302A"/>
<path d="M70.1602 44.6339L70.6612 44.7903C71.0471 44.9108 71.4471 44.981 71.8501 44.9989L72.1293 45.0113C72.2503 45.0167 72.3187 45.1499 72.2469 45.241C72.0367 45.5083 71.6426 45.8139 71.1126 45.714C70.5792 45.6135 70.0725 45.1355 69.9735 44.8068C69.9403 44.6968 70.0462 44.5983 70.1602 44.6339Z" fill="white"/>
<path d="M69.3865 42.1642C69.7945 42.2914 70.061 42.6021 69.9818 42.8581C69.9027 43.1142 69.5078 43.2188 69.0999 43.0917C68.692 42.9644 68.4255 42.6537 68.5047 42.3977C68.5838 42.1416 68.9786 42.0371 69.3865 42.1642Z" fill="#DD8064"/>
<path d="M74.6268 38.6C74.466 38.7914 74.5836 37.3353 71.5832 36.8988C66.5291 36.1634 67.4469 39.6807 67.157 39.4623C65.7854 38.4294 65.4759 39.3261 65.4446 39.6683C65.3708 40.4758 65.6594 41.0773 66.2295 42.2265C66.7545 43.2849 67.4143 44.1066 68.3932 44.6506C68.8583 44.9091 69.3052 45.7715 70.6807 46.0625C71.4587 46.2271 72.0298 45.9943 72.55 45.4931C72.9967 45.0626 72.8536 44.9682 72.9967 45.0626C73.1091 45.1368 72.6624 47.1402 72.5237 47.5153C72.21 48.3638 71.0056 50.0029 66.3066 45.9065C65.57 45.2644 64.7268 44.4491 64.5402 43.8996C64.467 43.6839 64.2702 43.5708 63.8868 42.3449C63.677 41.6739 62.3593 38.3779 64.937 34.944C66.8083 32.451 74.273 32.3816 75.251 35.5316C75.5315 36.4344 75.5048 37.5541 74.6268 38.6Z" fill="#090F51"/>
<path d="M68.4422 45.904C68.2253 45.3633 68.8404 44.7034 68.888 44.6536C69.1699 44.3583 70.0599 43.1303 72.4267 44.2609C73.1113 44.5879 73.142 45.0849 72.9146 45.554C72.778 45.8358 72.6529 46.4099 72.5503 46.3358C72.4478 46.2618 72.2282 46.0147 72.3719 45.6514C72.8846 44.3552 70.0973 44.2127 69.8152 44.735C69.5023 45.3141 69.6977 45.6817 70.0941 45.886C70.2743 45.9789 68.5359 46.1376 68.4422 45.904Z" fill="#090F51"/>
<path d="M65.8806 39.2663C66.3434 39.2207 66.6689 39.8485 66.6856 39.8818C67.1622 40.8301 66.6509 42.775 66.1055 42.8339C65.9497 42.8508 65.8392 42.5556 65.6675 42.3449C65.2985 41.892 64.906 41.0584 65.0501 40.372C65.1384 39.9512 65.4349 39.3101 65.8806 39.2663Z" fill="#EB8E6C"/>
<path d="M66.0015 41.6108C66.016 41.6327 66.0258 41.6466 66.0255 41.6483C66.0255 41.6483 66.0154 41.6327 66.0015 41.6108Z" fill="#C36252"/>
<path d="M66.2833 40.3233C66.4361 40.401 66.54 40.5664 66.5671 40.7639C66.577 40.8361 66.5233 40.9026 66.4571 40.9016C66.4068 40.901 66.3684 40.8591 66.3607 40.8043C66.3433 40.6812 66.2813 40.5799 66.1908 40.5338C66.067 40.4709 65.9097 40.5275 65.8349 40.616C65.7537 40.7122 65.7353 40.8984 65.7843 41.1269C65.8205 41.295 65.899 41.444 65.9568 41.5398C65.9142 41.4718 65.8818 41.4202 65.9592 41.5438C65.9718 41.5645 65.9833 41.5828 65.993 41.5979C66.0031 41.614 66.0134 41.6304 66.0257 41.6502C66.1762 41.8907 66.0096 41.8809 65.9945 41.8782C65.8534 41.8528 65.7412 41.6414 65.6837 41.5086C65.5459 41.1896 65.4634 40.724 65.6848 40.4616C65.8117 40.3116 66.0647 40.2123 66.2833 40.3233Z" fill="#C36252"/>
<path d="M65.9932 41.5972C65.9801 41.5766 65.9689 41.5588 65.9594 41.5437C65.9586 41.5426 65.9578 41.5411 65.957 41.5398C65.9723 41.5637 65.9884 41.5893 66.0015 41.6098C65.9988 41.6057 65.9962 41.6018 65.9932 41.5972Z" fill="#C36252"/>
<path d="M65.285 39.6999C65.1573 39.9077 65.0067 40.2642 65.015 40.7826C65.0268 41.5053 65.3341 42.1625 65.6196 42.3222C65.6202 42.3255 65.6208 42.329 65.6215 42.3324C65.6483 42.4727 65.7196 42.8453 66.0586 42.9065H66.0589C66.3189 42.9533 66.4203 42.7681 66.4712 42.6051C66.4913 42.5406 66.4586 42.4728 66.3997 42.4577L66.3993 42.4576C66.3461 42.4441 66.2917 42.4796 66.2737 42.5378C66.2302 42.6779 66.1892 42.6946 66.0996 42.6785H66.0994C65.9201 42.646 65.8618 42.4662 65.8255 42.2768C65.8122 42.207 65.8007 42.1468 65.7389 42.1247C65.5392 42.0528 65.2347 41.4522 65.2235 40.7701C65.2176 40.4035 65.2959 40.0855 65.456 39.8251C65.5193 39.722 65.6061 39.5811 65.7605 39.5252C65.925 39.4657 66.0745 39.5347 66.1383 39.5642C66.3635 39.6681 66.4798 39.8864 66.5351 40.0348C66.5552 40.0886 66.6098 40.1145 66.6609 40.0956C66.7197 40.0737 66.7511 40.0013 66.7279 39.9393C66.659 39.7556 66.5128 39.4836 66.2244 39.3505C66.147 39.3147 65.9411 39.2197 65.7023 39.3059C65.4772 39.3874 65.3569 39.5831 65.285 39.6999Z" fill="#C36252"/>
<path d="M66.5293 40.8684C66.5371 40.9041 66.427 40.9288 66.3284 41.0415C66.1376 41.2592 66.1862 41.5814 66.1437 41.5835C66.1122 41.585 66.0664 41.4076 66.09 41.2274C66.1008 41.1448 66.1229 40.9769 66.2443 40.889C66.3597 40.8054 66.5202 40.8269 66.5293 40.8684Z" fill="#C36252"/>
<path d="M138.633 48.9935C142.395 45.2152 142.395 39.0895 138.633 35.3112C134.871 31.533 128.772 31.533 125.01 35.3112C121.248 39.0895 121.248 45.2152 125.01 48.9935C128.772 52.7717 134.871 52.7717 138.633 48.9935Z" fill="#ED4A85"/>
<path d="M137.182 45.7085L133.293 42.1261L137.126 38.5952C137.53 38.2227 137.557 37.5913 137.186 37.1852C136.815 36.7791 136.187 36.7518 135.782 37.1244L131.824 40.7717L127.865 37.1244C127.461 36.7518 126.832 36.779 126.461 37.1852C126.09 37.5913 126.117 38.2227 126.522 38.5952L130.354 42.1261L126.466 45.7085C126.061 46.0811 126.034 46.7124 126.405 47.1186C126.776 47.5247 127.404 47.5519 127.809 47.1793L131.824 43.4803L135.838 47.1793C136.243 47.5519 136.871 47.5247 137.242 47.1186C137.613 46.7124 137.586 46.0811 137.182 45.7085Z" fill="white"/>
</svg>
