<svg width="151" height="156" viewBox="0 0 151 156" fill="none" xmlns="http://www.w3.org/2000/svg">
<path d="M132.21 133.657C129.139 137.001 126.234 139.157 123.938 140.861C96.9537 160.886 65.0239 155.049 58.238 153.623C48.2172 151.518 28.8473 147.449 14.8433 130.416C-6.34373 104.646 -3.04461 64.0459 13.3895 37.2452C16.3955 32.343 32.2744 5.13408 64.548 0.770677C84.0797 -1.87003 106.847 3.45595 123.335 17.7432C157.944 47.7333 155.48 108.319 132.21 133.657Z" fill="url(#paint0_linear_455_10651)"/>
<path d="M61.6496 143.282C60.7058 125.473 54.3975 109.227 32.0018 97.6694C32.0018 97.6694 28.5258 141.356 61.6496 143.282Z" fill="#BDD0FB"/>
<path opacity="0.51" d="M55.4997 135.55C55.4544 135.55 55.4089 135.533 55.3739 135.497C42.7065 122.553 34.7923 103.563 34.7138 103.373C34.6743 103.277 34.7164 103.166 34.8078 103.125C34.8986 103.084 35.0052 103.127 35.0447 103.223C35.1228 103.413 43.0103 122.336 55.6256 135.227C55.6969 135.3 55.6983 135.419 55.6288 135.494C55.5934 135.531 55.5466 135.55 55.4997 135.55Z" fill="white"/>
<path d="M100.692 142.17C115.988 143.648 130.663 139.91 143.475 120.528C143.475 120.528 106.721 111.495 100.692 142.17Z" fill="#BDD0FB"/>
<path opacity="0.51" d="M109.371 136.938C109.33 136.938 109.288 136.924 109.255 136.894C109.179 136.826 109.169 136.707 109.234 136.628C113.806 130.984 121.293 127.399 126.769 125.384C132.693 123.205 137.606 122.344 137.655 122.335C137.754 122.317 137.846 122.388 137.862 122.491C137.878 122.594 137.812 122.691 137.714 122.708C137.519 122.741 118.166 126.188 109.509 136.872C109.473 136.916 109.422 136.938 109.371 136.938Z" fill="white"/>
<path d="M63.4231 108.419L60.207 138.618H97.5196L92.6596 108.419H63.4231Z" fill="url(#paint1_linear_455_10651)"/>
<path d="M0.744873 34.0164V103.179C0.744873 108.869 5.0753 113.521 10.5078 113.668C34.6358 114.319 119.024 115.899 141.992 115.544C145.94 115.483 149.138 112.176 149.252 108.044C149.695 91.9767 150.414 53.3399 147.752 35.4024C147.191 31.625 144.146 28.8003 140.497 28.6781C120.28 28.001 30.8234 25.8509 7.86585 26.3907C3.90643 26.4837 0.744873 29.8699 0.744873 34.0164Z" fill="url(#paint2_linear_455_10651)"/>
<path d="M4.88989 33.6797V99.389C4.88989 102.711 7.43678 105.418 10.6092 105.467L138.688 107.124C141.833 107.173 144.411 104.524 144.423 101.23L144.637 36.1083C144.646 33.7535 142.854 31.824 140.605 31.7667L9.47653 28.9931C6.96163 28.929 4.88989 31.046 4.88989 33.6797Z" fill="#91B3FA"/>
<path opacity="0.65" d="M145.387 109.82C145.386 109.82 145.385 109.82 145.384 109.82L4.88672 107.313C4.78712 107.312 4.70775 107.226 4.7095 107.122C4.71146 107.017 4.80189 106.934 4.8927 106.936L145.39 109.442C145.49 109.444 145.569 109.53 145.567 109.634C145.565 109.737 145.485 109.82 145.387 109.82Z" fill="white"/>
<path opacity="0.65" d="M76.5244 112.881C75.619 112.881 74.8823 112.11 74.8823 111.162C74.8823 110.214 75.619 109.442 76.5244 109.442C77.4298 109.442 78.1665 110.214 78.1665 111.162C78.1665 112.11 77.4298 112.881 76.5244 112.881ZM76.5244 109.82C75.8176 109.82 75.2427 110.422 75.2427 111.162C75.2427 111.902 75.8177 112.504 76.5244 112.504C77.2311 112.504 77.8061 111.902 77.8061 111.162C77.8061 110.422 77.2311 109.82 76.5244 109.82Z" fill="white"/>
<path d="M98.4419 143.008C114.849 134.48 127.507 121.066 128.919 92.9971C128.919 92.9971 86.2149 107.924 98.4419 143.008Z" fill="#7D97F4"/>
<path opacity="0.51" d="M101.096 136.671C101.076 136.671 101.056 136.668 101.036 136.661C100.942 136.626 100.893 136.519 100.926 136.42C104.842 124.731 110.662 115.718 114.856 110.216C119.4 104.252 123.071 101.007 123.107 100.975C123.184 100.908 123.297 100.919 123.361 100.998C123.425 101.078 123.415 101.197 123.339 101.264C123.194 101.392 108.727 114.276 101.265 136.545C101.239 136.623 101.17 136.671 101.096 136.671Z" fill="white"/>
<path d="M105.557 144.796H50.9474C49.4638 144.796 48.3497 143.691 48.6365 142.503L49.3372 139.601C49.548 138.729 50.4648 138.088 51.5538 138.053L104.199 136.333C105.337 136.295 106.344 136.928 106.592 137.835L107.856 142.456C108.184 143.657 107.064 144.796 105.557 144.796Z" fill="url(#paint3_linear_455_10651)"/>
<path d="M80.345 138.841C80.2466 138.841 80.1662 138.758 80.1648 138.655C80.1634 138.551 80.243 138.465 80.3424 138.464L82.5983 138.429C82.5992 138.429 82.6001 138.429 82.601 138.429C82.6994 138.429 82.7798 138.512 82.7812 138.615C82.7826 138.719 82.703 138.805 82.6036 138.807L80.3476 138.841C80.3468 138.841 80.3459 138.841 80.345 138.841Z" fill="white"/>
<path d="M50.6584 143.199C50.649 143.199 50.6394 143.198 50.6299 143.197C50.5315 143.18 50.4646 143.084 50.4803 142.981L50.8022 140.871C50.9752 139.736 51.8977 138.899 52.9954 138.882L76.923 138.516C76.9239 138.516 76.9248 138.516 76.9257 138.516C77.0241 138.516 77.1045 138.599 77.1059 138.702C77.1073 138.806 77.0278 138.892 76.9283 138.893L53.0007 139.26C52.0784 139.274 51.3035 139.976 51.158 140.93L50.8362 143.04C50.822 143.133 50.7455 143.199 50.6584 143.199Z" fill="white"/>
<path d="M119.097 5.67651C119.914 5.71698 120.738 5.79531 121.546 5.909C121.657 5.92458 121.765 5.91433 121.866 5.88256C122.142 5.79536 122.359 5.54607 122.399 5.22704C122.455 4.7921 122.164 4.39191 121.748 4.33343C120.897 4.21374 120.029 4.13142 119.169 4.08879C118.75 4.06806 118.395 4.40666 118.375 4.84515C118.355 5.28342 118.678 5.65567 119.097 5.67651Z" fill="url(#paint4_linear_455_10651)"/>
<path d="M97.8301 12.886C97.5399 12.5691 97.0595 12.5583 96.7566 12.8622C96.1361 13.4849 95.5338 14.1434 94.9662 14.8187C94.6894 15.1484 94.72 15.6504 95.0348 15.9405C95.2393 16.1288 95.5133 16.1811 95.7562 16.1044C95.8872 16.063 96.0092 15.9843 96.1063 15.8687C96.6455 15.2269 97.2178 14.6016 97.8074 14.0098C98.11 13.7059 98.12 13.2027 97.8301 12.886Z" fill="url(#paint5_linear_455_10651)"/>
<path d="M88.521 30.8476C88.106 30.7889 87.7232 31.093 87.6664 31.528C87.5505 32.42 87.4703 33.328 87.4282 34.2266C87.4075 34.6651 87.7304 35.0379 88.149 35.0597C88.2382 35.0642 88.3248 35.0525 88.4056 35.0269C88.7043 34.9326 88.9283 34.6498 88.9445 34.3048C88.9846 33.4514 89.0608 32.5893 89.1709 31.7423C89.2274 31.3074 88.9364 30.9068 88.521 30.8476Z" fill="url(#paint6_linear_455_10651)"/>
<path d="M93.4659 18.0895C93.1158 17.8476 92.6449 17.949 92.4143 18.3156C91.9403 19.0678 91.492 19.8495 91.0819 20.6382C90.8813 21.0236 91.0172 21.5062 91.3856 21.7162C91.5712 21.822 91.7802 21.8384 91.9678 21.7791C92.1523 21.7208 92.3158 21.5894 92.4153 21.3981C92.8051 20.6485 93.2311 19.9056 93.6818 19.1907C93.9125 18.824 93.8158 18.3311 93.4659 18.0895Z" fill="url(#paint7_linear_455_10651)"/>
<path d="M112.667 6.11644C113.472 5.96571 114.292 5.84908 115.105 5.77047C115.156 5.76548 115.207 5.75483 115.255 5.73964C115.593 5.63277 115.824 5.28829 115.79 4.90568C115.752 4.46869 115.382 4.14705 114.964 4.18752C114.11 4.27045 113.246 4.39318 112.4 4.55173C111.986 4.62717 111.712 5.04211 111.786 5.47417C111.86 5.90606 112.254 6.19366 112.667 6.11644Z" fill="url(#paint8_linear_455_10651)"/>
<path d="M90.3098 24.1775C89.9173 24.0232 89.4797 24.2308 89.3317 24.641C89.0288 25.4832 88.7568 26.3497 88.5232 27.2162C88.4096 27.6386 88.6446 28.0778 89.048 28.1968C89.1923 28.2394 89.3387 28.2354 89.4725 28.1931C89.7126 28.1173 89.9115 27.919 89.9848 27.6477C90.2062 26.8242 90.4647 26.0012 90.7525 25.2015C90.9003 24.7907 90.702 24.3322 90.3098 24.1775Z" fill="url(#paint9_linear_455_10651)"/>
<path d="M88.2025 37.7645C87.7835 37.8057 87.4771 38.1907 87.5149 38.6279C87.5921 39.5215 87.7073 40.4249 87.8573 41.3127C87.9305 41.7449 88.3245 42.0333 88.7374 41.9568C88.7673 41.9512 88.7966 41.9439 88.8251 41.9349C89.1883 41.8202 89.4204 41.4366 89.3526 41.0358C89.2098 40.1921 89.1002 39.3339 89.0269 38.4844C88.9892 38.0475 88.6201 37.725 88.2025 37.7645Z" fill="url(#paint10_linear_455_10651)"/>
<path d="M100.648 11.4525C100.727 11.4277 100.803 11.3888 100.873 11.3358C101.535 10.8359 102.225 10.36 102.925 9.92166C103.285 9.69615 103.403 9.20805 103.187 8.83142C102.972 8.45452 102.507 8.33389 102.146 8.5574C101.409 9.01923 100.681 9.52031 99.9847 10.0468C99.6447 10.3036 99.5679 10.8003 99.8133 11.1564C100.008 11.4388 100.347 11.5477 100.648 11.4525Z" fill="url(#paint11_linear_455_10651)"/>
<path d="M106.41 8.06085C106.436 8.05275 106.461 8.04305 106.487 8.03208C107.238 7.70008 108.013 7.39762 108.79 7.13331C109.189 6.99794 109.408 6.54963 109.278 6.13199C109.15 5.71999 108.732 5.49199 108.337 5.61649C108.332 5.6181 108.327 5.61976 108.322 5.6217C107.503 5.89966 106.687 6.21796 105.897 6.56726C105.51 6.73817 105.329 7.20426 105.492 7.60877C105.644 7.9864 106.043 8.17665 106.41 8.06085Z" fill="url(#paint12_linear_455_10651)"/>
<path d="M90.3126 45.084C90.1855 44.6712 89.7631 44.4318 89.3683 44.5565C89.3635 44.558 89.3588 44.5595 89.354 44.561C88.9528 44.6877 88.739 45.1542 88.8677 45.5721C89.1323 46.4308 89.4415 47.3102 89.7735 48.138C89.9251 48.5165 90.3225 48.7008 90.6898 48.5848C90.715 48.5768 90.7366 48.5547 90.7614 48.5437C91.1481 48.3739 91.3307 47.9103 91.1684 47.5056C90.8533 46.7193 90.564 45.9 90.3126 45.084Z" fill="url(#paint13_linear_455_10651)"/>
<path d="M127.566 6.60785C127.696 6.1907 127.478 5.74206 127.079 5.60624C126.688 5.47276 126.287 5.34564 125.888 5.2284C125.485 5.10882 125.065 5.35562 124.952 5.77832C124.839 6.20073 125.074 6.63972 125.477 6.75841C125.857 6.87022 126.237 6.99085 126.61 7.11785C126.763 7.17001 126.92 7.16829 127.063 7.12311C127.293 7.05055 127.487 6.86523 127.566 6.60785Z" fill="url(#paint14_linear_455_10651)"/>
<path d="M114.902 65.8234C114.102 65.7413 113.296 65.6222 112.506 65.4699C112.094 65.3901 111.698 65.6755 111.622 66.1075C111.546 66.539 111.819 66.9534 112.231 67.033C113.063 67.1935 113.912 67.3188 114.754 67.4053C114.856 67.4156 114.955 67.4048 115.047 67.3757C115.333 67.2855 115.552 67.0221 115.583 66.6919C115.624 66.2553 115.319 65.8661 114.902 65.8234Z" fill="url(#paint15_linear_455_10651)"/>
<path d="M146.223 24.0043C146.388 24.3604 146.773 24.5292 147.124 24.4184C147.162 24.4064 147.2 24.3912 147.237 24.3723C147.614 24.1806 147.772 23.7052 147.589 23.3102C147.409 22.9221 147.218 22.5313 147.022 22.149C146.823 21.7625 146.365 21.6166 145.994 21.8251C145.624 22.0328 145.486 22.5147 145.684 22.9015C145.871 23.2645 146.052 23.6356 146.223 24.0043Z" fill="url(#paint16_linear_455_10651)"/>
<path d="M149.672 33.4516C149.256 33.4941 148.95 33.8825 148.99 34.3195C149.068 35.1574 149.112 36.0079 149.123 36.8478C149.128 37.2866 149.472 37.638 149.891 37.6324C149.964 37.6314 150.035 37.6198 150.101 37.5988C150.417 37.4991 150.645 37.1901 150.641 36.8276C150.63 35.9434 150.583 35.0479 150.501 34.1658C150.461 33.7289 150.09 33.4089 149.672 33.4516Z" fill="url(#paint17_linear_455_10651)"/>
<path d="M149.749 40.2685C149.334 40.2138 148.954 40.5226 148.902 40.958C148.802 41.7919 148.666 42.6322 148.498 43.4559C148.411 43.8852 148.673 44.3072 149.083 44.3985C149.212 44.4273 149.341 44.4197 149.459 44.3823C149.716 44.3013 149.924 44.0804 149.983 43.7866C150.16 42.9196 150.303 42.0346 150.408 41.1562C150.46 40.7207 150.166 40.3232 149.749 40.2685Z" fill="url(#paint18_linear_455_10651)"/>
<path d="M144.625 53.3723C144.194 54.0816 143.729 54.7814 143.243 55.4518C142.989 55.8014 143.054 56.2999 143.388 56.5655C143.589 56.7254 143.842 56.7642 144.067 56.6932C144.215 56.6464 144.351 56.5519 144.452 56.4131C144.964 55.7077 145.453 54.9714 145.906 54.2248C146.131 53.8542 146.026 53.3632 145.673 53.1277C145.318 52.892 144.849 53.0014 144.625 53.3723Z" fill="url(#paint19_linear_455_10651)"/>
<path d="M135.712 62.6926C135.032 63.1427 134.326 63.567 133.615 63.9539C133.243 64.1563 133.098 64.636 133.291 65.0258C133.462 65.3703 133.84 65.5287 134.183 65.4205C134.228 65.4064 134.272 65.388 134.315 65.3647C135.064 64.9571 135.807 64.5104 136.523 64.0365C136.878 63.802 136.983 63.311 136.759 62.9398C136.535 62.5688 136.067 62.4587 135.712 62.6926Z" fill="url(#paint20_linear_455_10651)"/>
<path d="M140.659 58.55C140.09 59.1455 139.491 59.7219 138.878 60.263C138.558 60.5461 138.517 61.0476 138.788 61.3831C138.989 61.633 139.306 61.7203 139.587 61.6315C139.684 61.6012 139.776 61.5501 139.857 61.4779C140.502 60.9081 141.133 60.3013 141.732 59.6742C142.029 59.364 142.029 58.861 141.733 58.5505C141.436 58.2398 140.956 58.2398 140.659 58.55Z" fill="url(#paint21_linear_455_10651)"/>
<path d="M148.391 46.9348C147.997 46.7854 147.562 46.9996 147.419 47.4122C147.147 48.2026 146.839 48.9914 146.503 49.7572C146.328 50.1562 146.495 50.6281 146.876 50.811C147.051 50.8951 147.241 50.9036 147.412 50.8496C147.613 50.7861 147.788 50.6357 147.883 50.4201C148.236 49.6143 148.56 48.7839 148.847 47.9523C148.99 47.5393 148.786 47.0839 148.391 46.9348Z" fill="url(#paint22_linear_455_10651)"/>
<path d="M123.841 67.1287C123.042 67.2324 122.23 67.3023 121.429 67.3357C121.01 67.3517 120.683 67.7227 120.7 68.1614C120.717 68.5997 121.07 68.9412 121.489 68.9238C122.333 68.8887 123.187 68.8154 124.028 68.706C124.071 68.7003 124.114 68.6908 124.154 68.678C124.502 68.5682 124.734 68.2093 124.687 67.8192C124.636 67.3838 124.257 67.0746 123.841 67.1287Z" fill="url(#paint23_linear_455_10651)"/>
<path d="M130.012 65.5953C129.26 65.8756 128.485 66.1265 127.7 66.3447C127.296 66.4553 127.053 66.8926 127.161 67.3169C127.269 67.7411 127.684 67.9938 128.089 67.8814C128.43 67.7869 128.767 67.6869 129.101 67.5812C129.579 67.4306 130.056 67.2663 130.522 67.0929C130.916 66.9458 131.123 66.4912 130.982 66.0774C130.841 65.6639 130.408 65.4487 130.012 65.5953Z" fill="url(#paint24_linear_455_10651)"/>
<path d="M149.136 27.328C149.006 26.9108 148.581 26.6727 148.18 26.8184C147.781 26.9541 147.563 27.4026 147.692 27.8202C147.758 28.0319 147.822 28.2451 147.884 28.4595C148.055 29.0516 148.21 29.6571 148.346 30.2602C148.443 30.6873 148.852 30.9518 149.259 30.8509C149.275 30.847 149.29 30.8429 149.305 30.8382C149.686 30.7178 149.917 30.3058 149.824 29.8948C149.681 29.2606 149.517 28.6232 149.338 28.0005C149.273 27.7748 149.206 27.5509 149.136 27.328Z" fill="url(#paint25_linear_455_10651)"/>
<path d="M108.682 64.4414C108.312 64.3129 107.936 64.1738 107.567 64.0281C107.175 63.8728 106.737 64.0804 106.589 64.491C106.441 64.9017 106.639 65.3602 107.031 65.5153C107.42 65.6688 107.815 65.8153 108.205 65.9505C108.359 66.0037 108.517 66.0025 108.662 65.9569C108.891 65.8847 109.083 65.701 109.164 65.4455C109.296 65.0287 109.08 64.5791 108.682 64.4414Z" fill="url(#paint26_linear_455_10651)"/>
<path d="M142.588 29.2065L138.315 28.5757C137.498 26.6701 136.406 24.9456 135.105 23.439L129.589 24.5488L125.374 29.3338L129.095 37.7695L119.677 37.4399L114.173 41.7312L114.92 49.304L109.131 48.1288L107.16 50.1751L106.048 54.5287C106.009 54.6818 106.067 54.844 106.193 54.9327L110.487 57.9652C110.612 58.0537 110.778 58.0492 110.899 57.954L114.348 55.2346C116.233 55.985 118.246 56.426 120.32 56.5088L122.479 60.4206C122.555 60.5578 122.706 60.6295 122.854 60.5993L127.939 59.5646C128.087 59.5343 128.201 59.4086 128.222 59.2518L128.825 54.7779C130.718 53.8876 132.427 52.6893 133.906 51.2542L138.077 52.4224C138.224 52.4633 138.378 52.4026 138.463 52.2713L141.36 47.7754C141.444 47.6439 141.44 47.4707 141.349 47.3442L138.752 43.7323C139.468 41.7588 139.89 39.6513 139.969 37.4801L143.705 35.2192C143.836 35.1399 143.905 34.9823 143.876 34.8268L142.887 29.5033C142.858 29.3478 142.738 29.2286 142.588 29.2065Z" fill="url(#paint27_linear_455_10651)"/>
<path d="M122.755 40.4914C120.927 41.3911 118.776 40.7051 117.709 38.9771L116.734 39.7382C118 41.721 120.374 42.6183 122.557 41.929C122.798 41.853 123.037 41.7575 123.271 41.6423C124.852 40.8646 125.884 39.3558 126.176 37.681L124.944 37.6353C124.68 38.8461 123.909 39.9236 122.755 40.4914Z" fill="url(#paint28_linear_455_10651)"/>
<path d="M133.361 32.7111C132.547 29.886 130.878 27.4459 128.564 25.7134L128.148 26.1846C130.385 27.8377 131.997 30.1799 132.78 32.896C132.9 33.3128 133.001 33.7385 133.081 34.1716C133.54 36.6417 133.282 39.0868 132.46 41.2704C130.982 45.1965 127.68 48.2783 123.438 49.141C122.584 49.315 121.713 49.394 120.851 49.3756C120.683 49.3724 120.544 49.5113 120.541 49.6868C120.54 49.7211 120.545 49.7544 120.554 49.7856C120.591 49.9139 120.703 50.0084 120.838 50.0112C120.89 50.0121 120.941 49.9832 120.992 49.9835C121.019 49.9839 121.045 49.9542 121.071 49.9542C121.081 49.9542 121.09 49.9542 121.099 49.9542C121.781 49.9542 122.466 49.9261 123.143 49.8118C123.28 49.7886 123.417 49.7781 123.554 49.7503C123.987 49.662 124.414 49.5588 124.831 49.4271C127.644 48.5388 130.059 46.6839 131.724 44.0993C133.636 41.1312 134.33 37.5629 133.678 34.0482C133.593 33.5936 133.487 33.1486 133.361 32.7111Z" fill="url(#paint29_linear_455_10651)"/>
<path d="M110.508 45.8622L109.796 38.6468L115.301 34.3555L124.477 34.6766C124.588 34.6805 124.664 34.5603 124.617 34.4546L120.998 26.2494L125.213 21.4643L130.729 20.3545C130.677 20.2941 130.626 20.2316 130.573 20.1718L131.689 15.804C131.728 15.651 131.67 15.4889 131.545 15.4003L127.251 12.3678C127.125 12.2791 126.96 12.2836 126.839 12.3789L123.389 15.0983C121.504 14.3479 119.491 13.9068 117.417 13.8241L115.258 9.91217C115.182 9.77497 115.032 9.70319 114.883 9.7334L109.799 10.7683C109.65 10.7985 109.536 10.9241 109.515 11.0811L108.913 15.555C107.019 16.4451 105.311 17.6435 103.832 19.0786L99.6601 17.9105C99.5139 17.8694 99.3589 17.9302 99.2742 18.0616L96.3778 22.5575C96.2932 22.6889 96.2975 22.862 96.3885 22.9885L98.9858 26.6005C98.269 28.574 97.8478 30.6815 97.7689 32.8527L94.0325 35.1136C93.9014 35.1928 93.8329 35.3504 93.8618 35.5059L94.8502 40.8294C94.8791 40.985 94.9991 41.1043 95.149 41.1264L99.4222 41.7571C100.272 43.7392 101.417 45.5279 102.788 47.0766L102.784 47.0905L104.755 45.0442L110.207 46.1511C110.374 46.1852 110.526 46.04 110.508 45.8622Z" fill="url(#paint30_linear_455_10651)"/>
<path d="M113.333 35.8929C113.236 35.7366 113.145 35.575 113.068 35.4019C112.132 33.3164 112.991 30.8218 114.983 29.8419C115.164 29.753 115.348 29.6792 115.536 29.6199C116.351 29.3626 117.22 29.3852 118.035 29.693C119.038 30.0717 119.84 30.8366 120.294 31.8472C120.687 32.7242 120.76 33.6725 120.568 34.5511L121.8 34.5969C121.989 33.5186 121.871 32.3717 121.393 31.3062C120.802 29.9884 119.755 28.9905 118.447 28.4967C117.139 28.0027 115.725 28.0714 114.467 28.691C111.868 29.9694 110.748 33.2223 111.969 35.943C112.082 36.1947 112.215 36.4296 112.358 36.6541L113.333 35.8929Z" fill="url(#paint31_linear_455_10651)"/>
<path d="M123.893 22.4114C121.058 20.4093 117.648 19.6828 114.291 20.366C107.364 21.776 102.82 28.8258 104.167 36.0811C104.251 36.5283 104.355 36.9694 104.48 37.4028C105.021 39.2809 105.949 41.0142 107.203 42.4748C107.315 42.6059 107.507 42.6158 107.632 42.4988C107.722 42.4138 107.753 42.2847 107.72 42.1705C107.707 42.1271 107.686 42.0859 107.655 42.0499C106.461 40.6588 105.577 39.0078 105.061 37.2188C104.942 36.8061 104.843 36.3857 104.764 35.9596C103.481 29.0493 107.804 22.335 114.407 20.9903C117.605 20.3395 120.853 21.0314 123.553 22.9385C123.628 22.9909 123.699 23.0461 123.772 23.1L124.187 22.6287C124.09 22.5557 123.993 22.4819 123.893 22.4114Z" fill="url(#paint32_linear_455_10651)"/>
<path d="M34.1431 33.1626C39.9742 27.0575 39.9742 17.1593 34.1431 11.0542C28.312 4.94921 18.858 4.94921 13.0269 11.0542C7.19579 17.1593 7.19579 27.0575 13.0269 33.1625C18.858 39.2676 28.312 39.2676 34.1431 33.1626Z" fill="white"/>
<path d="M23.5857 37.2212C31.558 37.2212 38.0209 30.4547 38.0209 22.1079C38.0209 13.7611 31.558 6.99463 23.5857 6.99463C15.6135 6.99463 9.15063 13.7611 9.15063 22.1079C9.15063 30.4547 15.6135 37.2212 23.5857 37.2212Z" fill="url(#paint33_linear_455_10651)"/>
<path opacity="0.7" d="M35.4887 15.9896C35.5118 15.9896 35.5352 15.9842 35.5573 15.9725C35.6325 15.9327 35.6627 15.8366 35.6247 15.758C33.3167 10.9709 28.7037 7.99707 23.5855 7.99707C22.7693 7.99707 21.9513 8.07407 21.1543 8.22629C21.0714 8.24204 21.0165 8.32513 21.0315 8.412C21.0466 8.49887 21.1257 8.55685 21.209 8.54033C21.988 8.39171 22.7876 8.31643 23.5855 8.31643C28.5879 8.31643 33.0967 11.2231 35.3524 15.9018C35.3792 15.9575 35.4329 15.9896 35.4887 15.9896Z" fill="white"/>
<path d="M31.9095 31.4829C36.6807 26.4875 36.6807 18.3884 31.9095 13.3931C27.1383 8.39774 19.4027 8.39774 14.6315 13.3931C9.86026 18.3885 9.86026 26.4875 14.6315 31.4829C19.4027 36.4782 27.1383 36.4782 31.9095 31.4829Z" fill="white"/>
<path d="M24.0273 24.9251L22.6446 24.8906C22.2592 24.8809 21.9404 24.5359 21.9203 24.1298L21.4141 13.931C21.4036 13.7208 21.4758 13.5475 21.6136 13.4053C21.7512 13.2633 21.9421 13.2175 22.1415 13.2321L24.5227 13.4057C24.7178 13.4199 24.9041 13.4877 25.038 13.6474C25.1718 13.8068 25.2418 13.9981 25.2317 14.2036L24.7392 24.2166C24.7195 24.6169 24.4071 24.9346 24.0273 24.9251Z" fill="url(#paint34_linear_455_10651)"/>
<path d="M21.8935 27.4158C22.2387 27.0706 22.7245 26.9036 23.3491 26.914C23.993 26.9248 24.4811 27.1025 24.8152 27.4465C25.1485 27.7895 25.3148 28.2908 25.3148 28.951C25.3148 29.5876 25.1449 30.0801 24.8041 30.4293C24.4625 30.7796 23.978 30.9551 23.349 30.9551C22.7319 30.9551 22.2481 30.774 21.8991 30.411C21.5491 30.0471 21.3738 29.5491 21.3738 28.9181C21.3738 28.263 21.5473 27.762 21.8935 27.4158Z" fill="url(#paint35_linear_455_10651)"/>
<path d="M78.0922 15.2988L39.5473 83.1059C38.7011 84.5945 39.8072 86.416 41.5667 86.4311L117.974 87.0894C119.74 87.1046 120.879 85.2905 120.048 83.787L82.1852 15.3215C81.3148 13.7476 78.9814 13.7346 78.0922 15.2988Z" fill="url(#paint36_linear_455_10651)"/>
<path d="M78.2871 19.3495L43.2807 80.9317C42.5122 82.2838 43.5167 83.9379 45.1146 83.9517L114.508 84.5496C116.112 84.5634 117.146 82.9157 116.391 81.5502L82.0043 19.3701C81.2137 17.9407 79.0946 17.9289 78.2871 19.3495Z" fill="url(#paint37_linear_455_10651)"/>
<path d="M65.5529 65.2935L61 65.4463V56.9303L65.5529 56.8237V58.2952L62.6821 58.3675V60.2335L65.3538 60.1603V61.6321L62.6821 61.7101V63.9017L65.5529 63.8105V65.2935Z" fill="url(#paint38_linear_455_10651)"/>
<path d="M69.1204 61.9377V65.1738L67.4641 65.2294V56.779L69.7384 56.7258C70.7947 56.701 71.5746 56.8908 72.0797 57.2947C72.584 57.6981 72.836 58.3226 72.836 59.1686C72.836 59.6624 72.7109 60.1052 72.4607 60.497C72.2102 60.8891 71.8555 61.201 71.3961 61.433C72.5612 63.2871 73.3184 64.4819 73.67 65.0211L71.852 65.0821L69.9992 61.9116L69.1204 61.9377ZM69.1204 60.4841L69.6532 60.4692C70.1747 60.4547 70.5593 60.3498 70.8071 60.155C71.0549 59.9601 71.1788 59.6614 71.1788 59.2585C71.1788 58.8596 71.0522 58.5789 70.7991 58.4166C70.5459 58.2541 70.1535 58.1795 69.6212 58.1929L69.1204 58.2055L69.1204 60.4841Z" fill="url(#paint39_linear_455_10651)"/>
<path d="M76.5353 61.7171V64.9244L74.9084 64.979V56.6042L77.1424 56.5519C78.18 56.5276 78.946 56.7159 79.4421 57.1162C79.9375 57.5161 80.185 58.1351 80.185 58.9737C80.185 59.4631 80.0622 59.9019 79.8164 60.2902C79.5703 60.6787 79.2218 60.9878 78.7707 61.2176C79.9151 63.0556 80.6589 64.2399 81.0044 64.7744L79.2185 64.8343L77.3986 61.6915L76.5353 61.7171ZM76.5353 60.2766L77.0586 60.2619C77.5709 60.2476 77.9487 60.1437 78.1922 59.9507C78.4355 59.7576 78.5572 59.4616 78.5572 59.0623C78.5572 58.667 78.4328 58.3887 78.1843 58.2279C77.9356 58.0667 77.5501 57.9926 77.0273 58.0058L76.5353 58.0183V60.2766Z" fill="url(#paint40_linear_455_10651)"/>
<path d="M89.0183 60.3787C89.0183 61.7413 88.7134 62.7981 88.1029 63.5501C87.4915 64.3033 86.6136 64.6994 85.4674 64.738C84.318 64.7767 83.4331 64.4382 82.8146 63.7211C82.1953 63.0031 81.8853 61.9526 81.8853 60.5705C81.8853 59.1884 82.1961 58.1249 82.8172 57.381C83.4373 56.6381 84.3247 56.2538 85.4776 56.227C86.6272 56.2003 87.5043 56.5447 88.1106 57.2593C88.7159 57.9729 89.0183 59.0125 89.0183 60.3787ZM83.5618 60.5341C83.5618 61.46 83.7215 62.1523 84.0404 62.6108C84.359 63.069 84.8348 63.2878 85.4674 63.2677C86.7328 63.2273 87.3641 62.2802 87.3641 60.4259C87.3641 58.5678 86.7363 57.6544 85.4776 57.686C84.8452 57.7018 84.3675 57.9489 84.0455 58.4271C83.7231 58.9059 83.5618 59.6082 83.5618 60.5341Z" fill="url(#paint41_linear_455_10651)"/>
<path d="M92.3783 61.2473V64.3929L90.8135 64.4454V56.232L92.9622 56.1817C93.9604 56.1583 94.6973 56.3433 95.1746 56.7362C95.6512 57.1287 95.8893 57.7359 95.8893 58.5584C95.8893 59.0385 95.7711 59.4688 95.5347 59.8495C95.2979 60.2305 94.9627 60.5334 94.5286 60.7585C95.6296 62.562 96.3452 63.724 96.6775 64.2486L94.9594 64.3062L93.2086 61.2226L92.3783 61.2473ZM92.3783 59.8344L92.8817 59.8204C93.3744 59.8067 93.7378 59.705 93.972 59.5158C94.2061 59.3265 94.3232 59.0362 94.3232 58.6446C94.3232 58.2568 94.2035 57.9839 93.9644 57.826C93.7252 57.6679 93.3544 57.595 92.8514 57.6077L92.3782 57.6196L92.3783 59.8344Z" fill="url(#paint42_linear_455_10651)"/>
<path d="M32.4751 149.268C32.4751 149.268 32.0915 151.542 31.9034 153.792C31.8299 154.672 32.4776 155.436 33.3203 155.473C36.183 155.597 42.3067 155.84 44.5041 155.738C44.8344 155.722 45.0504 155.368 44.9281 155.046C44.8257 154.777 44.6281 154.559 44.3764 154.438L34.2613 149.57L32.4751 149.268Z" fill="url(#paint43_linear_455_10651)"/>
<path d="M32.1611 147.933L32.4693 150.652C32.4693 150.652 34.2412 151.516 35.4513 150.543L34.7175 147.513L32.1611 147.933Z" fill="url(#paint44_linear_455_10651)"/>
<path d="M32.3925 96.8022C32.2594 97.5125 31.678 132.244 35.2239 147.808C35.2818 148.062 35.1588 148.324 34.9279 148.423C34.3841 148.655 33.3179 148.992 32.0401 149.037C31.6444 149.051 31.2896 148.782 31.1779 148.384C30.1643 144.773 25.3074 126.68 24.6738 109.396C23.9658 90.0835 24.6738 108.739 24.6738 108.739L25.089 96.8008L32.3925 96.8022Z" fill="url(#paint45_linear_455_10651)"/>
<path d="M20.8397 150.455C20.8397 150.455 20.229 151.602 19.6379 154.653C19.5311 155.203 19.8987 155.731 20.433 155.786C21.3783 155.883 22.8335 156.008 23.9992 156C24.5366 155.996 24.956 155.506 24.8912 154.947C24.7621 153.834 24.3598 152.007 23.1171 150.584L20.8397 150.455Z" fill="url(#paint46_linear_455_10651)"/>
<path d="M20.3032 146.957L21.0234 151.07C21.0234 151.07 21.7354 151.624 23.144 151.222L22.8002 146.797L20.3032 146.957Z" fill="url(#paint47_linear_455_10651)"/>
<path d="M18.3579 97.8685C15.4578 116.193 18.987 143.159 20.1772 148.437C20.2501 148.76 20.4992 149.008 20.812 149.062C21.3433 149.154 22.218 149.23 23.0803 148.967C23.3775 148.877 23.5862 148.596 23.5983 148.273C23.758 144.006 23.4706 117.81 26.1728 107.458C26.3097 106.933 26.6158 106.475 27.0392 106.16L32.284 102.256L32.6861 95.9463L18.3579 97.8685Z" fill="url(#paint48_linear_455_10651)"/>
<path d="M44.1777 71.7469C43.7368 75.0296 43.2714 75.7839 42.9099 75.8035C41.7589 75.8657 41.9909 68.4645 37.7816 64.7207C35.1227 62.356 31.4911 62.1613 28.6418 62.4371C29.9713 67.429 31.3007 72.4209 32.6301 77.4128C33.2107 78.9043 35.7419 84.9365 41.4688 86.7673C42.6348 87.14 44.37 87.6947 45.9842 86.9684C49.17 85.5349 50.664 79.6598 49.2395 72.3032C48.5698 72.0429 47.6429 71.7654 44.1777 71.7469Z" fill="url(#paint49_linear_455_10651)"/>
<path d="M43.1628 58.9458L43.6899 62.0656C44.5366 65.8813 44.6172 69.0618 44.1777 71.7473C44.9053 71.7787 45.6689 71.8324 46.4646 71.9145C47.4459 72.0158 48.3724 72.1497 49.2396 72.3036C48.7816 68.4229 46.3152 61.9789 46.3152 61.9789C44.8275 59.7308 44.6504 61.1938 43.1628 58.9458Z" fill="url(#paint50_linear_455_10651)"/>
<path d="M49.1878 52.3723C48.5908 52.3558 48.0191 52.6244 47.6338 53.1023L43.8744 57.7661C43.8744 57.7661 43.1902 57.6198 43.1261 56.248C43.062 54.8761 41.6702 54.711 41.6702 54.711C41.6702 54.711 41.8708 56.6242 42.253 59.4558C42.4715 61.0751 43.3858 62.257 44.1287 62.973L46.3035 62.1893C48.2985 59.2037 49.5369 55.913 50.2252 52.4008L49.1878 52.3723Z" fill="url(#paint51_linear_455_10651)"/>
<path d="M13.7568 65.0605C14.0074 64.9917 15.7197 63.1394 15.9771 63.0881C20.1974 62.2459 30.7313 59.2756 37.7817 64.7212C37.7993 64.8784 37.8105 65.0039 37.8174 65.1079C37.8858 65.2051 37.9795 65.3682 38.1081 65.6291C38.7739 66.9802 39.5729 68.2931 40.4876 69.5197C40.2863 69.7287 40.1191 69.9741 39.9973 70.2475C38.3032 74.0471 31.8811 89.2208 33.0098 98.4999C33.068 98.9791 32.7566 99.4206 32.2995 99.4868C29.8066 99.8477 22.3823 100.728 18.5467 99.0697C18.3235 98.9732 18.1807 98.744 18.1842 98.4912C18.2094 96.6294 18.1342 88.5494 15.3049 78.8097C15.1994 78.4467 15.1135 78.078 15.0446 77.7057C15.0097 77.7807 14.977 77.8549 14.9432 77.9294L13.7568 65.0605Z" fill="url(#paint52_linear_455_10651)"/>
<path d="M20.1973 62.2461C12.327 62.8486 10.6823 67.5574 5.24316 64.6784L6.20628 73.4963C8.22316 75.8284 11.2682 77.4165 15.1053 78.0118L20.1973 62.2461Z" fill="url(#paint53_linear_455_10651)"/>
<path d="M25.575 54.271C24.2265 57.0856 23.6635 59.9521 23.4946 62.621C23.7847 62.7342 27.6553 65.5453 30.2461 62.8242C29.6923 60.9567 29.7839 58.1452 29.9248 55.2615L25.575 54.271Z" fill="url(#paint54_linear_455_10651)"/>
<path d="M32.5967 46.8713C32.6708 46.9969 34.6051 56.5477 34.6051 56.5477L29.373 57.5881L26.2551 48.8211C26.2551 48.8211 31.3554 44.7684 32.5967 46.8713Z" fill="url(#paint55_linear_455_10651)"/>
<path d="M28.2523 49.6005C28.1123 49.8012 28.0687 50.0567 28.1338 50.2956L29.4112 54.9766C29.4306 55.0476 29.4582 55.1146 29.4956 55.1773C29.7019 55.5225 30.4433 56.5663 31.4426 55.7092C32.2944 54.9787 33.0868 54.3197 33.7971 54.1556C34.2119 54.0597 34.6193 54.3437 34.7059 54.7791C34.8841 55.6758 35.209 57.4931 35.281 59.15C35.2991 59.5652 35.0052 59.9231 34.6111 59.9741C33.5712 60.1085 31.533 60.3075 29.8271 60.0832C29.5468 60.0464 29.3099 59.8519 29.2081 59.576C28.7604 58.3622 27.4924 54.9651 26.9935 54.0638C26.53 53.2264 25.2988 53.1474 24.7323 53.158C24.5172 53.162 24.312 53.0733 24.1628 52.9111C23.7153 52.4247 22.9987 51.3251 24.2142 50.1453C24.5164 49.852 24.5288 49.3518 24.2549 49.0293C23.7642 48.4517 23.3149 47.4998 24.2505 46.4253C25.1976 45.3376 26.3403 45.537 27.0739 45.847C27.3985 45.9842 27.7864 45.8957 27.999 45.6045C28.0935 45.475 28.2386 45.3827 28.4608 45.3971C28.8799 45.4243 29.2384 45.117 29.2671 44.6783C29.3164 43.9262 29.655 43.0262 30.9054 42.7049C33.1989 42.1156 34.4694 44.4819 34.5092 46.1895C34.5489 47.897 32.0277 48.3878 30.5742 48.1797C29.5066 48.0269 28.6381 49.0478 28.2523 49.6005Z" fill="url(#paint56_linear_455_10651)"/>
<path d="M27.7775 55.8397C27.7775 55.8397 27.2906 52.8161 26.1274 52.5966C24.9641 52.377 23.7647 53.3121 24.833 55.042C26.1617 57.1937 27.7775 55.8397 27.7775 55.8397Z" fill="url(#paint57_linear_455_10651)"/>
<path d="M25.8588 44.9619C26.0617 44.9532 26.282 44.9734 26.5249 45.0273C27.0779 45.1499 27.8147 45.4476 27.6228 46.0045C27.3346 46.8408 25.8395 46.0594 25.0434 47.4078C24.342 48.596 24.9161 49.8864 24.7014 51.1669C24.597 51.7898 24.2147 52.7147 23.6832 53.0785C23.4455 53.2413 21.5684 53.5525 21.4658 53.2038C21.4658 53.2038 20.9442 51.4315 20.944 51.4309C20.4747 49.8363 22.2778 47.1793 23.2078 46.1051C23.9263 45.2752 24.9 45.003 25.8588 44.9619Z" fill="url(#paint58_linear_455_10651)"/>
<path d="M24.0797 51.3619L22.2842 52.9268C18.8411 54.4599 16.3396 56.2666 14.5268 58.2213C13.8704 56.9285 12.8078 55.4341 11.1138 54.2682C14.5844 52.4784 17.168 51.7348 17.168 51.7348C24.1722 48.7856 24.0797 51.3619 24.0797 51.3619Z" fill="url(#paint59_linear_455_10651)"/>
<path d="M14.5267 58.2216C8.8662 64.3248 10.5203 61.2234 10.4753 66.4255C10.4585 68.365 8.85084 75.7709 8.85084 75.7709C-8.46054 67.9411 5.98617 57.2536 11.1137 54.2686C12.8077 55.4345 13.8703 56.9289 14.5267 58.2216Z" fill="url(#paint60_linear_455_10651)"/>
<defs>
<linearGradient id="paint0_linear_455_10651" x1="168.31" y1="202.007" x2="28.1387" y2="35.7346" gradientUnits="userSpaceOnUse">
<stop stop-color="#DAE3FE"/>
<stop offset="1" stop-color="#E9EFFD"/>
</linearGradient>
<linearGradient id="paint1_linear_455_10651" x1="86.468" y1="110.09" x2="114.431" y2="52.9641" gradientUnits="userSpaceOnUse">
<stop stop-color="#09005D"/>
<stop offset="1" stop-color="#1A0F91"/>
</linearGradient>
<linearGradient id="paint2_linear_455_10651" x1="75.2152" y1="5.1681" x2="75.2152" y2="66.6751" gradientUnits="userSpaceOnUse">
<stop stop-color="#09005D"/>
<stop offset="1" stop-color="#1A0F91"/>
</linearGradient>
<linearGradient id="paint3_linear_455_10651" x1="91.5806" y1="210.976" x2="81.742" y2="165.118" gradientUnits="userSpaceOnUse">
<stop stop-color="#09005D"/>
<stop offset="1" stop-color="#1A0F91"/>
</linearGradient>
<linearGradient id="paint4_linear_455_10651" x1="122.167" y1="-15.9357" x2="112.301" y2="90.1096" gradientUnits="userSpaceOnUse">
<stop stop-color="#4042E2"/>
<stop offset="1" stop-color="#4F52FF"/>
</linearGradient>
<linearGradient id="paint5_linear_455_10651" x1="99.1647" y1="-18.076" x2="89.2984" y2="87.9666" gradientUnits="userSpaceOnUse">
<stop stop-color="#4042E2"/>
<stop offset="1" stop-color="#4F52FF"/>
</linearGradient>
<linearGradient id="paint6_linear_455_10651" x1="92.6735" y1="-18.6804" x2="82.807" y2="87.3634" gradientUnits="userSpaceOnUse">
<stop stop-color="#4042E2"/>
<stop offset="1" stop-color="#4F52FF"/>
</linearGradient>
<linearGradient id="paint7_linear_455_10651" x1="95.6482" y1="-18.4038" x2="85.7818" y2="87.6394" gradientUnits="userSpaceOnUse">
<stop stop-color="#4042E2"/>
<stop offset="1" stop-color="#4F52FF"/>
</linearGradient>
<linearGradient id="paint8_linear_455_10651" x1="115.626" y1="-16.5442" x2="105.76" y2="89.4972" gradientUnits="userSpaceOnUse">
<stop stop-color="#4042E2"/>
<stop offset="1" stop-color="#4F52FF"/>
</linearGradient>
<linearGradient id="paint9_linear_455_10651" x1="93.4493" y1="-18.6079" x2="83.5829" y2="87.4355" gradientUnits="userSpaceOnUse">
<stop stop-color="#4042E2"/>
<stop offset="1" stop-color="#4F52FF"/>
</linearGradient>
<linearGradient id="paint10_linear_455_10651" x1="93.4016" y1="-18.6128" x2="83.5351" y2="87.4311" gradientUnits="userSpaceOnUse">
<stop stop-color="#4042E2"/>
<stop offset="1" stop-color="#4F52FF"/>
</linearGradient>
<linearGradient id="paint11_linear_455_10651" x1="103.826" y1="-17.642" x2="93.9593" y2="88.4005" gradientUnits="userSpaceOnUse">
<stop stop-color="#4042E2"/>
<stop offset="1" stop-color="#4F52FF"/>
</linearGradient>
<linearGradient id="paint12_linear_455_10651" x1="109.408" y1="-17.1227" x2="99.5414" y2="88.9192" gradientUnits="userSpaceOnUse">
<stop stop-color="#4042E2"/>
<stop offset="1" stop-color="#4F52FF"/>
</linearGradient>
<linearGradient id="paint13_linear_455_10651" x1="95.5445" y1="-18.414" x2="85.678" y2="87.6303" gradientUnits="userSpaceOnUse">
<stop stop-color="#4042E2"/>
<stop offset="1" stop-color="#4F52FF"/>
</linearGradient>
<linearGradient id="paint14_linear_455_10651" x1="128.094" y1="-15.3841" x2="118.227" y2="90.6611" gradientUnits="userSpaceOnUse">
<stop stop-color="#4042E2"/>
<stop offset="1" stop-color="#4F52FF"/>
</linearGradient>
<linearGradient id="paint15_linear_455_10651" x1="120.602" y1="-16.0836" x2="110.735" y2="89.9634" gradientUnits="userSpaceOnUse">
<stop stop-color="#4042E2"/>
<stop offset="1" stop-color="#4F52FF"/>
</linearGradient>
<linearGradient id="paint16_linear_455_10651" x1="149.627" y1="-12.2289" x2="139.761" y2="93.8151" gradientUnits="userSpaceOnUse">
<stop stop-color="#4042E2"/>
<stop offset="1" stop-color="#4F52FF"/>
</linearGradient>
<linearGradient id="paint17_linear_455_10651" x1="153.835" y1="-11.8377" x2="143.968" y2="94.2062" gradientUnits="userSpaceOnUse">
<stop stop-color="#4042E2"/>
<stop offset="1" stop-color="#4F52FF"/>
</linearGradient>
<linearGradient id="paint18_linear_455_10651" x1="154.045" y1="-11.8177" x2="144.178" y2="94.2257" gradientUnits="userSpaceOnUse">
<stop stop-color="#4042E2"/>
<stop offset="1" stop-color="#4F52FF"/>
</linearGradient>
<linearGradient id="paint19_linear_455_10651" x1="150.246" y1="-12.1711" x2="140.38" y2="93.8718" gradientUnits="userSpaceOnUse">
<stop stop-color="#4042E2"/>
<stop offset="1" stop-color="#4F52FF"/>
</linearGradient>
<linearGradient id="paint20_linear_455_10651" x1="141.576" y1="-12.9772" x2="131.71" y2="93.065" gradientUnits="userSpaceOnUse">
<stop stop-color="#4042E2"/>
<stop offset="1" stop-color="#4F52FF"/>
</linearGradient>
<linearGradient id="paint21_linear_455_10651" x1="146.437" y1="-12.5257" x2="136.571" y2="93.5168" gradientUnits="userSpaceOnUse">
<stop stop-color="#4042E2"/>
<stop offset="1" stop-color="#4F52FF"/>
</linearGradient>
<linearGradient id="paint22_linear_455_10651" x1="152.825" y1="-11.9314" x2="142.959" y2="94.1121" gradientUnits="userSpaceOnUse">
<stop stop-color="#4042E2"/>
<stop offset="1" stop-color="#4F52FF"/>
</linearGradient>
<linearGradient id="paint23_linear_455_10651" x1="129.666" y1="-14.0843" x2="119.799" y2="91.9568" gradientUnits="userSpaceOnUse">
<stop stop-color="#4042E2"/>
<stop offset="1" stop-color="#4F52FF"/>
</linearGradient>
<linearGradient id="paint24_linear_455_10651" x1="135.891" y1="-13.506" x2="126.025" y2="92.5358" gradientUnits="userSpaceOnUse">
<stop stop-color="#4042E2"/>
<stop offset="1" stop-color="#4F52FF"/>
</linearGradient>
<linearGradient id="paint25_linear_455_10651" x1="152.214" y1="-11.9887" x2="142.347" y2="94.0556" gradientUnits="userSpaceOnUse">
<stop stop-color="#4042E2"/>
<stop offset="1" stop-color="#4F52FF"/>
</linearGradient>
<linearGradient id="paint26_linear_455_10651" x1="114.798" y1="-16.6227" x2="104.931" y2="89.4225" gradientUnits="userSpaceOnUse">
<stop stop-color="#4042E2"/>
<stop offset="1" stop-color="#4F52FF"/>
</linearGradient>
<linearGradient id="paint27_linear_455_10651" x1="76.0371" y1="205.565" x2="93.0361" y2="155.216" gradientUnits="userSpaceOnUse">
<stop stop-color="#09005D"/>
<stop offset="1" stop-color="#1A0F91"/>
</linearGradient>
<linearGradient id="paint28_linear_455_10651" x1="116.734" y1="39.8972" x2="126.177" y2="39.8972" gradientUnits="userSpaceOnUse">
<stop stop-color="#4042E2"/>
<stop offset="1" stop-color="#4F52FF"/>
</linearGradient>
<linearGradient id="paint29_linear_455_10651" x1="120.541" y1="37.8623" x2="133.917" y2="37.8623" gradientUnits="userSpaceOnUse">
<stop stop-color="#4042E2"/>
<stop offset="1" stop-color="#4F52FF"/>
</linearGradient>
<linearGradient id="paint30_linear_455_10651" x1="58.648" y1="199.695" x2="75.6472" y2="149.345" gradientUnits="userSpaceOnUse">
<stop stop-color="#09005D"/>
<stop offset="1" stop-color="#1A0F91"/>
</linearGradient>
<linearGradient id="paint31_linear_455_10651" x1="111.475" y1="32.4122" x2="121.886" y2="32.4122" gradientUnits="userSpaceOnUse">
<stop stop-color="#4042E2"/>
<stop offset="1" stop-color="#4F52FF"/>
</linearGradient>
<linearGradient id="paint32_linear_455_10651" x1="103.931" y1="31.348" x2="124.187" y2="31.348" gradientUnits="userSpaceOnUse">
<stop stop-color="#4042E2"/>
<stop offset="1" stop-color="#4F52FF"/>
</linearGradient>
<linearGradient id="paint33_linear_455_10651" x1="32.9134" y1="-15.8888" x2="18.1608" y2="38.9345" gradientUnits="userSpaceOnUse">
<stop stop-color="#FE7062"/>
<stop offset="1" stop-color="#FF928E"/>
</linearGradient>
<linearGradient id="paint34_linear_455_10651" x1="71.4327" y1="-42.1549" x2="49.1494" y2="-16.4241" gradientUnits="userSpaceOnUse">
<stop stop-color="#E1473D"/>
<stop offset="1" stop-color="#E9605A"/>
</linearGradient>
<linearGradient id="paint35_linear_455_10651" x1="76.224" y1="-38.0057" x2="53.9407" y2="-12.275" gradientUnits="userSpaceOnUse">
<stop stop-color="#E1473D"/>
<stop offset="1" stop-color="#E9605A"/>
</linearGradient>
<linearGradient id="paint36_linear_455_10651" x1="68.2753" y1="16.2852" x2="82.5951" y2="93.6817" gradientUnits="userSpaceOnUse">
<stop stop-color="#09005D"/>
<stop offset="1" stop-color="#1A0F91"/>
</linearGradient>
<linearGradient id="paint37_linear_455_10651" x1="102.801" y1="26.5112" x2="29.5917" y2="188.458" gradientUnits="userSpaceOnUse">
<stop stop-color="#FE7062"/>
<stop offset="1" stop-color="#FF928E"/>
</linearGradient>
<linearGradient id="paint38_linear_455_10651" x1="62.161" y1="63.9517" x2="99.5923" y2="-22.9813" gradientUnits="userSpaceOnUse">
<stop stop-color="#09005D"/>
<stop offset="1" stop-color="#1A0F91"/>
</linearGradient>
<linearGradient id="paint39_linear_455_10651" x1="68.3258" y1="66.606" x2="105.757" y2="-20.3271" gradientUnits="userSpaceOnUse">
<stop stop-color="#09005D"/>
<stop offset="1" stop-color="#1A0F91"/>
</linearGradient>
<linearGradient id="paint40_linear_455_10651" x1="74.5755" y1="69.2965" x2="112.007" y2="-17.6367" gradientUnits="userSpaceOnUse">
<stop stop-color="#09005D"/>
<stop offset="1" stop-color="#1A0F91"/>
</linearGradient>
<linearGradient id="paint41_linear_455_10651" x1="80.9136" y1="72.0259" x2="118.344" y2="-14.9055" gradientUnits="userSpaceOnUse">
<stop stop-color="#09005D"/>
<stop offset="1" stop-color="#1A0F91"/>
</linearGradient>
<linearGradient id="paint42_linear_455_10651" x1="87.9295" y1="75.0467" x2="125.361" y2="-11.8866" gradientUnits="userSpaceOnUse">
<stop stop-color="#09005D"/>
<stop offset="1" stop-color="#1A0F91"/>
</linearGradient>
<linearGradient id="paint43_linear_455_10651" x1="44.1839" y1="146.126" x2="5.29368" y2="186.529" gradientUnits="userSpaceOnUse">
<stop stop-color="#09005D"/>
<stop offset="1" stop-color="#1A0F91"/>
</linearGradient>
<linearGradient id="paint44_linear_455_10651" x1="32.1612" y1="149.259" x2="35.4513" y2="149.259" gradientUnits="userSpaceOnUse">
<stop stop-color="#FEBBBA"/>
<stop offset="1" stop-color="#FF928E"/>
</linearGradient>
<linearGradient id="paint45_linear_455_10651" x1="-162.68" y1="359.104" x2="-125.317" y2="317.279" gradientUnits="userSpaceOnUse">
<stop stop-color="#020039"/>
<stop offset="1" stop-color="#090056"/>
</linearGradient>
<linearGradient id="paint46_linear_455_10651" x1="35.8745" y1="138.128" x2="-3.01565" y2="178.531" gradientUnits="userSpaceOnUse">
<stop stop-color="#09005D"/>
<stop offset="1" stop-color="#1A0F91"/>
</linearGradient>
<linearGradient id="paint47_linear_455_10651" x1="20.3032" y1="149.083" x2="23.144" y2="149.083" gradientUnits="userSpaceOnUse">
<stop stop-color="#FEBBBA"/>
<stop offset="1" stop-color="#FF928E"/>
</linearGradient>
<linearGradient id="paint48_linear_455_10651" x1="-167.651" y1="354.663" x2="-130.289" y2="312.838" gradientUnits="userSpaceOnUse">
<stop stop-color="#020039"/>
<stop offset="1" stop-color="#090056"/>
</linearGradient>
<linearGradient id="paint49_linear_455_10651" x1="43.9514" y1="57.621" x2="30.0757" y2="94.9536" gradientUnits="userSpaceOnUse">
<stop stop-color="#4F52FF"/>
<stop offset="1" stop-color="#4042E2"/>
</linearGradient>
<linearGradient id="paint50_linear_455_10651" x1="32.0743" y1="46.2088" x2="67.4985" y2="96.8821" gradientUnits="userSpaceOnUse">
<stop stop-color="#FEBBBA"/>
<stop offset="1" stop-color="#FF928E"/>
</linearGradient>
<linearGradient id="paint51_linear_455_10651" x1="37.3767" y1="42.5021" x2="72.8008" y2="93.1753" gradientUnits="userSpaceOnUse">
<stop stop-color="#FEBBBA"/>
<stop offset="1" stop-color="#FF928E"/>
</linearGradient>
<linearGradient id="paint52_linear_455_10651" x1="33.0038" y1="53.5524" x2="19.128" y2="90.8851" gradientUnits="userSpaceOnUse">
<stop stop-color="#4F52FF"/>
<stop offset="1" stop-color="#4042E2"/>
</linearGradient>
<linearGradient id="paint53_linear_455_10651" x1="18.0871" y1="48.0083" x2="4.21134" y2="85.3409" gradientUnits="userSpaceOnUse">
<stop stop-color="#4F52FF"/>
<stop offset="1" stop-color="#4042E2"/>
</linearGradient>
<linearGradient id="paint54_linear_455_10651" x1="30.5461" y1="53.3678" x2="16.3389" y2="78.8402" gradientUnits="userSpaceOnUse">
<stop stop-color="#FEBBBA"/>
<stop offset="1" stop-color="#FF928E"/>
</linearGradient>
<linearGradient id="paint55_linear_455_10651" x1="12.5919" y1="49.6836" x2="38.2257" y2="52.62" gradientUnits="userSpaceOnUse">
<stop stop-color="#FEBBBA"/>
<stop offset="1" stop-color="#FF928E"/>
</linearGradient>
<linearGradient id="paint56_linear_455_10651" x1="25.68" y1="55.6057" x2="36.8204" y2="49.0296" gradientUnits="userSpaceOnUse">
<stop stop-color="#09005D"/>
<stop offset="1" stop-color="#1A0F91"/>
</linearGradient>
<linearGradient id="paint57_linear_455_10651" x1="12.2505" y1="52.6606" x2="37.8844" y2="55.597" gradientUnits="userSpaceOnUse">
<stop stop-color="#FEBBBA"/>
<stop offset="1" stop-color="#FF928E"/>
</linearGradient>
<linearGradient id="paint58_linear_455_10651" x1="27.2927" y1="46.8062" x2="6.0498" y2="60.5618" gradientUnits="userSpaceOnUse">
<stop stop-color="#FEBBBA"/>
<stop offset="1" stop-color="#FF928E"/>
</linearGradient>
<linearGradient id="paint59_linear_455_10651" x1="26.8799" y1="46.371" x2="4.78128" y2="60.6807" gradientUnits="userSpaceOnUse">
<stop stop-color="#FEBBBA"/>
<stop offset="1" stop-color="#FF928E"/>
</linearGradient>
<linearGradient id="paint60_linear_455_10651" x1="13.0632" y1="46.1417" x2="-0.812509" y2="83.4742" gradientUnits="userSpaceOnUse">
<stop stop-color="#4F52FF"/>
<stop offset="1" stop-color="#4042E2"/>
</linearGradient>
</defs>
</svg>
