<svg width="167" height="166" viewBox="0 0 167 166" fill="none" xmlns="http://www.w3.org/2000/svg">
<path d="M147.429 143.003C144.087 146.521 140.926 148.789 138.428 150.582C109.064 171.651 74.3183 165.509 66.9339 164.009C56.0296 161.795 34.9516 157.514 19.7126 139.593C-3.34257 112.48 0.247478 69.7653 18.1307 41.5685C21.4019 36.4109 38.6809 7.78458 73.8004 3.19379C95.0544 0.415546 119.83 6.01899 137.771 21.0505C175.432 52.6029 172.751 116.344 147.429 143.003Z" fill="url(#paint0_linear_579_42608)"/>
<path d="M10.5455 1.17252C10.2766 0.342577 11.2443 -0.339447 11.9437 0.182208C19.0451 5.47844 36.5133 21.7701 36.2556 53.7404C35.9324 93.8518 45.8148 107.351 57.0744 114.991C57.0744 114.991 42.5153 112.452 31.9863 98.8104C6.13538 65.318 15.3266 15.9291 10.5455 1.17252Z" fill="#91B3FA"/>
<path d="M16.8331 12.9748C18.1365 17.2879 19.3541 21.6245 20.4115 25.9994C21.4916 30.3679 22.4388 34.7672 23.2475 39.1897C24.0392 43.615 24.7478 48.0544 25.2667 52.5173C25.8056 56.9776 26.1524 61.4561 26.4848 65.9538C26.8422 70.4471 27.1766 74.9756 27.9757 79.4837C28.769 83.9831 30.1121 88.4601 32.2334 92.5589C32.7633 93.5803 33.3139 94.596 33.9189 95.5691C34.5061 96.5539 35.137 97.5129 35.7849 98.4602C37.0903 100.349 38.5233 102.154 40.0837 103.845C43.2136 107.219 46.855 110.114 50.7716 112.469C51.1838 112.716 51.7189 112.583 51.9668 112.171C52.2102 111.766 52.0861 111.243 51.6912 110.989L51.6884 110.988C50.752 110.388 49.8236 109.778 48.9256 109.129C48.4713 108.812 48.0321 108.475 47.5867 108.146C47.1543 107.801 46.7084 107.473 46.2871 107.115C44.5782 105.712 42.9699 104.191 41.482 102.559C38.4934 99.3119 35.9746 95.6017 33.9412 91.6896C32.9463 89.7214 32.0981 87.6835 31.4097 85.5872C30.7229 83.4902 30.196 81.3372 29.7917 79.1526C28.9823 74.7808 28.6142 70.3013 28.2246 65.8108C27.8291 61.3199 27.4007 56.8097 26.7875 52.3241C26.487 50.0808 26.1461 47.8431 25.7654 45.6127C25.5815 44.4965 25.3759 43.384 25.1725 42.2713C24.9583 41.1606 24.738 40.0512 24.5088 38.9438C23.5836 34.5157 22.5237 30.1181 21.3263 25.7601C20.108 21.4079 18.7747 17.0894 17.2772 12.8296C17.2344 12.7078 17.101 12.6438 16.9793 12.6866C16.8611 12.7283 16.7975 12.856 16.8331 12.9748Z" fill="#BDD0FB"/>
<path d="M44.0727 141.764C43.7938 143.347 41.9888 144.131 40.6303 143.272C33.1345 138.53 13.1534 123.208 9.536 92.8032C6.48131 67.1279 2.38502 53.4959 0.0965945 47.4364C-0.387295 46.1551 1.04582 45.0008 2.19614 45.7443C14.8871 53.9474 54.1759 84.3996 44.0727 141.764Z" fill="#7D97F4"/>
<path d="M41.9307 142.151C41.9018 142.179 41.8699 142.204 41.8349 142.226C41.5424 142.412 41.1546 142.325 40.9687 142.033C40.7579 141.701 19.827 108.464 13.9669 72.9565C13.9107 72.6148 14.142 72.2918 14.484 72.235C14.8261 72.1787 15.149 72.4101 15.2056 72.7522C21.0229 108.002 41.8186 141.03 42.028 141.36C42.1918 141.617 42.1443 141.949 41.9307 142.151Z" fill="#91B3FA"/>
<path d="M40.3226 3.31646C36.2698 3.66891 33.1625 7.06308 33.151 11.1312C33.0804 36.0092 32.964 121.82 34.5855 152.192C34.7573 155.41 37.3952 157.938 40.6173 157.972C56.5537 158.144 102.394 158.459 128.418 156.794C133.839 156.448 138.056 151.958 138.05 146.527C138.018 120.417 137.601 46.9854 134.024 13.4209C133.596 9.39935 130.363 6.26029 126.331 5.94613C108.95 4.59187 62.7943 1.36211 40.3226 3.31646Z" fill="url(#paint1_linear_579_42608)"/>
<path d="M39.5483 17.6509C39.2354 38.9318 38.3443 109.725 39.8998 135.853C40.1272 139.672 43.0937 142.687 46.7567 142.815C61.8383 143.34 100.512 144.357 122.55 141.932C126.518 141.496 129.551 138.056 129.656 133.891C130.208 112.174 131.697 46.2391 130.185 20.4029C129.944 16.2813 126.795 12.9926 122.848 12.7266C106.518 11.6263 64.5849 9.08874 45.8452 10.6493C42.3274 10.9423 39.6025 13.9666 39.5483 17.6509Z" fill="url(#paint2_linear_579_42608)"/>
<path d="M75.987 7.01603C75.9999 7.60396 76.4687 8.07878 77.0566 8.09669C79.9585 8.18485 88.1334 8.43509 91.7873 8.56676C92.5077 8.59273 93.0582 7.93353 92.9062 7.22886C92.8937 7.20663 92.8001 6.30312 91.8774 6.23897C89.4057 6.0671 81.9488 5.60372 77.0211 5.88806C76.0092 5.94639 75.9542 7.09719 75.987 7.01603Z" fill="url(#paint3_linear_579_42608)"/>
<path opacity="0.8" d="M64.158 65.2901C75.0823 65.2901 83.9381 56.4343 83.9381 45.5101C83.9381 34.5858 75.0823 25.73 64.158 25.73C53.2338 25.73 44.3779 34.5858 44.3779 45.5101C44.3779 56.4343 53.2338 65.2901 64.158 65.2901Z" fill="white"/>
<mask id="mask0_579_42608" style="mask-type:luminance" maskUnits="userSpaceOnUse" x="46" y="27" width="36" height="37">
<path d="M64.1582 63.125C73.8871 63.125 81.774 55.2382 81.774 45.5093C81.774 35.7804 73.8871 27.8936 64.1582 27.8936C54.4293 27.8936 46.5425 35.7804 46.5425 45.5093C46.5425 55.2382 54.4293 63.125 64.1582 63.125Z" fill="white"/>
</mask>
<g mask="url(#mask0_579_42608)">
<path d="M64.2345 48.7303C68.4981 48.7303 71.9544 45.274 71.9544 41.0104C71.9544 36.7468 68.4981 33.2905 64.2345 33.2905C59.971 33.2905 56.5146 36.7468 56.5146 41.0104C56.5146 45.274 59.971 48.7303 64.2345 48.7303Z" fill="url(#paint4_linear_579_42608)"/>
</g>
<mask id="mask1_579_42608" style="mask-type:luminance" maskUnits="userSpaceOnUse" x="46" y="27" width="36" height="37">
<path d="M64.1582 63.125C73.8871 63.125 81.774 55.2382 81.774 45.5093C81.774 35.7804 73.8871 27.8936 64.1582 27.8936C54.4293 27.8936 46.5425 35.7804 46.5425 45.5093C46.5425 55.2382 54.4293 63.125 64.1582 63.125Z" fill="white"/>
</mask>
<g mask="url(#mask1_579_42608)">
<path d="M52.5089 64.1926H77.1034C78.6113 64.1926 79.5148 62.2441 78.7028 60.7572C76.6137 56.9318 72.2429 51.3118 64.6732 51.5654C57.3775 51.8098 53.0533 56.8862 50.8795 60.5269C49.9566 62.0725 50.8978 64.1926 52.5089 64.1926Z" fill="url(#paint5_linear_579_42608)"/>
</g>
<path d="M94.0755 133.081H69.4721C68.6681 133.081 68.0103 132.423 68.0103 131.619V124.621C68.0103 123.817 68.6681 123.16 69.4721 123.16H94.0755C94.8795 123.16 95.5373 123.818 95.5373 124.621V131.619C95.5373 132.423 94.8795 133.081 94.0755 133.081Z" fill="url(#paint6_linear_579_42608)"/>
<g opacity="0.8">
<g opacity="0.8">
<path d="M112.493 87.2333H56.9879C56.5468 87.2333 56.186 86.8725 56.186 86.4315V82.5723C56.186 82.1314 56.5468 81.7705 56.9879 81.7705H112.493C112.934 81.7705 113.294 82.1313 113.294 82.5723V86.4315C113.294 86.8725 112.934 87.2333 112.493 87.2333Z" fill="white"/>
<path d="M48.8606 87.7975C50.6897 87.7975 52.1725 86.3147 52.1725 84.4856C52.1725 82.6566 50.6897 81.1738 48.8606 81.1738C47.0316 81.1738 45.5488 82.6566 45.5488 84.4856C45.5488 86.3147 47.0316 87.7975 48.8606 87.7975Z" fill="white"/>
</g>
<g opacity="0.8">
<path d="M112.493 97.4848H56.9879C56.5468 97.4848 56.186 97.124 56.186 96.683V92.8238C56.186 92.3828 56.5468 92.022 56.9879 92.022H112.493C112.934 92.022 113.294 92.3828 113.294 92.8238V96.683C113.294 97.124 112.934 97.4848 112.493 97.4848Z" fill="white"/>
<path d="M52.1327 95.2686C52.4257 93.4631 51.1996 91.7619 49.3942 91.4689C47.5887 91.1759 45.8875 92.402 45.5945 94.2075C45.3015 96.0129 46.5276 97.7141 48.3331 98.0071C50.1385 98.3001 51.8397 97.074 52.1327 95.2686Z" fill="white"/>
</g>
<g opacity="0.8">
<path d="M112.493 107.736H56.9879C56.5468 107.736 56.186 107.375 56.186 106.934V103.075C56.186 102.634 56.5468 102.273 56.9879 102.273H112.493C112.934 102.273 113.294 102.634 113.294 103.075V106.934C113.294 107.375 112.934 107.736 112.493 107.736Z" fill="white"/>
<path d="M48.8606 108.299C50.6897 108.299 52.1725 106.817 52.1725 104.988C52.1725 103.159 50.6897 101.676 48.8606 101.676C47.0316 101.676 45.5488 103.159 45.5488 104.988C45.5488 106.817 47.0316 108.299 48.8606 108.299Z" fill="white"/>
</g>
<path opacity="0.8" d="M112.493 117.986H56.9879C56.5468 117.986 56.186 117.625 56.186 117.184V113.325C56.186 112.884 56.5468 112.523 56.9879 112.523H112.493C112.934 112.523 113.294 112.884 113.294 113.325V117.184C113.294 117.625 112.934 117.986 112.493 117.986Z" fill="white"/>
<path opacity="0.8" d="M48.8606 118.55C50.6897 118.55 52.1725 117.068 52.1725 115.239C52.1725 113.409 50.6897 111.927 48.8606 111.927C47.0316 111.927 45.5488 113.409 45.5488 115.239C45.5488 117.068 47.0316 118.55 48.8606 118.55Z" fill="white"/>
</g>
<path opacity="0.8" d="M89.9259 76.5566H46.3897C45.9984 76.5566 45.6782 76.2364 45.6782 75.8451V71.8052C45.6782 71.4139 45.9984 71.0938 46.3897 71.0938H89.9259C90.3172 71.0938 90.6374 71.4139 90.6374 71.8052V75.8451C90.6374 76.2364 90.3172 76.5566 89.9259 76.5566Z" fill="white"/>
<path d="M140.192 21.4796C140.075 19.6724 138.984 18.0714 137.348 17.2944L116.153 7.22813C114.795 6.58346 113.22 6.58346 111.863 7.22813L90.6676 17.2944C89.0316 18.0714 87.9402 19.6724 87.8233 21.4796C85.8352 52.2107 105.54 63.4079 111.999 66.2364C113.28 66.7973 114.735 66.7973 116.016 66.2364C122.476 63.4079 142.18 52.2107 140.192 21.4796Z" fill="url(#paint7_linear_579_42608)"/>
<path d="M107.596 11.47C107.483 11.47 107.375 11.4065 107.324 11.2977C107.252 11.1472 107.316 10.967 107.467 10.8957L112.475 8.51719C112.626 8.44545 112.806 8.50954 112.877 8.66024C112.948 8.81077 112.884 8.99088 112.734 9.0622L107.726 11.4407C107.684 11.4605 107.64 11.47 107.596 11.47Z" fill="#91B3FA"/>
<path d="M89.4443 28.0571C89.2823 28.0571 89.1484 27.9286 89.1428 27.7656C89.0759 25.7666 89.111 23.6828 89.2474 21.572C89.3307 20.2847 90.1095 19.1397 91.2799 18.5836L105.538 11.812C105.689 11.7405 105.869 11.8044 105.94 11.9551C106.011 12.1055 105.947 12.2857 105.797 12.357L91.5388 19.1286C90.5661 19.5907 89.9189 20.5419 89.8498 21.6109C89.7146 23.7021 89.6796 25.7661 89.746 27.7452C89.7517 27.9117 89.621 28.0515 89.4546 28.0569C89.4511 28.0571 89.4476 28.0571 89.4443 28.0571Z" fill="#91B3FA"/>
<path d="M135.067 22.6793C135.043 22.2211 134.77 21.8122 134.356 21.6153L114.542 12.205C114.204 12.0443 113.811 12.0443 113.473 12.205L93.6594 21.6153C93.2449 21.8122 92.9722 22.2211 92.9488 22.6793C92.3629 34.1429 95.0108 43.7078 100.825 51.1212C105.257 56.7733 110.442 59.8022 113.48 61.2153C113.815 61.371 114.2 61.371 114.535 61.2153C117.573 59.8022 122.759 56.7732 127.191 51.1212C133.005 43.7079 135.653 34.1428 135.067 22.6793Z" fill="url(#paint8_linear_579_42608)"/>
<path d="M101.425 35.2432C103.063 34.2283 105.216 34.7584 106.195 36.4185L110.801 44.2257C111.262 45.0074 112.417 44.9293 112.768 44.0929L123.13 19.4508C123.647 18.2215 125.468 18.5891 125.48 19.9223C125.548 27.382 123.912 41.6036 112.283 53.7554C112.283 53.7554 105.656 51.3616 100.088 39.8783C99.284 38.2195 99.8581 36.2144 101.425 35.2432Z" fill="url(#paint9_linear_579_42608)"/>
<path d="M143.657 158.483C143.657 158.483 144.036 160.631 144.222 162.758C144.295 163.589 143.654 164.31 142.821 164.345C139.989 164.463 133.932 164.692 131.758 164.595C131.432 164.581 131.218 164.246 131.339 163.942C131.44 163.688 131.636 163.482 131.885 163.367L141.89 158.769L143.657 158.483Z" fill="url(#paint10_linear_579_42608)"/>
<path d="M143.968 157.221L143.663 159.79C143.663 159.79 141.91 160.606 140.713 159.688L141.439 156.824L143.968 157.221Z" fill="url(#paint11_linear_579_42608)"/>
<path d="M143.738 108.916C143.87 109.587 144.445 142.399 140.938 157.104C140.881 157.343 141.002 157.591 141.231 157.684C141.769 157.904 142.823 158.222 144.087 158.265C144.478 158.278 144.829 158.023 144.94 157.648C145.942 154.236 150.747 137.143 151.373 120.814C152.074 102.568 151.373 120.193 151.373 120.193L150.963 108.915L143.738 108.916Z" fill="url(#paint12_linear_579_42608)"/>
<path d="M155.166 159.604C155.166 159.604 155.77 160.688 156.355 163.57C156.461 164.09 156.097 164.588 155.569 164.64C154.634 164.732 153.194 164.851 152.041 164.843C151.51 164.839 151.095 164.376 151.159 163.848C151.287 162.797 151.684 161.071 152.914 159.726L155.166 159.604Z" fill="url(#paint13_linear_579_42608)"/>
<path d="M155.697 156.298L154.984 160.184C154.984 160.184 154.28 160.708 152.887 160.328L153.227 156.147L155.697 156.298Z" fill="url(#paint14_linear_579_42608)"/>
<path d="M157.621 109.922C160.489 127.234 156.998 152.711 155.821 157.697C155.749 158.002 155.503 158.236 155.193 158.287C154.668 158.374 153.803 158.445 152.95 158.198C152.656 158.112 152.449 157.847 152.437 157.542C152.279 153.51 152.564 128.762 149.891 118.982C149.755 118.486 149.453 118.054 149.034 117.756L143.846 114.068L143.448 108.106L157.621 109.922Z" fill="url(#paint15_linear_579_42608)"/>
<path d="M139.342 77.1202C147.939 76.9781 157.424 79.3774 157.424 79.3774C159.987 94.3292 157.872 111.575 157.872 111.575C151.217 113.32 143.71 110.508 143.71 110.508C142.603 104.259 137.442 86.6704 137.442 86.6704C133.242 86.1491 129.782 84.9373 126.933 83.3351C129.106 80.8157 130.131 77.6099 130.576 75.7148C133.615 76.6594 136.691 77.164 139.342 77.1202Z" fill="url(#paint16_linear_579_42608)"/>
<path d="M113.95 64.4582C114.794 63.4382 115.863 63.9207 115.863 63.9207C117.128 69.2645 123.761 73.5972 130.576 75.7152C130.131 77.6102 129.106 80.816 126.933 83.3354C115.623 76.9764 113.95 64.4582 113.95 64.4582Z" fill="url(#paint17_linear_579_42608)"/>
<path d="M114.155 64.7174C114.066 64.9983 115.089 65.4261 115.692 64.2772C115.713 63.7265 116.048 61.3676 115.719 60.9191C113.966 58.53 110.569 55.5352 110.569 55.5352C109.995 56.1017 110.468 56.6583 110.468 56.6583L112.116 58.3752C111.771 58.9982 111.351 59.524 111.154 60.2776C111.004 60.8482 111.096 61.458 111.384 61.9774C111.673 62.4986 112.068 63.1761 112.441 63.7063C113.147 64.7099 114.155 64.7174 114.155 64.7174Z" fill="url(#paint18_linear_579_42608)"/>
<path d="M112.837 59.4888L114.339 60.762L114.811 62.0296L113.471 63.5152C113.471 63.5152 113.021 60.9999 112.687 60.4555C112.352 59.9112 112.525 59.648 112.837 59.4888Z" fill="url(#paint19_linear_579_42608)"/>
<path d="M154.127 87.701L157.424 79.377C157.424 79.377 165.454 84.8328 166.774 91.7502C165.257 91.8619 162.496 92.2565 159.794 93.6211C159.2 90.3547 154.127 87.701 154.127 87.701Z" fill="url(#paint20_linear_579_42608)"/>
<path d="M147.11 95.5339C147.11 95.5339 156.125 100.629 159.167 96.2784C159.799 95.375 159.95 94.4772 159.794 93.6214C162.497 92.2568 165.257 91.8622 166.775 91.7505C167.173 93.8358 166.962 96.0537 165.737 98.2954C160.408 108.042 145.917 97.7567 145.917 97.7567L147.11 95.5339Z" fill="url(#paint21_linear_579_42608)"/>
<path d="M148.193 101.98L143.273 84.7973C143.217 84.6022 143.05 84.4599 142.849 84.4365C141.957 84.3325 139.374 84.0405 136.392 83.7882C132.799 83.4844 128.627 83.2381 126.134 83.4476C125.78 83.4773 125.566 83.8522 125.723 84.171C127.141 87.0392 132.973 98.706 135.893 102.528C135.99 102.655 136.139 102.729 136.298 102.727L147.714 102.621C148.046 102.618 148.284 102.299 148.193 101.98Z" fill="#BDD0FB"/>
<path d="M135.881 82.2982L132.314 81.7038C132.124 81.6722 131.968 81.8537 132.029 82.0366L132.382 83.1066C132.413 83.1998 132.494 83.2672 132.591 83.2802L136.024 83.7387C136.202 83.7625 136.348 83.6011 136.307 83.4266L136.089 82.4924C136.065 82.3918 135.983 82.3152 135.881 82.2982Z" fill="#7D97F4"/>
<path d="M138.552 85.3186L138.259 83.7879C138.229 83.6343 138.102 83.5183 137.947 83.5025L130.742 82.7714C130.499 82.7468 130.305 82.9691 130.362 83.206L130.82 85.1135C130.857 85.2661 130.99 85.3764 131.146 85.3842L138.187 85.7387C138.416 85.7502 138.596 85.5439 138.552 85.3186Z" fill="#7D97F4"/>
<path d="M147.004 97.8282C147.004 97.8282 147.69 95.0098 147.413 94.01C147.137 93.0101 146.601 91.7245 144.816 92.0102C143.03 92.2959 140.924 93.048 140.924 93.048C140.924 93.048 141.03 94.3504 142.387 93.9302L141.546 94.5814C141.546 94.5814 141.666 95.6242 142.812 95.067L142.03 95.9306C142.03 95.9306 142.522 96.787 143.365 96.2377C144.208 95.6883 144.613 98.1675 147.004 97.8282Z" fill="url(#paint22_linear_579_42608)"/>
<path d="M148.05 70.1412L150.785 78.0514C150.83 78.1824 150.776 78.3276 150.655 78.3946C149.909 78.8069 147.223 79.9985 143.986 77.946C143.648 77.7322 143.419 77.3835 143.368 76.9875L142.482 70.1411L148.05 70.1412Z" fill="url(#paint23_linear_579_42608)"/>
<path d="M142.098 62.8154C142.098 62.8154 139.094 68.4694 139.479 70.7534C139.864 73.0373 143.587 72.8733 146.838 71.0184L149.109 64.9133L142.098 62.8154Z" fill="url(#paint24_linear_579_42608)"/>
<path d="M146.694 68.02C146.562 67.9614 146.513 67.7998 146.592 67.6789C146.833 67.3112 147.284 66.5612 147.428 65.9046C147.428 65.9046 147.968 65.5588 146.053 65.1006C144.139 64.6424 141.284 63.9312 140.684 62.3018C140.099 60.7132 141.636 56.718 144.089 59.9013C144.182 60.0224 144.365 60.0251 144.458 59.9039C144.86 59.3806 145.917 58.2946 147.384 58.953C148.757 59.5691 148.912 60.5753 148.893 61.0825C148.888 61.2317 149.021 61.3477 149.168 61.3197C149.862 61.1873 151.528 61.0736 152.306 62.7827C152.946 64.1905 152.53 64.9874 152.151 65.3771C152.028 65.5033 152.082 65.7112 152.25 65.7628C152.706 65.9025 153.296 66.2894 153.237 67.3584C153.155 68.8363 151.503 68.7061 151.032 68.6387C150.955 68.6276 150.878 68.6541 150.825 68.7118C150.422 69.1582 148.605 71.0535 146.638 71.282C146.467 71.3018 146.335 71.1336 146.391 70.9715L147.242 68.497C147.282 68.3821 147.227 68.256 147.116 68.2068L146.694 68.02Z" fill="url(#paint25_linear_579_42608)"/>
<path d="M146.352 68.3716C146.352 68.3716 148.49 66.9043 148.647 68.14C148.803 69.3756 146.721 69.9298 145.689 69.4691L146.352 68.3716Z" fill="url(#paint26_linear_579_42608)"/>
<defs>
<linearGradient id="paint0_linear_579_42608" x1="187.451" y1="214.254" x2="41.9733" y2="33.5805" gradientUnits="userSpaceOnUse">
<stop stop-color="#DAE3FE"/>
<stop offset="1" stop-color="#E9EFFD"/>
</linearGradient>
<linearGradient id="paint1_linear_579_42608" x1="-72.1125" y1="207.347" x2="115.395" y2="55.2491" gradientUnits="userSpaceOnUse">
<stop stop-color="#09005D"/>
<stop offset="1" stop-color="#1A0F91"/>
</linearGradient>
<linearGradient id="paint2_linear_579_42608" x1="11.9054" y1="179.815" x2="94.3925" y2="61.9187" gradientUnits="userSpaceOnUse">
<stop stop-color="#FEBBBA"/>
<stop offset="1" stop-color="#FF928E"/>
</linearGradient>
<linearGradient id="paint3_linear_579_42608" x1="99.4238" y1="-60.0983" x2="87.3525" y2="-5.77754" gradientUnits="userSpaceOnUse">
<stop stop-color="#4042E2"/>
<stop offset="1" stop-color="#4F52FF"/>
</linearGradient>
<linearGradient id="paint4_linear_579_42608" x1="47.047" y1="100.401" x2="87.687" y2="-40.0282" gradientUnits="userSpaceOnUse">
<stop stop-color="#FE7062"/>
<stop offset="1" stop-color="#FF928E"/>
</linearGradient>
<linearGradient id="paint5_linear_579_42608" x1="53.1128" y1="102.156" x2="93.753" y2="-38.2729" gradientUnits="userSpaceOnUse">
<stop stop-color="#FE7062"/>
<stop offset="1" stop-color="#FF928E"/>
</linearGradient>
<linearGradient id="paint6_linear_579_42608" x1="97.1299" y1="64.6289" x2="74.0493" y2="160.058" gradientUnits="userSpaceOnUse">
<stop stop-color="#E1473D"/>
<stop offset="1" stop-color="#E9605A"/>
</linearGradient>
<linearGradient id="paint7_linear_579_42608" x1="193.139" y1="-86.5614" x2="158.132" y2="-34.6548" gradientUnits="userSpaceOnUse">
<stop stop-color="#4042E2"/>
<stop offset="1" stop-color="#4F52FF"/>
</linearGradient>
<linearGradient id="paint8_linear_579_42608" x1="163.421" y1="-65.0164" x2="143.303" y2="-26.3883" gradientUnits="userSpaceOnUse">
<stop stop-color="#09005D"/>
<stop offset="1" stop-color="#1A0F91"/>
</linearGradient>
<linearGradient id="paint9_linear_579_42608" x1="106.812" y1="57.5687" x2="115.262" y2="20.1478" gradientUnits="userSpaceOnUse">
<stop stop-color="#E1473D"/>
<stop offset="1" stop-color="#E9605A"/>
</linearGradient>
<linearGradient id="paint10_linear_579_42608" x1="132.075" y1="155.515" x2="168.714" y2="195.367" gradientUnits="userSpaceOnUse">
<stop stop-color="#4042E2"/>
<stop offset="1" stop-color="#4F52FF"/>
</linearGradient>
<linearGradient id="paint11_linear_579_42608" x1="143.968" y1="158.474" x2="140.713" y2="158.474" gradientUnits="userSpaceOnUse">
<stop stop-color="#FF928E"/>
<stop offset="1" stop-color="#FEB3B1"/>
</linearGradient>
<linearGradient id="paint12_linear_579_42608" x1="151.685" y1="133.59" x2="140.924" y2="133.59" gradientUnits="userSpaceOnUse">
<stop stop-color="#09005D"/>
<stop offset="1" stop-color="#1A0F91"/>
</linearGradient>
<linearGradient id="paint13_linear_579_42608" x1="140.295" y1="147.958" x2="176.933" y2="187.811" gradientUnits="userSpaceOnUse">
<stop stop-color="#4042E2"/>
<stop offset="1" stop-color="#4F52FF"/>
</linearGradient>
<linearGradient id="paint14_linear_579_42608" x1="155.697" y1="158.307" x2="152.887" y2="158.307" gradientUnits="userSpaceOnUse">
<stop stop-color="#FF928E"/>
<stop offset="1" stop-color="#FEB3B1"/>
</linearGradient>
<linearGradient id="paint15_linear_579_42608" x1="158.725" y1="133.237" x2="143.448" y2="133.237" gradientUnits="userSpaceOnUse">
<stop stop-color="#09005D"/>
<stop offset="1" stop-color="#1A0F91"/>
</linearGradient>
<linearGradient id="paint16_linear_579_42608" x1="148.326" y1="81.5216" x2="130.821" y2="128.604" gradientUnits="userSpaceOnUse">
<stop stop-color="#4042E2"/>
<stop offset="1" stop-color="#4F52FF"/>
</linearGradient>
<linearGradient id="paint17_linear_579_42608" x1="153.914" y1="73.571" x2="137.287" y2="73.571" gradientUnits="userSpaceOnUse">
<stop stop-color="#FF928E"/>
<stop offset="1" stop-color="#FEB3B1"/>
</linearGradient>
<linearGradient id="paint18_linear_579_42608" x1="121.955" y1="47.3649" x2="114.31" y2="58.2291" gradientUnits="userSpaceOnUse">
<stop stop-color="#FF928E"/>
<stop offset="1" stop-color="#FEB3B1"/>
</linearGradient>
<linearGradient id="paint19_linear_579_42608" x1="114.03" y1="62.3298" x2="109.374" y2="55.1724" gradientUnits="userSpaceOnUse">
<stop stop-color="#FF928E"/>
<stop offset="1" stop-color="#FEB3B1"/>
</linearGradient>
<linearGradient id="paint20_linear_579_42608" x1="161.658" y1="86.4778" x2="144.153" y2="133.56" gradientUnits="userSpaceOnUse">
<stop stop-color="#4042E2"/>
<stop offset="1" stop-color="#4F52FF"/>
</linearGradient>
<linearGradient id="paint21_linear_579_42608" x1="166.958" y1="97.1213" x2="145.917" y2="97.1213" gradientUnits="userSpaceOnUse">
<stop stop-color="#FF928E"/>
<stop offset="1" stop-color="#FEB3B1"/>
</linearGradient>
<linearGradient id="paint22_linear_579_42608" x1="147.479" y1="94.915" x2="140.924" y2="94.915" gradientUnits="userSpaceOnUse">
<stop stop-color="#FF928E"/>
<stop offset="1" stop-color="#FEB3B1"/>
</linearGradient>
<linearGradient id="paint23_linear_579_42608" x1="144.319" y1="67.1482" x2="147.807" y2="80.2924" gradientUnits="userSpaceOnUse">
<stop stop-color="#FF928E"/>
<stop offset="1" stop-color="#FEB3B1"/>
</linearGradient>
<linearGradient id="paint24_linear_579_42608" x1="151.056" y1="56.4286" x2="140.862" y2="72.6577" gradientUnits="userSpaceOnUse">
<stop stop-color="#FF928E"/>
<stop offset="1" stop-color="#FEB3B1"/>
</linearGradient>
<linearGradient id="paint25_linear_579_42608" x1="154.492" y1="57.8753" x2="142.675" y2="67.2081" gradientUnits="userSpaceOnUse">
<stop stop-color="#09005D"/>
<stop offset="1" stop-color="#1A0F91"/>
</linearGradient>
<linearGradient id="paint26_linear_579_42608" x1="153.927" y1="58.2322" x2="143.733" y2="74.4614" gradientUnits="userSpaceOnUse">
<stop stop-color="#FF928E"/>
<stop offset="1" stop-color="#FEB3B1"/>
</linearGradient>
</defs>
</svg>
