<svg width="146" height="146" viewBox="0 0 146 146" fill="none" xmlns="http://www.w3.org/2000/svg">
<path d="M75.2317 1.57123C38.2631 0.47957 6.24052 27.3038 1.40248 62.5006C-3.88719 100.983 25.2267 135.609 61.0502 141.155C105.609 148.053 148.828 108.147 144.947 64.855C142.023 32.2384 112.811 2.68089 75.2317 1.57123Z" fill="#24242D"/>
<path d="M78.3207 102.836C70.9354 103.244 56.859 73.7313 66.6938 58.0281C70.7977 51.4754 76.9913 50.6386 79.6105 42.2943C81.9475 34.8487 78.049 32.2246 79.2738 23.9317C80.9961 12.271 91.3373 -0.369927 100.862 0.599595C105.641 1.08606 110.987 5.07754 112.532 10.7482C113.769 15.2899 110.013 19.9097 111.34 20.8296C112.43 21.5851 114.642 18.5076 116.588 19.0812C119.458 19.9272 121.438 28.6231 118.844 35.9172C114.403 48.4042 99.3797 48.8412 98.7659 57.8406C98.3747 63.5769 104.345 65.364 103.361 71.2738C102.496 76.4735 97.48 77.462 91.0601 83.8987C81.0037 93.9815 82.28 102.617 78.3207 102.836Z" fill="url(#paint0_linear_443_55718)"/>
<mask id="mask0_443_55718" style="mask-type:luminance" maskUnits="userSpaceOnUse" x="63" y="0" width="58" height="103">
<path d="M78.3207 102.836C70.9354 103.244 56.859 73.7313 66.6938 58.0281C70.7977 51.4754 76.9913 50.6386 79.6105 42.2943C81.9475 34.8487 78.049 32.2246 79.2738 23.9317C80.9961 12.271 91.3373 -0.369927 100.862 0.599595C105.641 1.08606 110.987 5.07754 112.532 10.7482C113.769 15.2899 110.013 19.9097 111.34 20.8296C112.43 21.5851 114.642 18.5076 116.588 19.0812C119.458 19.9272 121.438 28.6231 118.844 35.9172C114.403 48.4042 99.3797 48.8412 98.7659 57.8406C98.3747 63.5769 104.345 65.364 103.361 71.2738C102.496 76.4735 97.48 77.462 91.0601 83.8987C81.0037 93.9815 82.28 102.617 78.3207 102.836Z" fill="white"/>
</mask>
<g mask="url(#mask0_443_55718)">
<g opacity="0.5">
<path d="M80.1914 109.323C80.0428 109.366 79.8768 109.313 79.7841 109.178C79.7025 109.061 79.6989 108.912 79.7621 108.794C79.7644 108.57 79.616 107.847 79.4461 107.018C78.4893 102.351 75.9482 89.9549 78.4731 70.2293C81.6487 45.4212 91.5485 18.3617 107.898 -10.1977C107.999 -10.3746 108.225 -10.436 108.402 -10.3347C108.579 -10.2334 108.64 -10.0076 108.539 -9.83047C90.9737 20.8532 71.7933 66.0068 80.17 106.87C80.549 108.718 80.6173 109.051 80.298 109.272C80.2645 109.295 80.2285 109.312 80.1914 109.323Z" fill="white"/>
<path d="M85.2278 43.9333C85.0404 43.988 84.841 43.8868 84.7758 43.7004C84.7085 43.5078 84.8099 43.2971 85.0026 43.2298C100.857 37.6855 110.26 32.0071 115.356 28.2199C120.873 24.1189 122.667 21.2927 122.685 21.2646C122.792 21.0917 123.02 21.0384 123.194 21.1458C123.367 21.2533 123.42 21.4806 123.313 21.6539C123.24 21.7721 121.459 24.5932 115.857 28.7678C110.717 32.5976 101.235 38.3364 85.2466 43.9273C85.2403 43.9294 85.234 43.9315 85.2278 43.9333Z" fill="white"/>
<path d="M90.9804 26.1056C90.9073 26.127 90.8271 26.126 90.7501 26.0978C86.4352 24.5183 83.4605 19.1691 81.9088 10.1989C80.7648 3.58694 80.8605 -2.65477 80.8617 -2.71707C80.8651 -2.92139 81.0335 -3.08384 81.2376 -3.08001C81.4416 -3.07644 81.6041 -2.90814 81.6003 -2.70403C81.5962 -2.45899 81.2828 21.8452 91.0041 25.4039C91.1956 25.474 91.2943 25.6862 91.2241 25.8778C91.1821 25.9925 91.0893 26.0738 90.9804 26.1056Z" fill="white"/>
<path d="M78.4498 75.0426C78.3465 75.0727 78.2309 75.0578 78.1357 74.9917C72.1647 70.8555 69.2786 63.6282 67.9087 58.2936C66.4305 52.5372 66.3514 47.6799 66.3507 47.6315C66.3482 47.4276 66.5112 47.2601 66.7153 47.2574C66.9193 47.2546 67.0869 47.4178 67.0896 47.6219C67.0904 47.6696 67.1696 52.4526 68.6287 58.1261C69.9677 63.3332 72.7771 70.3807 78.5564 74.3843C78.7242 74.5005 78.766 74.7306 78.6498 74.8984C78.5997 74.9707 78.5282 75.0197 78.4498 75.0426Z" fill="white"/>
</g>
</g>
<path d="M76.0781 119.174C73.6619 107.386 73.999 98.2514 74.7039 92.2919C75.2572 87.6139 76.4886 81.076 79.8165 80.2542C81.4113 79.8604 82.3208 81.0674 83.9854 80.5794C87.1286 79.6579 87.048 74.4277 89.0317 70.6234C92.4253 64.1154 103.35 58.9236 111.172 62.7715C120.593 67.4052 121.594 83.2181 116.528 88.0912C113.527 90.9786 108.156 90.2546 107.864 92.3545C107.57 94.4679 112.952 95.6133 113.33 99.0017C113.721 102.509 108.443 105.688 108.123 105.876C101.727 109.636 96.6959 105.747 89.6773 107.483C85.8699 108.424 80.9083 111.161 76.0781 119.174Z" fill="url(#paint1_linear_443_55718)"/>
<path d="M76.0781 119.174C73.6619 107.386 73.999 98.2514 74.7039 92.2919C75.2572 87.6139 76.4886 81.076 79.8165 80.2542C81.4113 79.8604 82.3208 81.0674 83.9854 80.5794C87.1286 79.6579 87.048 74.4277 89.0317 70.6234C92.4253 64.1154 103.35 58.9236 111.172 62.7715C120.593 67.4052 121.594 83.2181 116.528 88.0912C113.527 90.9786 108.156 90.2546 107.864 92.3545C107.57 94.4679 112.952 95.6133 113.33 99.0017C113.721 102.509 108.443 105.688 108.123 105.876C101.727 109.636 96.6959 105.747 89.6773 107.483C85.8699 108.424 80.9083 111.161 76.0781 119.174Z" fill="url(#paint2_linear_443_55718)"/>
<mask id="mask1_443_55718" style="mask-type:luminance" maskUnits="userSpaceOnUse" x="74" y="61" width="46" height="59">
<path d="M76.0781 119.174C73.6619 107.386 73.999 98.2514 74.7039 92.2919C75.2572 87.6139 76.4886 81.076 79.8165 80.2542C81.4113 79.8604 82.3208 81.0674 83.9854 80.5794C87.1286 79.6579 87.048 74.4277 89.0317 70.6234C92.4253 64.1154 103.35 58.9236 111.172 62.7715C120.593 67.4052 121.594 83.2181 116.528 88.0912C113.527 90.9786 108.156 90.2546 107.864 92.3545C107.57 94.4679 112.952 95.6133 113.33 99.0017C113.721 102.509 108.443 105.688 108.123 105.876C101.727 109.636 96.6959 105.747 89.6773 107.483C85.8699 108.424 80.9083 111.161 76.0781 119.174Z" fill="white"/>
</mask>
<g mask="url(#mask1_443_55718)">
<g opacity="0.8">
<path d="M74.7567 128.708L74.9398 128.715C75.9879 100.506 93.6588 75.9763 122.209 63.0971L122.134 62.9299C108.603 69.0338 97.0871 78.1138 88.8312 89.1884C80.1516 100.831 75.2847 114.497 74.7567 128.708Z" fill="white"/>
<path d="M66.1145 87.7911C71.2826 93.5272 76.3048 104.723 77.3097 112.748L77.4915 112.725C76.4826 104.669 71.44 93.4281 66.2507 87.6685L66.1145 87.7911Z" fill="white"/>
<path d="M75.0259 123.173L75.2 123.231C76.5143 119.237 79.7971 116.062 84.9569 113.792C88.7403 112.128 93.4261 110.981 98.8845 110.382L98.8644 110.2C93.3876 110.801 88.6835 111.953 84.8831 113.624C79.6736 115.916 76.3572 119.128 75.0259 123.173Z" fill="white"/>
<path d="M90.0641 87.662L90.235 87.7282C93.0996 80.3282 91.1533 72.2142 89.0162 66.7102L88.8452 66.7766C90.9706 72.2503 92.9074 80.3169 90.0641 87.662Z" fill="white"/>
<path d="M102.803 74.7139L102.89 74.8758C110.782 70.6791 120.043 72.1937 124.86 73.4701L124.907 73.2929C120.064 72.0096 110.752 70.4879 102.803 74.7139Z" fill="white"/>
</g>
</g>
<path d="M82.9467 18.264L96.4615 130.597C96.6641 132.281 95.5033 133.791 93.8771 133.952L37.5861 140.132C34.1377 140.346 32.2497 138.585 32.0369 136.794L17.8479 17.3654C17.6363 15.5844 19.3281 13.9715 22.7911 13.9714L79.5942 15.1678C81.2386 15.1953 82.7451 16.5885 82.9467 18.264Z" fill="url(#paint3_linear_443_55718)"/>
<path d="M85.4801 18.0707L99.0692 130.965C99.2729 132.658 98.1081 134.176 96.476 134.338L38.118 140.148C36.2883 140.33 34.6116 139.007 34.3976 137.207L20.129 17.1611C19.9162 15.371 21.2601 13.932 23.1097 13.9631L82.1146 14.9587C83.7651 14.9865 85.2775 16.3868 85.4801 18.0707Z" fill="url(#paint4_linear_443_55718)"/>
<path d="M84.3728 24.2979L96.968 128.974C97.1583 130.555 96.0675 131.97 94.5397 132.119L39.6561 137.454C37.9552 137.619 36.3966 136.384 36.1973 134.708L23.0109 23.8138C22.8127 22.1468 24.0603 20.798 25.7783 20.8163L81.2253 21.4068C82.769 21.4232 84.1834 22.7241 84.3728 24.2979Z" fill="url(#paint5_linear_443_55718)"/>
<path d="M54.9412 17.9931C55.0132 18.5941 54.5819 19.0751 53.9772 19.0675C53.3719 19.0599 52.8224 18.5655 52.7504 17.9634C52.6783 17.3612 53.1113 16.8802 53.7166 16.889C54.3213 16.8978 54.8693 17.3922 54.9412 17.9931Z" fill="url(#paint6_linear_443_55718)"/>
<g opacity="0.5">
<path d="M74.8839 94.5627C63.648 73.7892 46.8633 67.571 41.8098 46.1616C39.0781 34.5889 40.9393 23.5124 44.0739 14.3169L23.1096 13.9631C21.26 13.932 19.9162 15.3709 20.129 17.1611L34.3976 137.207C34.6116 139.007 36.2883 140.33 38.118 140.148L83.993 135.581C84.3323 116.967 79.8924 103.823 74.8839 94.5627Z" fill="white"/>
</g>
<g opacity="0.8">
<path d="M77.9415 80.2456C77.8807 79.6475 77.3976 79.1435 76.8634 79.1578L45.4566 79.995C44.8943 80.01 44.4909 80.5516 44.5559 81.1658L44.9178 84.5909C44.9827 85.2045 45.4909 85.6902 46.0526 85.6727L77.4232 84.6947C77.9569 84.6781 78.3404 84.1779 78.2796 83.5803L77.9415 80.2456Z" fill="white"/>
<path d="M75.608 87.5866C75.5469 86.988 75.0648 86.5123 74.5286 86.5298L49.6188 87.3416C49.0602 87.3599 48.6587 87.8751 48.7231 88.4867L50.4484 104.869C50.5126 105.478 51.0156 105.952 51.572 105.925L76.3852 104.748C76.9194 104.722 77.3036 104.217 77.2428 103.621L75.608 87.5866ZM68.3423 100.039C68.4217 100.809 67.9212 101.409 67.2262 101.44L60.1977 101.752C59.494 101.784 58.8589 101.229 58.778 100.453L57.9627 92.6026C57.8817 91.825 58.387 91.1317 59.0922 91.1064L66.1359 90.8538C66.8324 90.8288 67.4625 91.4762 67.542 92.2479L68.3423 100.039Z" fill="white"/>
<path d="M62.3309 100.213C62.0794 100.224 61.8168 100.129 61.6026 99.9253L59.5429 97.9655C59.113 97.5564 59.0412 96.8674 59.3826 96.4267C59.724 95.9865 60.3485 95.9616 60.7776 96.3707L62.0588 97.5928L65.2438 93.4719C65.5821 93.0345 66.2008 93.0112 66.6258 93.4195C67.0505 93.8277 67.1211 94.5126 66.7838 94.9501L62.9924 99.8655C62.8227 100.085 62.5824 100.202 62.3309 100.213Z" fill="white"/>
<path d="M77.0555 46.3979H38.2344C35.5891 46.3979 33.5644 48.5389 33.8551 51.2631L34.9768 61.7648C35.2665 64.4797 37.7521 66.7015 40.3861 66.6593L79.043 66.0404C81.5083 66.0009 83.3153 63.8302 83.052 61.2173L82.0323 51.0895C81.7681 48.4684 79.5311 46.3979 77.0555 46.3979Z" fill="white"/>
</g>
<path d="M121.806 65.0454C121.806 65.0454 120.732 73.041 129.157 78.6784L120.192 80.8169C120.192 80.8169 117.323 75.4517 119.4 66.5645L121.806 65.0454Z" fill="url(#paint7_linear_443_55718)"/>
<path d="M120.228 66.5645C120.228 66.5645 119.745 65.3719 119.823 64.8349C119.901 64.298 121.179 63.5815 122.05 62.8416C122.922 62.1017 122.018 63.5858 121.815 63.9234C121.613 64.261 120.902 64.7674 121.004 65.9154L120.228 66.5645Z" fill="url(#paint8_linear_443_55718)"/>
<path d="M105.426 19.0983L74.3771 60.6147L107.137 85.1151L138.186 43.5986L105.426 19.0983Z" fill="white"/>
<path d="M106.302 35.3328L100.532 31.0181L104.847 25.249L110.616 29.5637L106.302 35.3328ZM102.333 30.7583L106.042 33.5321L108.816 29.8234L105.107 27.0496L102.333 30.7583Z" fill="#D8DEE8"/>
<path d="M111.646 32.9062L109.72 35.4817L129.293 50.1203L131.219 47.5448L111.646 32.9062Z" fill="#D8DEE8"/>
<path d="M104.866 41.9716L102.939 44.5471L122.513 59.1857L124.439 56.6102L104.866 41.9716Z" fill="#D8DEE8"/>
<path d="M98.0854 51.0368L96.1593 53.6123L115.733 68.2509L117.659 65.6754L98.0854 51.0368Z" fill="#D8DEE8"/>
<path d="M85.9606 62.5298L80.1915 58.2151L84.5063 52.446L90.2753 56.7608L85.9606 62.5298ZM81.9922 57.9554L85.7008 60.7291L88.4746 57.0205L84.7659 54.2467L81.9922 57.9554Z" fill="#D8DEE8"/>
<path d="M91.3053 60.1023L89.3792 62.6777L108.953 77.3163L110.879 74.7409L91.3053 60.1023Z" fill="#D8DEE8"/>
<path d="M102.129 31.73C102.126 31.7279 102.123 31.7259 102.12 31.7238C101.971 31.6124 101.873 31.451 101.862 31.2653L101.732 29.13C101.711 28.7753 101.98 28.4743 102.334 28.4535C102.689 28.4328 102.992 28.7051 103.013 29.0598L103.094 30.4651L109.964 29.1005C110.312 29.0312 110.651 29.2578 110.72 29.6063C110.789 29.9547 110.563 30.2933 110.214 30.3626L102.63 31.8586C102.451 31.8942 102.275 31.8391 102.129 31.73Z" fill="url(#paint9_linear_443_55718)"/>
<path d="M92.7409 53.4642L86.9718 49.1494L91.2865 43.3804L97.0556 47.6951L92.7409 53.4642ZM88.7725 48.8897L92.4812 51.6635L95.2549 47.9548L91.5462 45.181L88.7725 48.8897Z" fill="#D8DEE8"/>
<path d="M88.3366 50.1704C88.3339 50.1683 88.3311 50.1663 88.3284 50.1642C88.1795 50.0528 88.081 49.8914 88.0701 49.7057L87.9402 47.5704C87.9195 47.2157 88.1878 46.9147 88.5424 46.8939C88.897 46.8732 89.2002 47.1456 89.2209 47.5002L89.3023 48.9055L96.172 47.5409C96.5204 47.4716 96.859 47.6982 96.9281 48.0467C96.9973 48.3952 96.7709 48.7338 96.4224 48.803L88.8375 50.2991C88.6586 50.3346 88.4826 50.2796 88.3366 50.1704Z" fill="url(#paint10_linear_443_55718)"/>
<path d="M81.6336 59.1331C81.6309 59.131 81.6281 59.129 81.6254 59.1269C81.4765 59.0155 81.3779 58.8541 81.3671 58.6684L81.2372 56.533C81.2165 56.1784 81.4848 55.8773 81.8394 55.8566C82.194 55.8358 82.4972 56.1082 82.5179 56.4629L82.5993 57.8681L89.469 56.5036C89.8175 56.4343 90.1559 56.6609 90.2251 57.0094C90.2943 57.3578 90.0679 57.6964 89.7194 57.7657L82.1346 59.2617C81.9556 59.2973 81.7796 59.2422 81.6336 59.1331Z" fill="url(#paint11_linear_443_55718)"/>
<path d="M99.7409 44.4642L93.9718 40.1494L98.2865 34.3804L104.056 38.6951L99.7409 44.4642ZM95.7725 39.8897L99.4812 42.6635L102.255 38.9548L98.5462 36.181L95.7725 39.8897Z" fill="#D8DEE8"/>
<path d="M95.3366 41.1704C95.3339 41.1683 95.3311 41.1663 95.3284 41.1642C95.1795 41.0528 95.081 40.8914 95.0701 40.7057L94.9402 38.5704C94.9195 38.2157 95.1878 37.9147 95.5424 37.8939C95.897 37.8732 96.2002 38.1456 96.2209 38.5002L96.3023 39.9055L103.172 38.5409C103.52 38.4716 103.859 38.6982 103.928 39.0467C103.997 39.3952 103.771 39.7338 103.422 39.803L95.8375 41.2991C95.6586 41.3346 95.4826 41.2796 95.3366 41.1704Z" fill="url(#paint12_linear_443_55718)"/>
<path d="M130.136 72.8934C129.757 72.1473 129.601 72.1516 129.508 71.7579C129.296 70.8604 129.844 69.7206 130.308 69.7048C130.607 69.6946 130.632 70.1598 131.265 70.8849C132.041 71.7731 132.512 71.6566 132.969 72.4276C133.076 72.608 133.557 73.4199 133.261 74.0258C132.884 74.7991 131.396 74.9216 130.774 74.3251C130.479 74.0421 130.603 73.8125 130.136 72.8934Z" fill="url(#paint13_linear_443_55718)"/>
<path d="M131.556 73.5869C131.556 73.5869 131.247 75.2349 131.467 76.5749C131.666 77.786 133.909 79.0441 134.339 79.4048C134.769 79.7655 133.198 80.157 131.758 79.9684C130.317 79.78 126.373 78.5178 125.773 77.8143C125.174 77.1109 126.471 77.4574 127.562 77.3242C128.653 77.191 129.695 75.3625 129.727 74.4292C129.759 73.4958 131.556 73.5869 131.556 73.5869Z" fill="url(#paint14_linear_443_55718)"/>
<path d="M130.847 74.7567C130.847 74.7567 129.898 75.1734 129.058 74.5013C128.305 73.8995 129.424 72.0509 130.19 72.0273C130.445 72.0195 130.818 72.2024 131.038 72.4701C131.168 72.6282 131.176 72.7336 131.393 72.9878C131.594 73.2222 131.682 73.2434 131.712 73.3573C131.751 73.4996 131.685 73.7376 131.17 74.1467C131.427 74.0994 131.648 74.1671 131.734 74.3167C131.747 74.3406 131.776 74.4153 131.767 74.4923C131.736 74.7712 131.372 74.9004 130.847 74.7567Z" fill="url(#paint15_linear_443_55718)"/>
<path d="M106.849 69.0847C106.849 69.0847 106.181 68.9917 106.389 67.716C106.552 66.7161 106.429 66.3798 106.193 66.5571C105.957 66.7344 105.923 67.3122 105.923 67.3122C105.923 67.3122 105.062 66.5779 104.708 65.6156C104.353 64.6534 104.125 65.4637 104.049 65.9448C103.974 66.4259 104.556 67.9199 104.885 68.1984C105.214 68.4769 105.695 69.7046 105.695 69.7046L106.849 69.0847Z" fill="url(#paint16_linear_443_55718)"/>
<path d="M131.552 139.632C131.895 140.333 131.799 140.634 131.713 140.767C131.462 141.155 130.859 140.788 129.282 140.975C129.097 140.997 128.745 141.045 128.304 140.941C127.927 140.852 127.482 140.651 127.501 140.55C127.508 140.513 127.575 140.499 127.601 140.493C128.038 140.4 130.777 139.56 130.777 139.56L131.552 139.632Z" fill="url(#paint17_linear_443_55718)"/>
<path d="M131.762 138.091L131.517 139.658C131.517 139.658 130.844 140.134 130.667 139.556C130.54 139.141 130.543 138.021 130.543 138.021L131.762 138.091Z" fill="url(#paint18_linear_443_55718)"/>
<path d="M124.088 138.199L124.749 140.003L125.709 139.85L125.486 138.179L124.088 138.199Z" fill="url(#paint19_linear_443_55718)"/>
<path d="M125.048 140.997C125.512 140.445 125.927 140.495 126.011 140.116C126.077 139.818 125.895 139.453 125.619 139.314C125.233 139.119 124.764 139.424 124.659 139.493C123.94 139.96 124.136 140.691 123.458 141.007C123.321 141.071 123.105 141.139 122.877 141.352C122.78 141.443 122.541 141.668 122.597 141.822C122.662 142.001 123.089 141.995 123.495 141.989C123.983 141.982 124.227 141.979 124.461 141.832C124.786 141.63 124.689 141.422 125.048 140.997Z" fill="url(#paint20_linear_443_55718)"/>
<path d="M136.9 100.61C136.722 104.255 136.2 107.366 135.606 109.903C134.968 112.631 134.62 113.098 134.398 114.989C133.916 119.105 135.233 119.724 135.377 124.391C135.536 129.544 134.08 133.606 133.508 135.155C133.008 136.509 132.492 137.6 132.106 138.357C131.625 138.759 130.907 138.585 130.149 138.414C129.969 133.739 129.714 129.338 129.534 124.663C128.781 117.62 128.027 110.577 127.274 103.534C130.483 102.56 133.691 101.585 136.9 100.61Z" fill="url(#paint21_linear_443_55718)"/>
<path opacity="0.3" d="M130.149 138.414C129.969 133.739 129.714 129.338 129.534 124.663C128.78 117.62 128.027 110.577 127.274 103.534C130.482 102.56 133.691 101.585 136.899 100.61C136.888 100.852 136.871 101.084 136.856 101.321C132.303 105.107 131.362 108.164 131.36 110.262C131.359 112.807 132.723 114.098 132.372 117.781C132.121 120.414 131.318 120.862 131.267 123.242C131.202 126.306 132.48 128.058 133.083 129.842C133.665 131.567 133.834 133.996 132.564 137.419C132.399 137.771 132.244 138.087 132.106 138.357C131.625 138.759 130.907 138.585 130.149 138.414Z" fill="url(#paint22_linear_443_55718)"/>
<path d="M131.457 103.334C128.569 106.87 126.923 110.175 125.972 112.491C124.829 115.277 124 117.365 124.26 120.07C124.546 123.046 125.896 124.116 126.792 126.653C127.662 129.114 128.085 132.901 125.817 138.536C125.246 138.734 124.675 138.931 124.105 139.129C123.726 137.606 123.112 135.328 122.195 132.616C120.377 127.24 118.565 123.703 118.076 122.604C116.35 118.735 116.176 111.827 123.358 98.4995C126.057 100.111 128.757 101.722 131.457 103.334Z" fill="url(#paint23_linear_443_55718)"/>
<path d="M105.069 69.4266C105.829 68.8944 106.589 68.3624 107.348 67.8303C108.273 73.5132 110.374 75.7435 112.159 76.7192C116.465 79.0727 120.308 74.8786 128.549 76.5902C130.821 77.0618 134.779 77.9404 136.974 81.1758C137.551 82.0263 137.757 82.6702 138.715 88.7711C139.939 96.5697 139.983 97.9308 139.81 99.6099C139.494 102.683 139.303 104.545 137.886 106.194C134.123 110.57 126.126 108.314 125.124 108.017C123.272 107.468 120.393 106.615 119.249 104.168C118.711 103.016 118.768 101.964 119.595 97.7522C121.234 89.4099 121.443 88.87 120.986 87.9565C119.442 84.8736 114.552 86.6376 110.421 83.7708C108.006 82.0945 105.283 78.4417 105.069 69.4266Z" fill="url(#paint24_linear_443_55718)"/>
<path opacity="0.3" d="M128.871 106.903C128.065 105.249 129.149 103.725 127.96 101.737C126.445 99.2036 123.719 100.064 122.693 98.1919C120.939 94.9908 127.844 90.5262 126.44 85.4299C125.771 82.9966 123.432 81.2354 121.477 80.5682C117.139 79.0868 114.302 82.8629 110.235 81.6823C109.271 81.4023 108.164 80.8226 107.045 79.6194C108.034 81.706 109.263 82.9668 110.421 83.7708C114.552 86.6376 119.442 84.8737 120.986 87.9565C121.443 88.8701 121.234 89.4099 119.595 97.7522C118.768 101.964 118.711 103.016 119.249 104.168C120.393 106.615 123.272 107.468 125.124 108.017C125.672 108.179 128.318 108.927 131.216 108.855C129.923 108.329 129.227 107.632 128.871 106.903Z" fill="url(#paint25_linear_443_55718)"/>
<path d="M39.6532 20.4745C39.6532 29.1935 32.6275 36.7313 23.9341 37.3124C15.211 37.8955 8.11768 31.2578 8.11768 22.4848C8.11768 13.7119 15.211 6.16973 23.9341 5.64067C32.6275 5.11337 39.6532 11.7554 39.6532 20.4745Z" fill="#9D3060"/>
<path d="M41.5193 21.033C41.5193 29.7521 34.4936 37.2899 25.8002 37.871C17.0771 38.4541 9.98376 31.8164 9.98376 23.0434C9.98376 14.2705 17.0771 6.72832 25.8002 6.19926C34.4936 5.67201 41.5193 12.314 41.5193 21.033Z" fill="url(#paint26_linear_443_55718)"/>
<path d="M25.2448 30.6042C24.561 30.6489 23.9249 30.3309 23.571 29.7626L17.627 20.2178C17.07 19.3234 17.3701 18.0982 18.2971 17.4816C19.2233 16.8653 20.4254 17.0905 20.9817 17.9845L25.1039 24.6101L30.5431 13.5324C31.0313 12.5383 32.2041 12.0822 33.1619 12.5134C34.1197 12.9445 34.5007 14.0991 34.0133 15.0927L26.9843 29.4198C26.6624 30.0758 26.0225 30.5273 25.3134 30.5985C25.2905 30.6008 25.2676 30.6027 25.2448 30.6042Z" fill="white"/>
<path d="M31.9309 142.9C31.9309 142.9 31.8155 143.818 31.8929 144.126C31.9704 144.433 34.6393 144.656 35.5453 144.549C36.4512 144.442 35.0057 143.516 34.4284 143.343C33.8512 143.169 31.9309 142.9 31.9309 142.9Z" fill="url(#paint27_linear_443_55718)"/>
<path d="M33.2744 141.369L32.993 143.211C32.993 143.211 32.2757 143.533 31.9309 143.214L31.8929 141.287L33.2744 141.369Z" fill="url(#paint28_linear_443_55718)"/>
<path d="M18.2289 141.287C18.2289 141.287 18.7952 141.707 18.6442 142.21C18.4933 142.713 17.1719 144.73 16.2301 145.302C15.2884 145.875 15.5836 144.682 15.8576 143.94C16.1317 143.197 16.8319 141.561 17.1053 141.287C17.3786 141.012 18.2289 141.287 18.2289 141.287Z" fill="url(#paint29_linear_443_55718)"/>
<path d="M19.2475 139.263C18.9738 140.027 18.7105 140.654 18.5045 141.117C18.0489 142.14 17.7999 142.524 17.5178 142.857C17.2718 143.147 16.6896 143.766 16.533 143.663C16.374 143.559 16.8001 142.806 17.6212 140.603C17.7404 140.283 18.117 139.263 18.117 139.263H19.2475V139.263Z" fill="url(#paint30_linear_443_55718)"/>
<path d="M38.8636 107.379C39.0589 109.297 39.2463 112.274 38.9661 115.887C38.6009 120.594 37.6597 123.573 36.4793 128.591C35.7579 131.659 34.7859 136.173 33.9063 141.819C33.7022 141.936 33.1018 142.243 32.3287 142.128C31.8958 142.064 31.5721 141.892 31.381 141.768C29.0731 134.716 29.7547 130.346 30.8685 127.623C31.3432 126.462 31.9188 125.547 32.2265 123.763C32.6336 121.402 32.1302 120.083 31.4124 114.615C30.9007 110.718 30.9893 110.116 31.3297 109.532C32.6905 107.195 36.8528 107.241 38.8636 107.379Z" fill="url(#paint31_linear_443_55718)"/>
<path d="M30.9198 108.199C29.506 115.501 28.1184 119.336 27.0683 121.505C26.8093 122.039 25.9453 123.765 25.1285 126.239C24.4054 128.429 24.104 130.04 23.9497 130.75C23.4623 132.988 22.2576 136.255 19.0161 140.542C18.9757 140.565 18.4231 140.878 17.8946 140.599C17.6272 140.458 17.4939 140.233 17.4409 140.128C17.8647 136.031 18.3511 132.587 18.7734 129.929C18.862 129.372 19.2522 126.933 19.8641 123.712C20.1035 122.451 20.4544 120.603 20.8747 118.706C21.398 116.343 22.2005 113.128 23.4373 109.276C25.9314 108.917 28.4256 108.558 30.9198 108.199Z" fill="url(#paint32_linear_443_55718)"/>
<path d="M32.1242 79.3196C32.9259 78.5785 34.4599 77.7241 35.2293 75.738C35.4609 75.1401 36.2813 73.0218 35.071 71.4014C34.3527 70.4396 33.0183 69.7864 31.8423 70.0177C30.8372 70.2153 30.6801 70.9152 28.9723 72.3239C28.3075 72.8723 27.2391 73.7536 26.0499 74.2437C24.0125 75.0834 22.7885 74.2933 20.743 74.3834C18.2301 74.4942 15.3111 75.8965 13.9047 77.9359C11.4085 81.5553 15.0245 85.227 12.2903 89.4672C11.3944 90.8564 10.9529 90.545 8.83093 93.2341C6.70615 95.9269 5.64373 97.2731 5.83278 98.9229C6.09516 101.213 8.56141 103.4 10.8839 103.549C13.1526 103.694 14.5948 101.909 15.7498 102.69C16.5718 103.245 16.1018 104.326 16.9749 105.625C18.1004 107.299 20.3126 107.633 20.6698 107.687C23.9859 108.187 28.4572 104.299 30.3562 99.6917C33.7804 91.3843 27.7651 83.3489 32.1242 79.3196Z" fill="url(#paint33_linear_443_55718)"/>
<path d="M45.7311 81.6257C45.7537 79.3069 40.4861 77.4538 38.0759 76.8567C34.3268 75.9279 31.3245 76.5111 30.5953 76.6654C25.9196 77.6562 23.0075 80.4618 21.9115 81.6411C22.809 82.2255 25.2857 84.0086 26.5123 87.3914C26.8939 88.444 28.0214 92.0421 26.409 95.4124C25.4799 97.3544 23.8364 98.8123 22.5882 99.9198C20.716 101.581 19.7465 101.836 19.1188 103.324C18.4352 104.944 19.124 105.734 18.2752 106.844C17.3635 108.035 16.2954 107.481 14.7503 108.686C13.1674 109.92 13.7307 110.936 12.2902 112.299C10.1972 114.28 7.42254 113.637 7.29332 114.529C7.1821 115.296 9.15417 116.336 10.8296 116.758C14.1476 117.594 17.0416 116.191 17.9022 115.759C20.2848 114.562 19.8733 113.787 21.6898 112.874C24.7316 111.346 26.8104 113.047 33.7386 113.222C37.4904 113.317 39.3874 113.338 40.4267 112.069C41.3759 110.909 40.8769 109.637 40.3073 104.156C40.0362 101.548 39.9384 98.9237 39.7386 96.3087C39.1735 88.9115 39.1562 88.2605 39.6579 87.2377C41.4553 83.5741 45.7109 83.7069 45.7311 81.6257Z" fill="url(#paint34_linear_443_55718)"/>
<g opacity="0.3">
<path d="M12.2903 112.299C13.7307 110.936 13.1675 109.92 14.7503 108.686C16.2955 107.481 17.3636 108.035 18.2752 106.844C19.124 105.734 18.4353 104.944 19.1188 103.324C19.7465 101.836 20.716 101.581 22.5883 99.9199C23.8364 98.8124 25.48 97.3545 26.409 95.4125C28.0214 92.0422 26.894 88.4441 26.5123 87.3915C25.2857 84.0087 22.809 82.2255 21.9116 81.6411C21.9979 81.548 22.0999 81.442 22.2088 81.3303C28.122 82.1429 31.5696 85.5597 31.996 86.5714C32.9816 88.9101 31.4213 89.7693 31.381 96.5142C31.3618 99.7382 31.7095 101.011 30.6635 102.357C29.4671 103.896 28.0885 103.419 26.3584 105.432C25.0292 106.978 25.2421 107.958 24.0009 108.609C22.6663 109.309 21.8162 108.493 20.3109 108.814C17.796 109.351 17.2584 112.25 15.5958 113.837C14.3386 115.036 12.0142 115.875 7.42999 114.975C7.32395 114.821 7.27277 114.67 7.29326 114.529C7.42254 113.637 10.1972 114.281 12.2903 112.299Z" fill="url(#paint35_linear_443_55718)"/>
</g>
<path d="M30.2023 88.391C30.8309 89.7258 27.9424 92.8348 24.732 94.311C24.078 94.6119 19.3807 96.7716 17.2871 94.6948C15.5572 92.9786 16.6737 89.43 17.0723 88.1631C19.0295 81.9421 25.0401 78.7776 27.559 77.6362C29.4389 82.3367 28.3318 84.4313 27.896 85.0854C27.4407 85.7685 26.1703 87.2036 24.8209 88.4679C23.8718 89.357 23.2808 89.7898 23.3603 89.9285C23.4592 90.1012 24.5717 89.7751 28.8929 87.6718C29.3939 87.7529 29.9875 87.9352 30.2023 88.391Z" fill="url(#paint36_linear_443_55718)"/>
<path d="M48.2832 80.7221L46.163 91.2811C46.095 91.6195 45.8328 91.8853 45.4953 91.9576L29.6859 95.3505C29.1193 95.472 28.5954 95.014 28.6403 94.4363L29.4747 83.6975C29.5036 83.3248 29.7676 83.0131 30.1306 82.9235C32.6384 82.3046 42.2911 79.9866 47.3821 79.6854C47.9508 79.6518 48.3953 80.1636 48.2832 80.7221Z" fill="url(#paint37_linear_443_55718)"/>
<path d="M32.5145 73.0105C32.5145 73.0105 32.2163 75.3945 31.3365 75.9408C30.4565 76.4867 29.0341 77.2002 28.8774 77.3939C28.7207 77.5873 34.3282 78.1903 37.1073 76.7879C36.1915 76.5969 35.9424 76.5267 35.9424 76.5267C35.6939 76.4564 35.2303 76.3258 34.7654 76.0609C34.4491 75.8807 33.9392 75.5288 33.4715 74.8642L33.4817 73.5442L32.5145 73.0105Z" fill="url(#paint38_linear_443_55718)"/>
<path d="M32.3807 73.8547C32.3807 73.8547 32.9544 74.6422 33.8541 74.314C34.6597 74.0202 34.1789 71.9395 33.5399 71.7022C33.3268 71.6231 32.9353 71.6581 32.6737 71.8212C32.4897 71.9361 31.9983 72.5465 32.28 73.2305C32.0765 73.1715 31.8973 73.2252 31.8525 73.3259C31.7955 73.4537 31.9679 73.6278 32.0069 73.6673C32.1423 73.804 32.3055 73.8423 32.3807 73.8547Z" fill="url(#paint39_linear_443_55718)"/>
<path opacity="0.3" d="M34.046 89.8516C35.7439 89.3729 37.152 90.5618 38.5048 89.621C39.8905 88.6573 38.9861 87.0114 40.4267 85.3928C41.967 83.6622 43.9211 84.5099 45.3468 82.9328C45.876 82.3472 46.3521 81.3931 46.3595 79.7664C46.7167 79.7319 47.0588 79.7046 47.3821 79.6854C47.9507 79.6518 48.3953 80.1637 48.2832 80.722L46.1629 91.2811C46.095 91.6195 45.8328 91.8853 45.4953 91.9576L30.3018 95.2182C31.3745 91.4545 32.806 90.2012 34.046 89.8516Z" fill="url(#paint40_linear_443_55718)"/>
<path d="M47.277 86.3394C47.277 86.3394 48.2854 85.4073 48.3952 84.3244C48.5049 83.2416 47.7438 82.3751 47.0065 82.1543C46.2692 81.9334 45.8757 82.2591 46.3707 83.3254C46.8657 84.3916 47.6508 85.0837 47.277 86.3394Z" fill="url(#paint41_linear_443_55718)"/>
<defs>
<linearGradient id="paint0_linear_443_55718" x1="104.559" y1="14.7739" x2="70.8664" y2="101.886" gradientUnits="userSpaceOnUse">
<stop stop-color="#FF9085"/>
<stop offset="1" stop-color="#FB6FBB"/>
</linearGradient>
<linearGradient id="paint1_linear_443_55718" x1="100.14" y1="74.1131" x2="82.7255" y2="142.023" gradientUnits="userSpaceOnUse">
<stop stop-color="#FFC444"/>
<stop offset="0.9964" stop-color="#F36F56"/>
</linearGradient>
<linearGradient id="paint2_linear_443_55718" x1="110.834" y1="60.843" x2="79.0534" y2="123.334" gradientUnits="userSpaceOnUse">
<stop stop-color="#FFC444"/>
<stop offset="0.9964" stop-color="#F36F56"/>
</linearGradient>
<linearGradient id="paint3_linear_443_55718" x1="56.4579" y1="74.1554" x2="34.274" y2="76.5755" gradientUnits="userSpaceOnUse">
<stop stop-color="#444B8C"/>
<stop offset="0.9964" stop-color="#26264F"/>
</linearGradient>
<linearGradient id="paint4_linear_443_55718" x1="76.0041" y1="18.2365" x2="21.1497" y2="204.984" gradientUnits="userSpaceOnUse">
<stop stop-color="#444B8C"/>
<stop offset="0.9964" stop-color="#26264F"/>
</linearGradient>
<linearGradient id="paint5_linear_443_55718" x1="19.3551" y1="70.8406" x2="74.5056" y2="82.4328" gradientUnits="userSpaceOnUse">
<stop offset="0.0036" stop-color="#E38DDD"/>
<stop offset="1" stop-color="#9571F6"/>
</linearGradient>
<linearGradient id="paint6_linear_443_55718" x1="55.4488" y1="13.6368" x2="-9.01991" y2="188.24" gradientUnits="userSpaceOnUse">
<stop stop-color="#311944"/>
<stop offset="1" stop-color="#893976"/>
</linearGradient>
<linearGradient id="paint7_linear_443_55718" x1="126.825" y1="94.2902" x2="124.394" y2="79.705" gradientUnits="userSpaceOnUse">
<stop stop-color="#FF9085"/>
<stop offset="1" stop-color="#FB6FBB"/>
</linearGradient>
<linearGradient id="paint8_linear_443_55718" x1="121.138" y1="64.1307" x2="121.509" y2="69.5327" gradientUnits="userSpaceOnUse">
<stop offset="0.0036" stop-color="#F36F56"/>
<stop offset="1" stop-color="#FFC444"/>
</linearGradient>
<linearGradient id="paint9_linear_443_55718" x1="102.606" y1="27.7091" x2="108.89" y2="32.409" gradientUnits="userSpaceOnUse">
<stop stop-color="#AA80F9"/>
<stop offset="0.9964" stop-color="#6165D7"/>
</linearGradient>
<linearGradient id="paint10_linear_443_55718" x1="88.8137" y1="46.1495" x2="95.098" y2="50.8494" gradientUnits="userSpaceOnUse">
<stop stop-color="#AA80F9"/>
<stop offset="0.9964" stop-color="#6165D7"/>
</linearGradient>
<linearGradient id="paint11_linear_443_55718" x1="82.1107" y1="55.1122" x2="88.395" y2="59.8121" gradientUnits="userSpaceOnUse">
<stop stop-color="#AA80F9"/>
<stop offset="0.9964" stop-color="#6165D7"/>
</linearGradient>
<linearGradient id="paint12_linear_443_55718" x1="95.8137" y1="37.1495" x2="102.098" y2="41.8494" gradientUnits="userSpaceOnUse">
<stop stop-color="#AA80F9"/>
<stop offset="0.9964" stop-color="#6165D7"/>
</linearGradient>
<linearGradient id="paint13_linear_443_55718" x1="131.445" y1="73.7198" x2="131.284" y2="68.2325" gradientUnits="userSpaceOnUse">
<stop offset="0.0036" stop-color="#26264F"/>
<stop offset="1" stop-color="#444B8C"/>
</linearGradient>
<linearGradient id="paint14_linear_443_55718" x1="130.4" y1="64.1501" x2="129.9" y2="82.8882" gradientUnits="userSpaceOnUse">
<stop offset="0.0036" stop-color="#F36F56"/>
<stop offset="1" stop-color="#FFC444"/>
</linearGradient>
<linearGradient id="paint15_linear_443_55718" x1="134.46" y1="71.1459" x2="129.136" y2="74.4127" gradientUnits="userSpaceOnUse">
<stop offset="0.0036" stop-color="#F36F56"/>
<stop offset="1" stop-color="#FFC444"/>
</linearGradient>
<linearGradient id="paint16_linear_443_55718" x1="106.077" y1="69.1687" x2="107.124" y2="72.5112" gradientUnits="userSpaceOnUse">
<stop offset="0.0036" stop-color="#F36F56"/>
<stop offset="1" stop-color="#FFC444"/>
</linearGradient>
<linearGradient id="paint17_linear_443_55718" x1="128.354" y1="145.043" x2="131.558" y2="133.925" gradientUnits="userSpaceOnUse">
<stop stop-color="#444B8C"/>
<stop offset="0.9964" stop-color="#26264F"/>
</linearGradient>
<linearGradient id="paint18_linear_443_55718" x1="131.218" y1="142.847" x2="130.973" y2="125.061" gradientUnits="userSpaceOnUse">
<stop stop-color="#FFC444"/>
<stop offset="0.9964" stop-color="#F36F56"/>
</linearGradient>
<linearGradient id="paint19_linear_443_55718" x1="124.943" y1="142.269" x2="124.698" y2="124.483" gradientUnits="userSpaceOnUse">
<stop stop-color="#FFC444"/>
<stop offset="0.9964" stop-color="#F36F56"/>
</linearGradient>
<linearGradient id="paint20_linear_443_55718" x1="123.716" y1="142.959" x2="126.921" y2="131.842" gradientUnits="userSpaceOnUse">
<stop stop-color="#444B8C"/>
<stop offset="0.9964" stop-color="#26264F"/>
</linearGradient>
<linearGradient id="paint21_linear_443_55718" x1="132.225" y1="104.448" x2="134.366" y2="141.176" gradientUnits="userSpaceOnUse">
<stop stop-color="#311944"/>
<stop offset="1" stop-color="#893976"/>
</linearGradient>
<linearGradient id="paint22_linear_443_55718" x1="132.225" y1="104.448" x2="134.366" y2="141.176" gradientUnits="userSpaceOnUse">
<stop stop-color="#311944"/>
<stop offset="1" stop-color="#893976"/>
</linearGradient>
<linearGradient id="paint23_linear_443_55718" x1="102.855" y1="120.052" x2="138.833" y2="117.919" gradientUnits="userSpaceOnUse">
<stop stop-color="#311944"/>
<stop offset="1" stop-color="#893976"/>
</linearGradient>
<linearGradient id="paint24_linear_443_55718" x1="121.64" y1="78.8651" x2="128.122" y2="112.627" gradientUnits="userSpaceOnUse">
<stop stop-color="#FF9085"/>
<stop offset="1" stop-color="#FB6FBB"/>
</linearGradient>
<linearGradient id="paint25_linear_443_55718" x1="116.373" y1="79.8761" x2="122.856" y2="113.638" gradientUnits="userSpaceOnUse">
<stop stop-color="#FF9085"/>
<stop offset="1" stop-color="#FB6FBB"/>
</linearGradient>
<linearGradient id="paint26_linear_443_55718" x1="9.98379" y1="22.0383" x2="41.5193" y2="22.0383" gradientUnits="userSpaceOnUse">
<stop stop-color="#FFC444"/>
<stop offset="0.9964" stop-color="#F36F56"/>
</linearGradient>
<linearGradient id="paint27_linear_443_55718" x1="34.2418" y1="136.996" x2="33.3193" y2="153.601" gradientUnits="userSpaceOnUse">
<stop stop-color="#444B8C"/>
<stop offset="0.9964" stop-color="#26264F"/>
</linearGradient>
<linearGradient id="paint28_linear_443_55718" x1="33.2744" y1="142.321" x2="31.893" y2="142.321" gradientUnits="userSpaceOnUse">
<stop stop-color="#311944"/>
<stop offset="1" stop-color="#A03976"/>
</linearGradient>
<linearGradient id="paint29_linear_443_55718" x1="17.5444" y1="136.068" x2="16.6219" y2="152.673" gradientUnits="userSpaceOnUse">
<stop stop-color="#444B8C"/>
<stop offset="0.9964" stop-color="#26264F"/>
</linearGradient>
<linearGradient id="paint30_linear_443_55718" x1="19.2475" y1="141.469" x2="16.5002" y2="141.469" gradientUnits="userSpaceOnUse">
<stop stop-color="#311944"/>
<stop offset="1" stop-color="#A03976"/>
</linearGradient>
<linearGradient id="paint31_linear_443_55718" x1="34.0157" y1="140.657" x2="34.477" y2="122.822" gradientUnits="userSpaceOnUse">
<stop stop-color="#311944"/>
<stop offset="1" stop-color="#893976"/>
</linearGradient>
<linearGradient id="paint32_linear_443_55718" x1="23.7607" y1="140.392" x2="24.222" y2="122.557" gradientUnits="userSpaceOnUse">
<stop stop-color="#311944"/>
<stop offset="1" stop-color="#893976"/>
</linearGradient>
<linearGradient id="paint33_linear_443_55718" x1="17.4651" y1="95.7474" x2="23.9227" y2="86.5992" gradientUnits="userSpaceOnUse">
<stop stop-color="#444B8C"/>
<stop offset="0.9964" stop-color="#26264F"/>
</linearGradient>
<linearGradient id="paint34_linear_443_55718" x1="37.2062" y1="93.0155" x2="2.43254" y2="113.207" gradientUnits="userSpaceOnUse">
<stop stop-color="#FFC444"/>
<stop offset="0.9964" stop-color="#F36F56"/>
</linearGradient>
<linearGradient id="paint35_linear_443_55718" x1="24.434" y1="76.369" x2="19.104" y2="108.964" gradientUnits="userSpaceOnUse">
<stop stop-color="#FFC444"/>
<stop offset="0.9964" stop-color="#F36F56"/>
</linearGradient>
<linearGradient id="paint36_linear_443_55718" x1="25.5365" y1="76.5494" x2="20.2065" y2="109.145" gradientUnits="userSpaceOnUse">
<stop stop-color="#FFC444"/>
<stop offset="0.9964" stop-color="#F36F56"/>
</linearGradient>
<linearGradient id="paint37_linear_443_55718" x1="28.6376" y1="87.527" x2="48.3006" y2="87.527" gradientUnits="userSpaceOnUse">
<stop stop-color="#FF9085"/>
<stop offset="1" stop-color="#FB6FBB"/>
</linearGradient>
<linearGradient id="paint38_linear_443_55718" x1="29.9861" y1="74.5072" x2="32.3636" y2="76.4416" gradientUnits="userSpaceOnUse">
<stop stop-color="#311944"/>
<stop offset="1" stop-color="#A03976"/>
</linearGradient>
<linearGradient id="paint39_linear_443_55718" x1="28.469" y1="71.1861" x2="33.8864" y2="73.243" gradientUnits="userSpaceOnUse">
<stop stop-color="#311944"/>
<stop offset="1" stop-color="#A03976"/>
</linearGradient>
<linearGradient id="paint40_linear_443_55718" x1="30.3017" y1="87.451" x2="48.3006" y2="87.451" gradientUnits="userSpaceOnUse">
<stop stop-color="#FF9085"/>
<stop offset="1" stop-color="#FB6FBB"/>
</linearGradient>
<linearGradient id="paint41_linear_443_55718" x1="48.5372" y1="89.7055" x2="46.5385" y2="79.5067" gradientUnits="userSpaceOnUse">
<stop stop-color="#311944"/>
<stop offset="1" stop-color="#A03976"/>
</linearGradient>
</defs>
</svg>
